<svg width="34" height="34" viewBox="0 0 34 34" fill="none" xmlns="http://www.w3.org/2000/svg">
<path d="M27.8013 0H5.89725C2.64029 0 0 2.64029 0 5.89725V27.8013C0 31.0583 2.64029 33.6986 5.89725 33.6986H27.8013C31.0583 33.6986 33.6986 31.0583 33.6986 27.8013V5.89725C33.6986 2.64029 31.0583 0 27.8013 0Z" fill="#2E0501"/>
<path d="M17.1291 20.5762H12.0586L10.791 24.4241C10.7764 24.5413 10.6963 24.6 10.5506 24.6H8.25577C8.11006 24.6 8.05907 24.5267 8.10278 24.3801L12.6487 11.3194C12.7507 11.0995 12.8163 10.6891 12.8454 10.0881C12.8454 10.0001 12.8964 9.95615 12.9984 9.95615H16.1456C16.2184 9.95615 16.2767 9.9928 16.3204 10.0661L21.3909 24.4021C21.4346 24.534 21.3909 24.6 21.2598 24.6H18.6808C18.5788 24.6 18.506 24.5487 18.4623 24.4461L17.1291 20.5762ZM12.6269 18.4434H16.5608C16.5026 18.2382 16.1966 17.3074 15.6429 15.651C15.1038 13.9799 14.7468 12.8365 14.572 12.2209H14.5501C14.3753 12.9685 13.7342 15.0426 12.6269 18.4434Z" fill="#F2A032"/>
<path d="M22.7478 24.4021V14.0679C22.7478 13.9506 22.8061 13.892 22.9227 13.892H25.3486C25.4652 13.892 25.5235 13.9506 25.5235 14.0679V24.4241C25.5235 24.5413 25.4652 24.6 25.3486 24.6H22.9445C22.8134 24.6 22.7478 24.534 22.7478 24.4021ZM25.2175 11.6712C24.9552 11.935 24.5983 12.067 24.1466 12.067C23.6949 12.067 23.3379 11.935 23.0757 11.6712C22.8134 11.4073 22.6823 11.0482 22.6823 10.5938C22.6823 10.154 22.8207 9.79491 23.0975 9.5164C23.3744 9.23789 23.7313 9.09863 24.1684 9.09863C24.6055 9.09863 24.9552 9.23789 25.2175 9.5164C25.4798 9.79491 25.6109 10.154 25.6109 10.5938C25.6109 11.0482 25.4798 11.4073 25.2175 11.6712Z" fill="#F2A032"/>
</svg>
