<svg width="34" height="35" viewBox="0 0 34 35" fill="none" xmlns="http://www.w3.org/2000/svg">
<path d="M6.1259 0.833011H27.8896C28.6734 0.832253 29.4497 0.990046 30.1741 1.29736C30.8984 1.60467 31.5565 2.05547 32.1108 2.62396C32.6651 3.19245 33.1046 3.86747 33.4043 4.61038C33.7039 5.35329 33.8577 6.14951 33.857 6.95347V28.4111C33.8577 29.2151 33.7039 30.0113 33.4043 30.7542C33.1046 31.4971 32.6651 32.1721 32.1108 32.7406C31.5565 33.3091 30.8984 33.7599 30.1741 34.0672C29.4497 34.3745 28.6734 34.5323 27.8896 34.5316H6.1259C5.34204 34.5323 4.56572 34.3745 3.84138 34.0672C3.11705 33.7599 2.4589 33.3091 1.90463 32.7406C1.35035 32.1721 0.910821 31.4971 0.61119 30.7542C0.31156 30.0113 0.157711 29.2151 0.15845 28.4111V6.95347C0.157711 6.14951 0.31156 5.35329 0.61119 4.61038C0.910821 3.86747 1.35035 3.19245 1.90463 2.62396C2.4589 2.05547 3.11705 1.60467 3.84138 1.29736C4.56572 0.990046 5.34204 0.832253 6.1259 0.833011Z" fill="#F0F0F0"/>
<path d="M17.01 30.7388L9.42993 28.6345L7.74072 9.68848H26.3019L24.6109 28.6316L17.01 30.7388Z" fill="#264DE4"/>
<path d="M23.1635 27.4251L24.6084 11.2373H17.0215V29.1279L23.1635 27.4251Z" fill="#2965F1"/>
<path d="M11.6133 18.2642L11.8216 20.5878H17.0215V18.2642H11.6133ZM11.1948 13.561L11.406 15.8847H17.0215V13.561H11.1948ZM17.0215 24.299L17.0113 24.3016L14.4234 23.6029L14.258 21.7497H11.9254L12.2509 25.3982L17.0108 26.7194L17.0215 26.7165V24.299Z" fill="#EBEBEB"/>
<path d="M12.1091 4.53955H14.9234V5.71648H13.2861V6.8934H14.9235V8.07025H12.1091V4.53955ZM15.4863 4.53955H18.3006V5.56296H16.6632V5.76762H18.3006V8.12147H15.4864V7.04677H17.1238V6.84211H15.4862V4.53955H15.4863ZM18.8636 4.53955H21.6779V5.56296H20.0405V5.76762H21.6779V8.12147H18.8636V7.04677H20.501V6.84211H18.8636V4.53955H18.8636Z" fill="black"/>
<path d="M22.4146 18.2642L22.834 13.561H17.0133V15.8847H20.2875L20.0761 18.2642H17.0133V20.5878H19.8746L19.6048 23.6014L17.0132 24.3009V26.7184L21.7768 25.3982L21.8118 25.0056L22.3579 18.8881L22.4146 18.2642Z" fill="white"/>
</svg>
