<svg width="34" height="34" viewBox="0 0 34 34" fill="none" xmlns="http://www.w3.org/2000/svg">
<path d="M6.02084 2.74045e-06H27.9792C28.77 -0.00076178 29.5533 0.158443 30.2841 0.468506C31.0149 0.778568 31.679 1.2334 32.2382 1.80698C32.7974 2.38055 33.2409 3.0616 33.5432 3.81116C33.8455 4.56072 34.0007 5.36406 34 6.17522V27.8248C34.0007 28.6359 33.8455 29.4393 33.5432 30.1888C33.2409 30.9384 32.7974 31.6194 32.2382 32.193C31.679 32.7666 31.0149 33.2214 30.2841 33.5315C29.5533 33.8416 28.77 34.0008 27.9792 34H6.02084C5.22996 34.0008 4.4467 33.8416 3.71588 33.5315C2.98506 33.2214 2.32104 32.7666 1.7618 32.193C1.20257 31.6194 0.759104 30.9384 0.456793 30.1888C0.154482 29.4393 -0.000742735 28.6359 2.67194e-06 27.8248V6.17522C-0.000742735 5.36406 0.154482 4.56072 0.456793 3.81116C0.759104 3.0616 1.20257 2.38055 1.7618 1.80698C2.32104 1.2334 2.98506 0.778568 3.71588 0.468506C4.4467 0.158443 5.22996 -0.00076178 6.02084 2.74045e-06Z" fill="#000B1D"/>
<path d="M13.7416 27.3704C15.6976 27.3704 17.2833 25.7848 17.2833 23.8288V20.2871H13.7416C11.7856 20.2871 10.2 21.8728 10.2 23.8288C10.2 25.7848 11.7856 27.3704 13.7416 27.3704Z" fill="#0ACF83"/>
<path d="M10.2 16.7453C10.2 14.7893 11.7856 13.2036 13.7416 13.2036H17.2833V20.2869H13.7416C11.7856 20.2869 10.2 18.7013 10.2 16.7453Z" fill="#A259FF"/>
<path d="M10.2 9.66178C10.2 7.70577 11.7856 6.12012 13.7416 6.12012H17.2833V13.2035H13.7416C11.7856 13.2035 10.2 11.6178 10.2 9.66178Z" fill="#F24E1E"/>
<path d="M17.2834 6.12012H20.8251C22.7811 6.12012 24.3668 7.70577 24.3668 9.66178C24.3668 11.6178 22.7811 13.2035 20.8251 13.2035H17.2834V6.12012Z" fill="#FF7262"/>
<path d="M24.3668 16.7453C24.3668 18.7013 22.7811 20.2869 20.8251 20.2869C18.8691 20.2869 17.2834 18.7013 17.2834 16.7453C17.2834 14.7893 18.8691 13.2036 20.8251 13.2036C22.7811 13.2036 24.3668 14.7893 24.3668 16.7453Z" fill="#1ABCFE"/>
</svg>
