<svg width="34" height="34" viewBox="0 0 34 34" fill="none" xmlns="http://www.w3.org/2000/svg">
<path d="M5.96746 2.71616e-06H27.7311C28.515 -0.000755026 29.2913 0.157038 30.0156 0.464352C30.74 0.771666 31.3981 1.22247 31.9524 1.79096C32.5067 2.35944 32.9462 3.03446 33.2458 3.77737C33.5454 4.52028 33.6993 5.3165 33.6986 6.12047V27.5781C33.6993 28.3821 33.5454 29.1783 33.2458 29.9212C32.9462 30.6641 32.5067 31.3391 31.9524 31.9076C31.3981 32.4761 30.74 32.9269 30.0156 33.2342C29.2913 33.5415 28.515 33.6993 27.7311 33.6986H5.96746C5.18359 33.6993 4.40727 33.5415 3.68294 33.2342C2.9586 32.9269 2.30046 32.4761 1.74618 31.9076C1.19191 31.3391 0.752374 30.6641 0.452743 29.9212C0.153112 29.1783 -0.00073615 28.3821 2.64825e-06 27.5781V6.12047C-0.00073615 5.3165 0.153112 4.52028 0.452743 3.77737C0.752374 3.03446 1.19191 2.35944 1.74618 1.79096C2.30046 1.22247 2.9586 0.771666 3.68294 0.464352C4.40727 0.157038 5.18359 -0.000755026 5.96746 2.71616e-06Z" fill="#F0F0F0"/>
<path d="M26.13 8.85547L24.439 27.7991L16.8378 29.9063L9.25761 27.802L7.56836 8.85547H26.13Z" fill="#E44D26"/>
<path d="M16.8491 28.2958L22.9912 26.593L24.4362 10.4048H16.8491V28.2958Z" fill="#F16529"/>
<path d="M13.562 15.0522H16.8492V12.7285H11.0225L11.078 13.3519L11.6492 19.7555H16.8492V17.4317H13.7744L13.562 15.0522ZM14.0857 20.9174H11.753L12.0786 24.5659L16.8385 25.8872L16.8492 25.8843V23.4667L16.8391 23.4694L14.2512 22.7706L14.0857 20.9174Z" fill="#EBEBEB"/>
<path d="M9.29541 3.70654H10.4763V4.87324H11.5566V3.70654H12.7375V7.23959H11.5566V6.05652H10.4764V7.23959H9.29548V3.70654H9.29541ZM14.2903 4.87819H13.2509V3.70654H16.5115V4.87819H15.4714V7.23959H14.2906V4.87819H14.2905H14.2903ZM17.029 3.70654H18.2603L19.0177 4.94796L19.7744 3.70654H21.0062V7.23959H19.8302V5.48842L19.0177 6.74461H18.9974L18.1844 5.48842V7.23959H17.029V3.70654ZM21.5939 3.70654H22.7752V6.0718H24.4358V7.23959H21.5938V3.70654H21.5939Z" fill="black"/>
<path d="M16.8411 19.7555H19.7025L19.4328 22.7692L16.8411 23.4687V25.8862L21.6048 24.5659L21.6398 24.1733L22.1859 18.0557L22.2426 17.4317H16.8411V19.7555ZM16.8411 15.0466V15.0522H22.454L22.5006 14.53L22.6065 13.3519L22.662 12.7285H16.8411V15.0466V15.0466Z" fill="white"/>
</svg>
