<svg width="35" height="35" viewBox="0 0 35 35" fill="none" xmlns="http://www.w3.org/2000/svg">
<path d="M6.95134 0.833011H28.715C29.4989 0.832253 30.2752 0.990046 30.9995 1.29736C31.7238 1.60467 32.382 2.05547 32.9363 2.62396C33.4905 3.19245 33.9301 3.86747 34.2297 4.61038C34.5293 5.35329 34.6832 6.14951 34.6824 6.95347V28.4111C34.6832 29.2151 34.5293 30.0113 34.2297 30.7542C33.9301 31.4971 33.4905 32.1721 32.9363 32.7406C32.382 33.3091 31.7238 33.7599 30.9995 34.0672C30.2752 34.3745 29.4989 34.5323 28.715 34.5316H6.95134C6.16748 34.5323 5.39116 34.3745 4.66682 34.0672C3.94248 33.7599 3.28434 33.3091 2.73007 32.7406C2.17579 32.1721 1.73626 31.4971 1.43663 30.7542C1.137 30.0113 0.983151 29.2151 0.983889 28.4111V6.95347C0.983151 6.14951 1.137 5.35329 1.43663 4.61038C1.73626 3.86747 2.17579 3.19245 2.73007 2.62396C3.28434 2.05547 3.94248 1.60467 4.66682 1.29736C5.39116 0.990046 6.16748 0.832253 6.95134 0.833011Z" fill="#F7DF1E"/>
<path d="M23.6781 27.2005C24.3568 28.3088 25.24 29.1234 26.8019 29.1234C28.114 29.1234 28.9521 28.4676 28.9521 27.5615C28.9521 26.4757 28.091 26.0911 26.6467 25.4594L25.8551 25.1197C23.57 24.1462 22.052 22.9266 22.052 20.3484C22.052 17.9735 23.8615 16.1655 26.6895 16.1655C28.7029 16.1655 30.1503 16.8662 31.1934 18.7009L28.7275 20.2842C28.1846 19.3107 27.5989 18.9272 26.6895 18.9272C25.762 18.9272 25.1742 19.5156 25.1742 20.2842C25.1742 21.2342 25.7625 21.6188 27.1212 22.2072L27.9128 22.5463C30.6034 23.7001 32.1225 24.8763 32.1225 27.5209C32.1225 30.3719 29.8829 31.9338 26.8751 31.9338C23.9343 31.9338 22.0343 30.5323 21.1047 28.6955L23.6781 27.2005ZM12.4917 27.4749C12.9892 28.3575 13.4417 29.1036 14.5297 29.1036C15.5701 29.1036 16.2264 28.6966 16.2264 27.1138V16.3463H19.393V27.1566C19.393 30.4355 17.4706 31.9279 14.6645 31.9279C12.1291 31.9279 10.6608 30.6158 9.91406 29.0354L12.4917 27.4749Z" fill="black"/>
</svg>
