<svg width="35" height="34" viewBox="0 0 35 34" fill="none" xmlns="http://www.w3.org/2000/svg">
<path d="M28.46 0H6.55594C3.29898 0 0.658691 2.64029 0.658691 5.89725V27.8013C0.658691 31.0583 3.29898 33.6986 6.55594 33.6986H28.46C31.717 33.6986 34.3573 31.0583 34.3573 27.8013V5.89725C34.3573 2.64029 31.717 0 28.46 0Z" fill="#001E36"/>
<path d="M8.24097 23.8911V9.63237C8.24097 9.53031 8.29207 9.47929 8.39429 9.47929C9.50404 9.45013 10.9131 9.43555 12.6216 9.43555C14.6366 9.43555 16.1114 9.88751 17.0459 10.7914C17.9951 11.6954 18.4696 12.8107 18.4696 14.1374C18.4696 15.7849 17.8856 17.0096 16.7174 17.8115C15.5492 18.6134 14.0817 19.0143 12.3149 19.0143H11.0226V23.8693C11.0226 23.9859 10.9642 24.0442 10.8474 24.0442H8.41619C8.29937 24.0442 8.24097 23.9932 8.24097 23.8911ZM11.0226 11.535V16.9148C11.2271 16.944 11.7016 16.9586 12.4463 16.9586C13.4247 16.9586 14.2132 16.7472 14.8118 16.3244C15.4251 15.887 15.7318 15.1799 15.7318 14.203C15.7318 13.3429 15.4616 12.6795 14.9214 12.2129C14.3957 11.7464 13.6291 11.5131 12.6216 11.5131C12.3733 11.5131 12.1251 11.5204 11.8769 11.535C11.6432 11.535 11.4461 11.535 11.2855 11.535C11.1395 11.535 11.0518 11.535 11.0226 11.535Z" fill="#31A8FE"/>
<path d="M26.1114 15.9089C25.2936 15.3986 24.4394 15.1434 23.5487 15.1434C23.0376 15.1434 22.658 15.2382 22.4098 15.4277C22.1761 15.6173 22.0593 15.8432 22.0593 16.1057C22.0593 16.3681 22.1615 16.6014 22.366 16.8055C22.5704 16.995 23.0011 17.221 23.6582 17.4834C24.8702 17.95 25.7171 18.4457 26.199 18.9705C26.6954 19.4808 26.9437 20.1442 26.9437 20.9607C26.9437 21.9521 26.564 22.7539 25.8047 23.3663C25.06 23.964 24.0452 24.2629 22.7602 24.2629C21.4752 24.2629 20.4239 24.0296 19.6062 23.5631C19.5186 23.5339 19.4748 23.461 19.4748 23.3444V21.3106C19.4748 21.2522 19.4894 21.2158 19.5186 21.2012C19.5624 21.1721 19.5989 21.1721 19.6281 21.2012C20.5772 21.901 21.5921 22.2509 22.6726 22.2509C23.1837 22.2509 23.5706 22.1635 23.8335 21.9885C24.1109 21.799 24.2496 21.5584 24.2496 21.2668C24.2496 20.9607 24.1401 20.7055 23.9211 20.5014C23.702 20.2827 23.2713 20.0494 22.6288 19.8016C21.4606 19.3496 20.6429 18.8685 20.1757 18.3582C19.723 17.8333 19.4967 17.1773 19.4967 16.39C19.4967 15.486 19.8398 14.7279 20.5261 14.1156C21.2124 13.5032 22.1907 13.1971 23.4611 13.1971C24.6439 13.1971 25.5565 13.3574 26.199 13.6782C26.272 13.7219 26.3085 13.8167 26.3085 13.9625V15.7776C26.3085 15.9526 26.2428 15.9963 26.1114 15.9089Z" fill="#31A8FE"/>
</svg>
