<svg width="1024" height="879" viewBox="0 0 1024 879" fill="none" xmlns="http://www.w3.org/2000/svg">
<mask id="mask0_92_56" style="mask-type:alpha" maskUnits="userSpaceOnUse" x="0" y="0" width="1024" height="879">
<rect y="0.922852" width="1024" height="877.096" fill="#D9D9D9"/>
</mask>
<g mask="url(#mask0_92_56)">
<g opacity="0.5">
<mask id="mask1_92_56" style="mask-type:alpha" maskUnits="userSpaceOnUse" x="803" y="573" width="235" height="236">
<rect x="920.433" y="573.928" width="4.02604" height="166.074" transform="rotate(45 920.433 573.928)" fill="#81A6C0"/>
<rect x="926.126" y="579.622" width="4.02604" height="166.074" transform="rotate(45 926.126 579.622)" fill="#81A6C0"/>
<rect x="931.82" y="585.316" width="4.02604" height="166.074" transform="rotate(45 931.82 585.316)" fill="#81A6C0"/>
<rect x="937.514" y="591.01" width="4.02604" height="166.074" transform="rotate(45 937.514 591.01)" fill="#81A6C0"/>
<rect x="943.207" y="596.704" width="4.02604" height="166.074" transform="rotate(45 943.207 596.704)" fill="#81A6C0"/>
<rect x="948.901" y="602.396" width="4.02604" height="166.074" transform="rotate(45 948.901 602.396)" fill="#81A6C0"/>
<rect x="954.595" y="608.091" width="4.02604" height="166.074" transform="rotate(45 954.595 608.091)" fill="#81A6C0"/>
<rect x="960.288" y="613.784" width="4.02604" height="166.074" transform="rotate(45 960.288 613.784)" fill="#81A6C0"/>
<rect x="965.982" y="619.478" width="4.02604" height="166.074" transform="rotate(45 965.982 619.478)" fill="#81A6C0"/>
<rect x="971.676" y="625.172" width="4.02604" height="166.074" transform="rotate(45 971.676 625.172)" fill="#81A6C0"/>
<rect x="977.37" y="630.866" width="4.02604" height="166.074" transform="rotate(45 977.37 630.866)" fill="#81A6C0"/>
<rect x="983.062" y="636.559" width="4.02604" height="166.074" transform="rotate(45 983.062 636.559)" fill="#81A6C0"/>
<rect x="988.756" y="642.253" width="4.02604" height="166.074" transform="rotate(45 988.756 642.253)" fill="#81A6C0"/>
<rect x="994.45" y="647.946" width="4.02604" height="166.074" transform="rotate(45 994.45 647.946)" fill="#81A6C0"/>
<rect x="1000.14" y="653.64" width="4.02604" height="166.074" transform="rotate(45 1000.14 653.64)" fill="#81A6C0"/>
<rect x="1005.84" y="659.334" width="4.02604" height="166.074" transform="rotate(45 1005.84 659.334)" fill="#81A6C0"/>
<rect x="1011.53" y="665.028" width="4.02604" height="166.074" transform="rotate(45 1011.53 665.028)" fill="#81A6C0"/>
<rect x="1017.23" y="670.721" width="4.02604" height="166.074" transform="rotate(45 1017.23 670.721)" fill="#81A6C0"/>
<rect x="1022.92" y="676.415" width="4.02604" height="166.074" transform="rotate(45 1022.92 676.415)" fill="#81A6C0"/>
<rect x="1028.61" y="682.108" width="4.02604" height="166.074" transform="rotate(45 1028.61 682.108)" fill="#81A6C0"/>
<rect x="1034.31" y="687.802" width="4.02604" height="166.074" transform="rotate(45 1034.31 687.802)" fill="#81A6C0"/>
</mask>
<g mask="url(#mask1_92_56)">
<circle cx="920.433" cy="684.481" r="78.1723" transform="rotate(45 920.433 684.481)" fill="#81A6C0"/>
</g>
</g>
<circle opacity="0.5" cx="966" cy="716.819" r="142.5" stroke="#81A6C0"/>
<g opacity="0.5">
<mask id="mask2_92_56" style="mask-type:alpha" maskUnits="userSpaceOnUse" x="3" y="43" width="217" height="218">
<rect x="3" y="122.71" width="3.84839" height="158.746" transform="rotate(-30 3 122.71)" fill="white"/>
<rect x="9.66553" y="118.862" width="3.84839" height="158.746" transform="rotate(-30 9.66553 118.862)" fill="white"/>
<rect x="16.3311" y="115.014" width="3.84839" height="158.746" transform="rotate(-30 16.3311 115.014)" fill="white"/>
<rect x="22.9971" y="111.165" width="3.84839" height="158.746" transform="rotate(-30 22.9971 111.165)" fill="white"/>
<rect x="29.6626" y="107.317" width="3.84839" height="158.746" transform="rotate(-30 29.6626 107.317)" fill="white"/>
<rect x="36.3281" y="103.469" width="3.84839" height="158.746" transform="rotate(-30 36.3281 103.469)" fill="white"/>
<rect x="42.9937" y="99.6201" width="3.84839" height="158.746" transform="rotate(-30 42.9937 99.6201)" fill="white"/>
<rect x="49.6592" y="95.7717" width="3.84839" height="158.746" transform="rotate(-30 49.6592 95.7717)" fill="white"/>
<rect x="56.3247" y="91.9233" width="3.84839" height="158.746" transform="rotate(-30 56.3247 91.9233)" fill="white"/>
<rect x="62.9902" y="88.075" width="3.84839" height="158.746" transform="rotate(-30 62.9902 88.075)" fill="white"/>
<rect x="69.6562" y="84.2266" width="3.84839" height="158.746" transform="rotate(-30 69.6562 84.2266)" fill="white"/>
<rect x="76.3218" y="80.3782" width="3.84839" height="158.746" transform="rotate(-30 76.3218 80.3782)" fill="white"/>
<rect x="82.9873" y="76.5298" width="3.84839" height="158.746" transform="rotate(-30 82.9873 76.5298)" fill="white"/>
<rect x="89.6528" y="72.6814" width="3.84839" height="158.746" transform="rotate(-30 89.6528 72.6814)" fill="white"/>
<rect x="96.3184" y="68.833" width="3.84839" height="158.746" transform="rotate(-30 96.3184 68.833)" fill="white"/>
<rect x="102.984" y="64.9846" width="3.84839" height="158.746" transform="rotate(-30 102.984 64.9846)" fill="white"/>
<rect x="109.649" y="61.1362" width="3.84839" height="158.746" transform="rotate(-30 109.649 61.1362)" fill="white"/>
<rect x="116.315" y="57.2878" width="3.84839" height="158.746" transform="rotate(-30 116.315 57.2878)" fill="white"/>
<rect x="122.981" y="53.4395" width="3.84839" height="158.746" transform="rotate(-30 122.981 53.4395)" fill="white"/>
<rect x="129.646" y="49.5911" width="3.84839" height="158.746" transform="rotate(-30 129.646 49.5911)" fill="white"/>
<rect x="136.312" y="45.7427" width="3.84839" height="158.746" transform="rotate(-30 136.312 45.7427)" fill="white"/>
</mask>
<g mask="url(#mask2_92_56)">
<circle cx="105.073" cy="150.061" r="74.7228" transform="rotate(-30 105.073 150.061)" fill="white"/>
</g>
</g>
<circle opacity="0.5" cx="68" cy="180.819" r="89.5" stroke="#F2AF5E"/>
<rect opacity="0.5" x="236.73" y="571.3" width="49.9496" height="49.9496" transform="rotate(21.4293 236.73 571.3)" stroke="#F2AF5E" stroke-width="10"/>
<rect x="60.0635" y="524.754" width="2.39785" height="19.888" transform="rotate(-20.4114 60.0635 524.754)" fill="white"/>
<rect x="73.7383" y="529.147" width="2.39785" height="19.888" transform="rotate(69.5886 73.7383 529.147)" fill="white"/>
<path opacity="0.5" d="M880 280.793L925.442 273.758L915.585 247.105L880 280.793Z" fill="#F2AF5E"/>
<rect x="907.296" y="118.384" width="4.05206" height="33.6083" transform="rotate(22.5047 907.296 118.384)" fill="white"/>
<rect x="919.165" y="139.555" width="4.05206" height="33.6083" transform="rotate(112.505 919.165 139.555)" fill="white"/>
</g>
</svg>
