<svg width="1919" height="996" viewBox="0 0 1919 996" fill="none" xmlns="http://www.w3.org/2000/svg">
<mask id="mask0_81_51" style="mask-type:alpha" maskUnits="userSpaceOnUse" x="0" y="0" width="1919" height="996">
<rect y="0.75" width="1919" height="995.249" fill="#D9D9D9"/>
</mask>
<g mask="url(#mask0_81_51)">
<g opacity="0.5">
<mask id="mask1_81_51" style="mask-type:alpha" maskUnits="userSpaceOnUse" x="273" y="-33" width="217" height="217">
<rect x="273" y="45.8918" width="3.84839" height="158.746" transform="rotate(-30 273 45.8918)" fill="white"/>
<rect x="279.666" y="42.0435" width="3.84839" height="158.746" transform="rotate(-30 279.666 42.0435)" fill="white"/>
<rect x="286.331" y="38.1951" width="3.84839" height="158.746" transform="rotate(-30 286.331 38.1951)" fill="white"/>
<rect x="292.997" y="34.3467" width="3.84839" height="158.746" transform="rotate(-30 292.997 34.3467)" fill="white"/>
<rect x="299.663" y="30.4983" width="3.84839" height="158.746" transform="rotate(-30 299.663 30.4983)" fill="white"/>
<rect x="306.328" y="26.6499" width="3.84839" height="158.746" transform="rotate(-30 306.328 26.6499)" fill="white"/>
<rect x="312.994" y="22.8015" width="3.84839" height="158.746" transform="rotate(-30 312.994 22.8015)" fill="white"/>
<rect x="319.659" y="18.9531" width="3.84839" height="158.746" transform="rotate(-30 319.659 18.9531)" fill="white"/>
<rect x="326.325" y="15.1047" width="3.84839" height="158.746" transform="rotate(-30 326.325 15.1047)" fill="white"/>
<rect x="332.99" y="11.2563" width="3.84839" height="158.746" transform="rotate(-30 332.99 11.2563)" fill="white"/>
<rect x="339.656" y="7.40796" width="3.84839" height="158.746" transform="rotate(-30 339.656 7.40796)" fill="white"/>
<rect x="346.322" y="3.55957" width="3.84839" height="158.746" transform="rotate(-30 346.322 3.55957)" fill="white"/>
<rect x="352.987" y="-0.288818" width="3.84839" height="158.746" transform="rotate(-30 352.987 -0.288818)" fill="white"/>
<rect x="359.653" y="-4.13721" width="3.84839" height="158.746" transform="rotate(-30 359.653 -4.13721)" fill="white"/>
<rect x="366.318" y="-7.9856" width="3.84839" height="158.746" transform="rotate(-30 366.318 -7.9856)" fill="white"/>
<rect x="372.984" y="-11.834" width="3.84839" height="158.746" transform="rotate(-30 372.984 -11.834)" fill="white"/>
<rect x="379.65" y="-15.6824" width="3.84839" height="158.746" transform="rotate(-30 379.65 -15.6824)" fill="white"/>
<rect x="386.315" y="-19.5308" width="3.84839" height="158.746" transform="rotate(-30 386.315 -19.5308)" fill="white"/>
<rect x="392.981" y="-23.3792" width="3.84839" height="158.746" transform="rotate(-30 392.981 -23.3792)" fill="white"/>
<rect x="399.646" y="-27.2275" width="3.84839" height="158.746" transform="rotate(-30 399.646 -27.2275)" fill="white"/>
<rect x="406.312" y="-31.0759" width="3.84839" height="158.746" transform="rotate(-30 406.312 -31.0759)" fill="white"/>
</mask>
<g mask="url(#mask1_81_51)">
<circle cx="375.073" cy="73.2423" r="74.7228" transform="rotate(-30 375.073 73.2423)" fill="white"/>
</g>
</g>
<g opacity="0.5">
<mask id="mask2_81_51" style="mask-type:alpha" maskUnits="userSpaceOnUse" x="1509" y="552" width="348" height="348">
<rect x="1683.23" y="552" width="5.97328" height="246.398" transform="rotate(45 1683.23 552)" fill="#81A6C0"/>
<rect x="1691.68" y="560.448" width="5.97328" height="246.398" transform="rotate(45 1691.68 560.448)" fill="#81A6C0"/>
<rect x="1700.12" y="568.895" width="5.97328" height="246.398" transform="rotate(45 1700.12 568.895)" fill="#81A6C0"/>
<rect x="1708.57" y="577.342" width="5.97328" height="246.398" transform="rotate(45 1708.57 577.342)" fill="#81A6C0"/>
<rect x="1717.02" y="585.791" width="5.97328" height="246.398" transform="rotate(45 1717.02 585.791)" fill="#81A6C0"/>
<rect x="1725.47" y="594.237" width="5.97328" height="246.398" transform="rotate(45 1725.47 594.237)" fill="#81A6C0"/>
<rect x="1733.92" y="602.686" width="5.97328" height="246.398" transform="rotate(45 1733.92 602.686)" fill="#81A6C0"/>
<rect x="1742.36" y="611.132" width="5.97328" height="246.398" transform="rotate(45 1742.36 611.132)" fill="#81A6C0"/>
<rect x="1750.81" y="619.58" width="5.97328" height="246.398" transform="rotate(45 1750.81 619.58)" fill="#81A6C0"/>
<rect x="1759.26" y="628.028" width="5.97328" height="246.398" transform="rotate(45 1759.26 628.028)" fill="#81A6C0"/>
<rect x="1767.71" y="636.475" width="5.97328" height="246.398" transform="rotate(45 1767.71 636.475)" fill="#81A6C0"/>
<rect x="1776.15" y="644.922" width="5.97328" height="246.398" transform="rotate(45 1776.15 644.922)" fill="#81A6C0"/>
<rect x="1784.6" y="653.371" width="5.97328" height="246.398" transform="rotate(45 1784.6 653.371)" fill="#81A6C0"/>
<rect x="1793.05" y="661.817" width="5.97328" height="246.398" transform="rotate(45 1793.05 661.817)" fill="#81A6C0"/>
<rect x="1801.5" y="670.265" width="5.97328" height="246.398" transform="rotate(45 1801.5 670.265)" fill="#81A6C0"/>
<rect x="1809.94" y="678.713" width="5.97328" height="246.398" transform="rotate(45 1809.94 678.713)" fill="#81A6C0"/>
<rect x="1818.39" y="687.161" width="5.97328" height="246.398" transform="rotate(45 1818.39 687.161)" fill="#81A6C0"/>
<rect x="1826.84" y="695.607" width="5.97328" height="246.398" transform="rotate(45 1826.84 695.607)" fill="#81A6C0"/>
<rect x="1835.29" y="704.055" width="5.97328" height="246.398" transform="rotate(45 1835.29 704.055)" fill="#81A6C0"/>
<rect x="1843.73" y="712.502" width="5.97328" height="246.398" transform="rotate(45 1843.73 712.502)" fill="#81A6C0"/>
<rect x="1852.18" y="720.95" width="5.97328" height="246.398" transform="rotate(45 1852.18 720.95)" fill="#81A6C0"/>
</mask>
<g mask="url(#mask2_81_51)">
<circle cx="1683.23" cy="716.022" r="115.981" transform="rotate(45 1683.23 716.022)" fill="#81A6C0"/>
</g>
</g>
<rect opacity="0.5" x="437.73" y="603.481" width="49.9496" height="49.9496" transform="rotate(21.4293 437.73 603.481)" stroke="#F2AF5E" stroke-width="10"/>
<path opacity="0.5" d="M404.528 285.169L376.083 249.039L357.706 270.714L404.528 285.169Z" fill="#81A6C0"/>
<path opacity="0.5" d="M1426 345.975L1471.44 338.939L1461.58 312.286L1426 345.975Z" fill="#F2AF5E"/>
<rect x="1565.3" y="135.565" width="4.05206" height="33.6083" transform="rotate(22.5047 1565.3 135.565)" fill="white"/>
<rect x="1577.17" y="156.737" width="4.05206" height="33.6083" transform="rotate(112.505 1577.17 156.737)" fill="white"/>
<rect x="146.064" y="480.936" width="2.39785" height="19.888" transform="rotate(-20.4114 146.064 480.936)" fill="white"/>
<rect x="159.739" y="485.328" width="2.39785" height="19.888" transform="rotate(69.5886 159.739 485.328)" fill="white"/>
<circle opacity="0.5" cx="338" cy="104" r="89.5" stroke="#F2AF5E"/>
<circle opacity="0.5" cx="1751" cy="764" r="211.5" stroke="#81A6C0"/>
</g>
</svg>
