<svg width="119" height="167" viewBox="0 0 119 167" fill="none" xmlns="http://www.w3.org/2000/svg">
<rect x="10.032" y="4" width="107" height="163" fill="#C0721E"/>
<rect x="9.03198" y="4" width="107" height="163" fill="#D9D9D9"/>
<rect x="0.0319824" width="111" height="167" fill="#FFA13B"/>
<path d="M36.5988 41.904C36.5668 41.904 36.5268 41.896 36.4788 41.88C36.4308 41.864 36.4068 41.816 36.4068 41.736C36.4068 41.72 36.4068 41.68 36.4068 41.616C36.4068 41.504 36.4068 41.296 36.4068 40.992C36.4228 40.688 36.4308 40.224 36.4308 39.6C36.4308 38.96 36.4228 38.12 36.4068 37.08C36.4068 36.04 36.3988 34.728 36.3828 33.144C36.3828 32.712 36.3508 32.28 36.2868 31.848C36.2228 31.4 36.1668 31.096 36.1188 30.936C36.0708 30.792 36.1268 30.72 36.2868 30.72C36.3668 30.72 36.5108 30.728 36.7188 30.744C36.9428 30.744 37.1588 30.752 37.3668 30.768C37.5748 30.768 37.6948 30.768 37.7268 30.768C37.8068 30.8 37.8468 30.872 37.8468 30.984C37.8308 31.4 37.8148 31.824 37.7988 32.256C37.7988 32.672 37.7988 33.088 37.7988 33.504V34.728C38.1828 34.728 38.6948 34.728 39.3348 34.728C39.9908 34.712 40.6628 34.696 41.3508 34.68C42.0388 34.648 42.6308 34.616 43.1268 34.584V32.784C43.1268 31.616 43.0388 30.872 42.8628 30.552C42.8308 30.472 42.8308 30.416 42.8628 30.384C42.9108 30.336 42.9668 30.312 43.0308 30.312L44.4708 30.336C44.5508 30.368 44.5908 30.448 44.5908 30.576C44.5908 30.992 44.5828 31.336 44.5668 31.608C44.5668 31.864 44.5588 32.112 44.5428 32.352C44.5428 32.592 44.5428 32.904 44.5428 33.288V41.352C44.5428 41.464 44.4948 41.544 44.3988 41.592C44.3188 41.64 44.2388 41.664 44.1588 41.664C43.5508 41.664 42.8628 41.672 42.0948 41.688C41.3428 41.688 40.5988 41.696 39.8628 41.712C39.1268 41.728 38.4788 41.752 37.9188 41.784C37.8228 41.784 37.6708 41.792 37.4628 41.808C37.2708 41.824 37.0868 41.848 36.9108 41.88C36.7348 41.896 36.6308 41.904 36.5988 41.904ZM51.4788 48.24C51.4148 48.24 51.3828 48.2 51.3828 48.12V37.584C50.8868 37.584 50.3748 37.592 49.8468 37.608C49.3188 37.608 48.8628 37.624 48.4788 37.656V47.016C48.4788 47.24 48.4628 47.384 48.4308 47.448C48.4148 47.496 48.3668 47.528 48.2868 47.544C48.1908 47.56 47.9908 47.576 47.6868 47.592C47.3988 47.608 47.2148 47.616 47.1348 47.616C47.0708 47.616 47.0388 47.576 47.0388 47.496V31.392C47.0388 30.784 47.0228 30.224 46.9908 29.712C46.9588 29.2 46.9028 28.864 46.8228 28.704C46.7908 28.624 46.7908 28.568 46.8228 28.536C46.8708 28.488 46.9268 28.464 46.9908 28.464L48.4068 28.488C48.4868 28.52 48.5268 28.584 48.5268 28.68C48.4948 29.144 48.4788 29.56 48.4788 29.928C48.4788 30.296 48.4788 30.68 48.4788 31.08C48.4788 31.176 48.4788 31.28 48.4788 31.392C48.4788 31.504 48.4788 31.624 48.4788 31.752V36.288C48.5588 36.288 48.6388 36.288 48.7188 36.288C48.7988 36.288 48.8788 36.288 48.9588 36.288C49.3268 36.288 49.7188 36.288 50.1348 36.288C50.5668 36.288 50.9828 36.272 51.3828 36.24V30.768C51.3828 30.16 51.3668 29.6 51.3348 29.088C51.3188 28.576 51.2708 28.24 51.1908 28.08C51.1588 28 51.1588 27.944 51.1908 27.912C51.2388 27.864 51.2948 27.84 51.3588 27.84L52.7748 27.864C52.8548 27.896 52.8948 27.96 52.8948 28.056C52.8628 28.536 52.8388 28.968 52.8228 29.352C52.8228 29.736 52.8228 30.136 52.8228 30.552C52.8228 30.648 52.8228 30.744 52.8228 30.84C52.8228 30.936 52.8228 31.032 52.8228 31.128V47.64C52.8228 47.88 52.8068 48.024 52.7748 48.072C52.7588 48.12 52.7108 48.152 52.6308 48.168C52.5828 48.168 52.4708 48.168 52.2948 48.168C52.1348 48.184 51.9748 48.2 51.8148 48.216C51.6548 48.232 51.5428 48.24 51.4788 48.24ZM37.8228 40.44C38.0788 40.456 38.8628 40.456 40.1748 40.44C41.5028 40.408 42.4868 40.36 43.1268 40.296V35.952C42.8388 35.952 42.4468 35.952 41.9508 35.952C41.4708 35.952 40.9588 35.96 40.4148 35.976C39.8708 35.976 39.3668 35.984 38.9028 36C38.4388 36.016 38.0708 36.032 37.7988 36.048L37.8228 40.44ZM72.2544 48.24C72.1904 48.24 72.1584 48.2 72.1584 48.12V35.304L69.2784 35.4C68.8944 35.432 68.4544 35.472 67.9584 35.52C67.4784 35.552 67.0464 35.592 66.6624 35.64C66.4864 35.672 66.3664 35.664 66.3024 35.616C66.2384 35.568 66.1904 35.496 66.1584 35.4C66.0944 35.192 66.0464 34.992 66.0144 34.8C65.9824 34.592 65.9504 34.416 65.9184 34.272C65.8864 34.144 65.9504 34.096 66.1104 34.128C66.3184 34.16 66.6624 34.184 67.1424 34.2C67.6384 34.2 68.1904 34.2 68.7984 34.2C69.4224 34.184 70.0304 34.168 70.6224 34.152C71.2144 34.12 71.7264 34.088 72.1584 34.056V30.792C72.1584 30.184 72.1344 29.624 72.0864 29.112C72.0544 28.584 71.9984 28.24 71.9184 28.08C71.8864 28 71.8864 27.944 71.9184 27.912C71.9664 27.864 72.0224 27.84 72.0864 27.84C72.1824 27.84 72.3424 27.848 72.5664 27.864C72.8064 27.864 73.0384 27.872 73.2624 27.888C73.4864 27.888 73.6144 27.888 73.6464 27.888C73.7264 27.888 73.7664 27.952 73.7664 28.08C73.7184 28.672 73.6864 29.192 73.6704 29.64C73.6704 30.072 73.6704 30.576 73.6704 31.152V47.64C73.6704 47.88 73.6544 48.024 73.6224 48.072C73.6064 48.12 73.5584 48.152 73.4784 48.168L72.2544 48.24ZM59.8224 42.744C59.3744 42.744 59.0704 42.528 58.9104 42.096C58.7504 41.664 58.6704 41.2 58.6704 40.704V32.64C58.6704 32.208 58.6384 31.776 58.5744 31.344C58.5264 30.912 58.4784 30.616 58.4304 30.456C58.3824 30.296 58.4384 30.216 58.5984 30.216C58.6784 30.216 58.8384 30.232 59.0784 30.264C59.3184 30.28 59.5504 30.304 59.7744 30.336C60.0144 30.352 60.1504 30.36 60.1824 30.36C60.2464 30.376 60.2704 30.432 60.2544 30.528C60.2544 30.56 60.2544 30.584 60.2544 30.6C60.2224 31.016 60.1984 31.424 60.1824 31.824C60.1824 32.224 60.1824 32.656 60.1824 33.12L60.1584 39.936C60.1584 39.984 60.1584 40.056 60.1584 40.152C60.1584 40.424 60.1744 40.672 60.2064 40.896C60.2544 41.12 60.4224 41.232 60.7104 41.232C61.4624 41.232 62.3344 41.192 63.3264 41.112C64.3184 41.016 65.3344 40.872 66.3744 40.68C67.4304 40.472 68.4064 40.208 69.3024 39.888C69.4304 39.84 69.5104 39.88 69.5424 40.008L69.6624 40.848C69.6944 41.056 69.6144 41.192 69.4224 41.256C68.5744 41.512 67.6064 41.752 66.5184 41.976C65.4304 42.2 64.3104 42.384 63.1584 42.528C62.0064 42.672 60.8944 42.744 59.8224 42.744Z" fill="white"/>
<path d="M119 5L114 1V5H119Z" fill="#D9D9D9"/>
<path d="M35.5133 142.402C35.4933 142.352 35.5033 142.312 35.5433 142.282C35.9633 142.022 36.4083 141.827 36.8783 141.697C37.3483 141.557 37.8033 141.487 38.2433 141.487C39.8933 141.487 40.7183 142.312 40.7183 143.962V147.502C40.7183 147.672 40.7633 147.792 40.8533 147.862C40.9433 147.922 41.0533 147.952 41.1833 147.952C41.2233 147.952 41.2433 147.982 41.2433 148.042L41.1683 148.702C41.1683 148.742 41.1433 148.762 41.0933 148.762C40.8133 148.762 40.5533 148.687 40.3133 148.537C40.0733 148.387 39.9133 148.157 39.8333 147.847C39.5533 148.177 39.1983 148.427 38.7683 148.597C38.3483 148.757 37.9183 148.837 37.4783 148.837C37.1083 148.837 36.7483 148.767 36.3983 148.627C36.0583 148.487 35.7783 148.257 35.5583 147.937C35.3483 147.617 35.2433 147.187 35.2433 146.647C35.2433 146.017 35.4433 145.527 35.8433 145.177C36.2433 144.827 36.7883 144.587 37.4783 144.457C38.1683 144.317 38.9383 144.247 39.7883 144.247V143.992C39.7883 143.382 39.6433 142.952 39.3533 142.702C39.0733 142.442 38.6683 142.312 38.1383 142.312C37.7983 142.312 37.4333 142.372 37.0433 142.492C36.6633 142.612 36.3133 142.787 35.9933 143.017C35.9433 143.067 35.9033 143.062 35.8733 143.002L35.5133 142.402ZM39.7883 146.512V145.072C39.7383 145.062 39.6833 145.057 39.6233 145.057C39.5733 145.057 39.5183 145.057 39.4583 145.057C38.8483 145.057 38.2933 145.107 37.7933 145.207C37.3033 145.297 36.9133 145.462 36.6233 145.702C36.3333 145.932 36.1883 146.257 36.1883 146.677C36.1883 147.157 36.3333 147.497 36.6233 147.697C36.9233 147.897 37.2583 147.997 37.6283 147.997C38.0583 147.997 38.4783 147.877 38.8883 147.637C39.3083 147.397 39.6083 147.022 39.7883 146.512ZM44.0403 148.537C44.0403 148.587 44.0153 148.612 43.9653 148.612H43.1853C43.1353 148.612 43.1103 148.587 43.1103 148.537V141.787C43.1103 141.737 43.1353 141.712 43.1853 141.712H43.9653C44.0153 141.712 44.0403 141.737 44.0403 141.787V148.537ZM43.5903 139.987C43.3503 139.987 43.1503 139.912 42.9903 139.762C42.8303 139.612 42.7503 139.432 42.7503 139.222C42.7503 138.992 42.8303 138.802 42.9903 138.652C43.1503 138.492 43.3503 138.412 43.5903 138.412C43.8203 138.412 44.0103 138.492 44.1603 138.652C44.3203 138.802 44.4003 138.992 44.4003 139.222C44.4003 139.432 44.3203 139.612 44.1603 139.762C44.0103 139.912 43.8203 139.987 43.5903 139.987ZM56.5509 137.362L51.6309 150.112H50.8509L55.7559 137.362H56.5509ZM64.0745 141.787L64.1795 142.342C64.4395 142.142 64.7495 141.952 65.1095 141.772C65.4795 141.582 65.8845 141.487 66.3245 141.487C67.2445 141.487 67.9795 141.797 68.5295 142.417C69.0795 143.037 69.3595 143.917 69.3695 145.057C69.3795 146.207 69.1195 147.127 68.5895 147.817C68.0595 148.497 67.3345 148.837 66.4145 148.837C65.9445 148.837 65.5295 148.752 65.1695 148.582C64.8195 148.402 64.5295 148.197 64.2995 147.967V151.462C64.2995 151.512 64.2745 151.537 64.2245 151.537H63.4445C63.3945 151.537 63.3695 151.512 63.3695 151.462V141.787C63.3695 141.737 63.3945 141.712 63.4445 141.712H63.9995C64.0295 141.712 64.0545 141.737 64.0745 141.787ZM64.2995 146.542C64.4195 146.912 64.6495 147.242 64.9895 147.532C65.3295 147.822 65.7595 147.967 66.2795 147.967C66.9195 147.967 67.4345 147.722 67.8245 147.232C68.2245 146.732 68.4245 146.027 68.4245 145.117C68.4245 144.237 68.2445 143.557 67.8845 143.077C67.5245 142.597 66.9795 142.357 66.2495 142.357C65.8695 142.357 65.5145 142.447 65.1845 142.627C64.8545 142.797 64.5595 143.012 64.2995 143.272V146.542ZM75.1653 143.077C75.1153 143.107 75.0753 143.107 75.0453 143.077C74.9153 142.877 74.6953 142.702 74.3853 142.552C74.0853 142.392 73.7303 142.312 73.3203 142.312C73.0503 142.312 72.7903 142.347 72.5403 142.417C72.2903 142.487 72.0853 142.602 71.9253 142.762C71.7653 142.922 71.6853 143.132 71.6853 143.392C71.6853 143.702 71.8253 143.947 72.1053 144.127C72.3853 144.307 72.8753 144.472 73.5753 144.622C74.2353 144.762 74.7753 144.997 75.1953 145.327C75.6153 145.657 75.8253 146.112 75.8253 146.692C75.8253 147.182 75.6953 147.587 75.4353 147.907C75.1853 148.217 74.8553 148.452 74.4453 148.612C74.0453 148.762 73.6253 148.837 73.1853 148.837C72.5653 148.837 72.0003 148.712 71.4903 148.462C70.9803 148.212 70.6253 147.837 70.4253 147.337C70.4053 147.287 70.4203 147.247 70.4703 147.217L71.0853 146.887C71.1053 146.877 71.1303 146.872 71.1603 146.872C71.1903 146.872 71.2103 146.892 71.2203 146.932C71.3803 147.282 71.6403 147.552 72.0003 147.742C72.3703 147.922 72.7603 148.012 73.1703 148.012C73.6403 148.012 74.0403 147.917 74.3703 147.727C74.7103 147.527 74.8803 147.212 74.8803 146.782C74.8803 146.312 74.7103 145.987 74.3703 145.807C74.0303 145.617 73.5903 145.472 73.0503 145.372C72.3603 145.242 71.8003 145.022 71.3703 144.712C70.9503 144.402 70.7403 143.962 70.7403 143.392C70.7403 142.942 70.8653 142.577 71.1153 142.297C71.3653 142.017 71.6853 141.812 72.0753 141.682C72.4753 141.552 72.8853 141.487 73.3053 141.487C73.8553 141.487 74.3253 141.577 74.7153 141.757C75.1153 141.937 75.4353 142.177 75.6753 142.477C75.7053 142.517 75.7003 142.562 75.6603 142.612L75.1653 143.077Z" fill="#B77126"/>
</svg>
