<svg width="118" height="168" viewBox="0 0 118 168" fill="none" xmlns="http://www.w3.org/2000/svg">
<rect x="11" y="4.9248" width="107" height="163" fill="#417497"/>
<rect x="10" y="4.9248" width="107" height="163" fill="#D9D9D9"/>
<rect x="1" y="0.924805" width="111" height="167" fill="#81A6C0"/>
<path d="M46.3963 57.5332C45.3883 57.5332 44.4923 57.3492 43.7083 56.9812C42.9403 56.6292 42.3323 56.1412 41.8843 55.5172C41.4523 54.8932 41.2363 54.1732 41.2363 53.3572C41.2363 52.5732 41.4763 51.8612 41.9563 51.2212C42.4363 50.5812 43.0763 50.0772 43.8763 49.7092C44.6763 49.3252 45.5483 49.1332 46.4922 49.1332C47.4523 49.1332 48.3243 49.2932 49.1083 49.6132C49.9083 49.9172 50.5403 50.3812 51.0043 51.0052C51.4843 51.6132 51.7083 52.3652 51.6763 53.2612C51.6603 54.0932 51.4123 54.8292 50.9323 55.4692C50.4683 56.1092 49.8363 56.6132 49.0363 56.9812C48.2523 57.3492 47.3723 57.5332 46.3963 57.5332ZM46.4443 56.2852C47.4523 56.2532 48.3003 55.9812 48.9883 55.4692C49.6923 54.9572 50.0603 54.2132 50.0923 53.2372C50.1243 52.5972 49.9723 52.0612 49.6363 51.6292C49.3163 51.1972 48.8763 50.8692 48.3163 50.6452C47.7723 50.4052 47.1563 50.2852 46.4683 50.2852C45.7963 50.3012 45.1803 50.4452 44.6203 50.7172C44.0603 50.9732 43.6123 51.3252 43.2763 51.7732C42.9403 52.2212 42.7723 52.7412 42.7723 53.3332C42.7723 53.9412 42.9323 54.4692 43.2523 54.9172C43.5883 55.3492 44.0363 55.6852 44.5963 55.9252C45.1563 56.1652 45.7723 56.2852 46.4443 56.2852ZM35.5243 47.7892L34.9243 47.2612C34.8603 47.1972 34.8843 47.1252 34.9963 47.0452C35.0123 47.0292 35.0203 47.0212 35.0203 47.0212C35.9163 46.4292 36.7643 45.7092 37.5643 44.8612C38.3803 43.9972 39.1003 43.0932 39.7243 42.1492C40.3483 41.1892 40.8123 40.2692 41.1163 39.3892C41.2443 39.1172 41.3563 38.8052 41.4523 38.4532C41.5483 38.0852 41.6203 37.7332 41.6683 37.3972C41.7163 37.0612 41.7403 36.7892 41.7403 36.5812C41.7403 36.4372 41.8203 36.3732 41.9803 36.3892C42.1563 36.4212 42.4043 36.4852 42.7243 36.5812C43.0443 36.6772 43.3243 36.7652 43.5643 36.8452C43.6603 36.8932 43.6843 36.9812 43.6363 37.1092C43.5243 37.4292 43.3723 37.8452 43.1803 38.3572C43.0043 38.8692 42.8363 39.3172 42.6763 39.7012C42.5963 39.8932 42.5003 40.1012 42.3883 40.3252C42.2923 40.5332 42.1803 40.7492 42.0523 40.9732C42.5323 41.3252 43.0363 41.7092 43.5643 42.1252C44.1083 42.5252 44.6283 42.9252 45.1243 43.3252C45.6363 43.7092 46.0843 44.0612 46.4683 44.3812C46.8523 44.7012 47.1323 44.9492 47.3083 45.1252C47.3723 45.1732 47.4203 45.2532 47.4523 45.3652C47.5003 45.4612 47.4843 45.5652 47.4043 45.6772C47.3403 45.7732 47.1883 45.9252 46.9483 46.1332C46.7243 46.3412 46.5643 46.4932 46.4683 46.5892C46.3403 46.6692 46.2443 46.6532 46.1803 46.5412C45.9083 46.1252 45.5003 45.6372 44.9563 45.0772C44.4283 44.5172 43.8523 43.9572 43.2283 43.3972C42.6203 42.8212 42.0523 42.3332 41.5243 41.9332C40.9803 42.8292 40.2843 43.7812 39.4363 44.7892C38.5883 45.7972 37.5323 46.7812 36.2683 47.7412C36.1883 47.8052 36.0843 47.8612 35.9563 47.9092C35.8283 47.9572 35.6843 47.9172 35.5243 47.7892ZM50.0443 48.7972C49.9803 48.7972 49.9483 48.7572 49.9483 48.6772V38.2612C49.9483 37.6532 49.9243 37.0932 49.8763 36.5812C49.8443 36.0692 49.7883 35.7332 49.7083 35.5732C49.6763 35.4932 49.6763 35.4372 49.7083 35.4052C49.7563 35.3572 49.8123 35.3332 49.8763 35.3332C50.0523 35.3332 50.2923 35.3332 50.5963 35.3332C50.9003 35.3332 51.1803 35.3412 51.4363 35.3572C51.5163 35.3572 51.5563 35.4212 51.5563 35.5492C51.5083 36.1412 51.4763 36.6612 51.4603 37.1092C51.4603 37.5412 51.4603 38.0452 51.4603 38.6212V41.7652C51.8923 41.7652 52.3643 41.7492 52.8763 41.7172C53.3883 41.6852 53.8603 41.6452 54.2923 41.5972C54.7403 41.5492 55.0763 41.4932 55.3003 41.4292C55.4443 41.4132 55.5243 41.4612 55.5403 41.5732C55.5723 41.7812 55.5883 41.9892 55.5883 42.1972C55.6043 42.4052 55.6203 42.6132 55.6363 42.8212C55.6363 42.9972 55.5643 43.0852 55.4203 43.0852C55.1963 43.0532 54.8523 43.0372 54.3883 43.0372C53.9243 43.0212 53.4283 43.0132 52.9003 43.0132C52.3883 43.0132 51.9083 43.0292 51.4603 43.0612V48.1972C51.4603 48.4372 51.4443 48.5812 51.4123 48.6292C51.3963 48.6772 51.3483 48.7092 51.2683 48.7252L50.0443 48.7972ZM69.6744 55.1092C69.6104 55.1092 69.5784 55.0692 69.5784 54.9892V43.3012L68.8584 43.3252C68.4744 43.3412 68.0184 43.3732 67.4904 43.4212C66.9624 43.4532 66.5064 43.4852 66.1224 43.5172C65.9464 43.5332 65.8344 43.5252 65.7864 43.4932C65.7544 43.4612 65.7304 43.4052 65.7144 43.3252C65.6984 43.3092 65.6904 43.2932 65.6904 43.2772L65.4984 42.2692C65.4984 42.2372 65.5064 42.1972 65.5224 42.1492C65.5384 42.1012 65.5864 42.0852 65.6664 42.1012C65.9064 42.1332 66.2424 42.1572 66.6744 42.1732C67.1064 42.1892 67.5784 42.1892 68.0904 42.1732C68.6184 42.1572 69.1144 42.1412 69.5784 42.1252V38.8852C69.5784 38.2772 69.5624 37.7172 69.5304 37.2052C69.4984 36.6932 69.4424 36.3572 69.3624 36.1972C69.3304 36.1172 69.3304 36.0612 69.3624 36.0292C69.4104 35.9812 69.4664 35.9572 69.5304 35.9572L70.9464 35.9812C71.0264 36.0132 71.0664 36.0772 71.0664 36.1732C71.0344 36.6372 71.0184 37.0532 71.0184 37.4212C71.0184 37.7892 71.0184 38.1732 71.0184 38.5732C71.0184 38.6692 71.0184 38.7732 71.0184 38.8852C71.0184 38.9972 71.0184 39.1172 71.0184 39.2452V54.5092C71.0184 54.7492 71.0024 54.8932 70.9704 54.9412C70.9544 54.9892 70.9064 55.0212 70.8264 55.0372C70.7784 55.0372 70.6664 55.0452 70.4904 55.0612C70.3304 55.0612 70.1704 55.0692 70.0104 55.0852C69.8504 55.1012 69.7384 55.1092 69.6744 55.1092ZM57.1944 49.5892L56.6424 49.0852C56.5784 49.0212 56.6024 48.9492 56.7144 48.8692C56.7304 48.8532 56.7384 48.8452 56.7384 48.8452C57.3784 48.3812 58.0024 47.8132 58.6104 47.1412C59.2344 46.4532 59.8104 45.7172 60.3384 44.9332C60.8664 44.1492 61.3224 43.3572 61.7064 42.5572C62.0904 41.7572 62.3704 41.0052 62.5464 40.3012C62.6744 39.8212 62.7784 39.3252 62.8584 38.8132C62.9384 38.2852 62.9784 37.8612 62.9784 37.5412C62.9784 37.3652 63.0504 37.2932 63.1944 37.3252L64.7544 37.7092C64.8504 37.7252 64.8904 37.8132 64.8744 37.9732L64.1064 40.5412C64.0104 40.8772 63.8664 41.2852 63.6744 41.7652C63.4824 42.2452 63.2344 42.7812 62.9304 43.3732C63.5384 43.9012 64.1704 44.4692 64.8264 45.0772C65.4824 45.6852 66.0744 46.2452 66.6024 46.7572C67.1304 47.2692 67.4984 47.6532 67.7064 47.9092C67.7544 47.9572 67.7944 48.0372 67.8264 48.1492C67.8744 48.2612 67.8424 48.3652 67.7304 48.4612C67.5864 48.6212 67.4344 48.7732 67.2744 48.9172C67.1144 49.0612 66.9464 49.1892 66.7704 49.3012C66.6904 49.3812 66.6104 49.3652 66.5304 49.2532C66.3064 48.8212 65.9544 48.3092 65.4744 47.7172C65.0104 47.1252 64.4984 46.5252 63.9384 45.9172C63.3944 45.3092 62.8744 44.7812 62.3784 44.3332C61.8984 45.1492 61.2984 46.0052 60.5784 46.9012C59.8584 47.7972 58.9784 48.6852 57.9384 49.5652C57.8584 49.6452 57.7544 49.7012 57.6264 49.7332C57.4984 49.7652 57.3544 49.7172 57.1944 49.5892ZM73.5384 55.7332C73.4744 55.7332 73.4424 55.6932 73.4424 55.6132V38.2612C73.4424 37.6532 73.4264 37.0932 73.3944 36.5812C73.3784 36.0692 73.3304 35.7332 73.2504 35.5732C73.2184 35.4932 73.2184 35.4372 73.2504 35.4052C73.2984 35.3572 73.3544 35.3332 73.4184 35.3332L74.8344 35.3572C74.9144 35.3892 74.9544 35.4532 74.9544 35.5492C74.9224 36.0292 74.8984 36.4612 74.8824 36.8452C74.8824 37.2292 74.8824 37.6292 74.8824 38.0452C74.8824 38.1412 74.8824 38.2372 74.8824 38.3332C74.8824 38.4292 74.8824 38.5252 74.8824 38.6212V55.1332C74.8824 55.3732 74.8664 55.5172 74.8344 55.5652C74.8184 55.6132 74.7704 55.6452 74.6904 55.6612C74.6424 55.6612 74.5304 55.6612 74.3544 55.6612C74.1944 55.6772 74.0344 55.6932 73.8744 55.7092C73.7144 55.7252 73.6024 55.7332 73.5384 55.7332ZM26.1817 84.6852C26.0057 84.6852 25.8937 84.6772 25.8457 84.6612C25.7977 84.6292 25.7497 84.5492 25.7017 84.4212C25.6377 84.2452 25.5817 84.0852 25.5337 83.9412C25.5017 83.7812 25.4537 83.5652 25.3897 83.2932C25.3737 83.2612 25.3817 83.2212 25.4137 83.1732C25.4457 83.1252 25.5017 83.1092 25.5817 83.1252C25.8377 83.1572 26.1657 83.1892 26.5657 83.2212C26.9657 83.2532 27.4937 83.2612 28.1497 83.2452C28.1177 82.3012 28.0937 81.4052 28.0777 80.5572C28.0777 79.7092 28.0537 78.8452 28.0057 77.9652C27.9257 76.7652 27.7897 75.9812 27.5977 75.6132C27.5657 75.5332 27.5657 75.4772 27.5977 75.4452C27.6457 75.3972 27.7017 75.3732 27.7657 75.3732H29.3257C29.4217 75.3892 29.4697 75.4692 29.4697 75.6132C29.4537 75.9012 29.4457 76.1892 29.4457 76.4772C29.4457 76.7652 29.4457 77.0852 29.4457 77.4372C29.4457 77.5652 29.4457 77.7012 29.4457 77.8452C29.4457 77.9732 29.4457 78.1172 29.4457 78.2772L29.4217 83.2212C30.3337 83.1892 31.2937 83.1172 32.3017 83.0052C32.3337 82.1892 32.3737 81.3732 32.4217 80.5572C32.4697 79.7252 32.5097 78.8612 32.5417 77.9652C32.5737 77.3892 32.5657 76.8452 32.5177 76.3332C32.4857 75.8212 32.4297 75.4852 32.3497 75.3252C32.2857 75.1812 32.3417 75.1092 32.5177 75.1092C32.6137 75.1092 32.7737 75.1172 32.9977 75.1332C33.2377 75.1332 33.4697 75.1412 33.6937 75.1572C33.9177 75.1572 34.0457 75.1572 34.0777 75.1572C34.1897 75.1732 34.2297 75.2532 34.1977 75.3972C34.1657 75.8292 34.1337 76.1812 34.1017 76.4532C34.0697 76.7252 34.0457 76.9892 34.0297 77.2452C34.0137 77.5012 33.9897 77.8212 33.9577 78.2052L33.6457 82.8132C34.6377 82.6692 35.6137 82.4772 36.5737 82.2372C36.6857 82.1892 36.7577 82.2292 36.7897 82.3572L36.8617 83.0292C36.8617 83.1732 36.8377 83.2692 36.7897 83.3172C36.7577 83.3492 36.6857 83.3892 36.5737 83.4372C36.1417 83.5652 35.5257 83.6932 34.7257 83.8212C33.9417 83.9492 33.0857 84.0692 32.1577 84.1812C31.2297 84.2772 30.3417 84.3572 29.4937 84.4212C28.9177 84.4532 28.4457 84.4852 28.0777 84.5172C27.7257 84.5492 27.4057 84.5812 27.1177 84.6132C26.8457 84.6292 26.5337 84.6532 26.1817 84.6852ZM38.4697 90.1092C38.4057 90.1092 38.3737 90.0692 38.3737 89.9892V78.8772L37.5577 78.9012C37.1737 78.9172 36.7977 78.9492 36.4297 78.9972C36.0617 79.0292 35.6857 79.0612 35.3017 79.0932C35.1257 79.1092 35.0137 79.1012 34.9657 79.0692C34.9337 79.0372 34.9097 78.9812 34.8937 78.9012C34.8777 78.8852 34.8697 78.8692 34.8697 78.8532L34.6777 77.8452C34.6457 77.7172 34.7017 77.6612 34.8457 77.6772C35.2297 77.7412 35.7577 77.7652 36.4297 77.7492C37.1177 77.7332 37.7657 77.7092 38.3737 77.6772V73.8852C38.3737 73.2772 38.3577 72.7172 38.3257 72.2052C38.2937 71.6932 38.2377 71.3572 38.1577 71.1972C38.1257 71.1172 38.1257 71.0612 38.1577 71.0292C38.2057 70.9812 38.2617 70.9572 38.3257 70.9572L39.7417 70.9812C39.8217 71.0132 39.8617 71.0772 39.8617 71.1732C39.8297 71.6372 39.8137 72.0532 39.8137 72.4212C39.8137 72.7892 39.8137 73.1732 39.8137 73.5732C39.8137 73.6692 39.8137 73.7732 39.8137 73.8852C39.8137 73.9972 39.8137 74.1172 39.8137 74.2452V89.5092C39.8137 89.7492 39.7977 89.8932 39.7657 89.9412C39.7497 89.9892 39.7017 90.0212 39.6217 90.0372C39.5737 90.0372 39.4617 90.0452 39.2857 90.0612C39.1257 90.0612 38.9657 90.0692 38.8057 90.0852C38.6457 90.1012 38.5337 90.1092 38.4697 90.1092ZM41.9737 90.7332C41.9097 90.7332 41.8777 90.6932 41.8777 90.6132V73.2612C41.8777 72.6532 41.8617 72.0932 41.8297 71.5812C41.8137 71.0692 41.7657 70.7332 41.6857 70.5732C41.6537 70.4932 41.6537 70.4372 41.6857 70.4052C41.7337 70.3572 41.7897 70.3332 41.8537 70.3332L43.2697 70.3572C43.3497 70.3892 43.3897 70.4532 43.3897 70.5492C43.3577 71.0292 43.3337 71.4612 43.3177 71.8452C43.3177 72.2292 43.3177 72.6292 43.3177 73.0452C43.3177 73.1412 43.3177 73.2372 43.3177 73.3332C43.3177 73.4292 43.3177 73.5252 43.3177 73.6212V90.1332C43.3177 90.3732 43.3017 90.5172 43.2697 90.5652C43.2537 90.6132 43.2057 90.6452 43.1257 90.6612C43.0777 90.6612 42.9657 90.6612 42.7897 90.6612C42.6297 90.6772 42.4697 90.6932 42.3097 90.7092C42.1497 90.7252 42.0377 90.7332 41.9737 90.7332ZM26.5177 74.6292C26.3577 74.6452 26.2537 74.6292 26.2057 74.5812C26.1577 74.5172 26.1177 74.4452 26.0857 74.3652C26.0697 74.3492 26.0617 74.3332 26.0617 74.3172C25.9977 74.1412 25.9497 74.0052 25.9177 73.9092C25.8857 73.7972 25.8377 73.6052 25.7737 73.3332C25.7577 73.3012 25.7657 73.2612 25.7977 73.2132C25.8297 73.1652 25.8857 73.1412 25.9657 73.1412C26.2857 73.1412 26.6217 73.1572 26.9737 73.1892C27.3417 73.2052 27.8937 73.2132 28.6297 73.2132C29.5257 73.1812 30.4137 73.1412 31.2937 73.0932C32.1897 73.0452 33.0057 72.9892 33.7417 72.9252C34.4937 72.8452 35.1017 72.7732 35.5657 72.7092C35.6137 72.6932 35.6697 72.7012 35.7337 72.7332C35.7977 72.7492 35.8377 72.7972 35.8537 72.8772C35.8857 72.9892 35.9177 73.1572 35.9497 73.3812C35.9817 73.5892 36.0057 73.7812 36.0217 73.9572C36.0537 74.1332 35.9577 74.2212 35.7337 74.2212C35.4297 74.2052 35.1417 74.1972 34.8697 74.1972C34.6137 74.1972 34.3257 74.1972 34.0057 74.1972C33.6537 74.1972 33.2057 74.2052 32.6617 74.2212C32.1177 74.2372 31.5577 74.2612 30.9817 74.2932C30.4217 74.3252 29.9177 74.3572 29.4697 74.3892C29.0377 74.4052 28.7417 74.4212 28.5817 74.4372L26.5177 74.6292ZM53.0951 83.2932C52.1191 83.3092 51.2231 83.1092 50.4071 82.6932C49.5911 82.2772 48.9351 81.6852 48.4391 80.9172C47.9591 80.1332 47.7191 79.2372 47.7191 78.2292C47.7191 77.2532 47.9591 76.3812 48.4391 75.6132C48.9191 74.8292 49.5671 74.2052 50.3831 73.7412C51.2151 73.2612 52.1271 73.0132 53.1191 72.9972C54.1111 72.9652 55.0071 73.1412 55.8071 73.5252C56.6231 73.9092 57.2711 74.4772 57.7511 75.2292C58.2311 75.9812 58.4711 76.9092 58.4711 78.0132C58.4711 79.0052 58.2311 79.8932 57.7511 80.6772C57.2711 81.4612 56.6231 82.0852 55.8071 82.5492C54.9911 83.0132 54.0871 83.2612 53.0951 83.2932ZM53.1191 81.9252C53.8231 81.8932 54.4631 81.7172 55.0391 81.3972C55.6151 81.0612 56.0711 80.6052 56.4071 80.0292C56.7591 79.4372 56.9351 78.7732 56.9351 78.0372C56.9351 77.2212 56.7591 76.5252 56.4071 75.9492C56.0711 75.3732 55.6151 74.9412 55.0391 74.6532C54.4631 74.3492 53.8231 74.2132 53.1191 74.2452C52.4151 74.2612 51.7671 74.4452 51.1751 74.7972C50.5831 75.1332 50.1111 75.5972 49.7591 76.1892C49.4071 76.7652 49.2311 77.4372 49.2311 78.2052C49.2311 79.0052 49.4071 79.6852 49.7591 80.2452C50.1271 80.8052 50.6071 81.2292 51.1991 81.5172C51.7911 81.8052 52.4311 81.9412 53.1191 81.9252ZM62.5271 90.7332C62.4631 90.7332 62.4311 90.6932 62.4311 90.6132V73.2852C62.4311 72.6772 62.4071 72.1172 62.3591 71.6052C62.3271 71.0772 62.2711 70.7332 62.1911 70.5732C62.1591 70.4932 62.1591 70.4372 62.1911 70.4052C62.2391 70.3572 62.2951 70.3332 62.3591 70.3332C62.4551 70.3332 62.6151 70.3412 62.8391 70.3572C63.0791 70.3572 63.3111 70.3652 63.5351 70.3812C63.7591 70.3812 63.8871 70.3812 63.9191 70.3812C63.9991 70.3812 64.0391 70.4452 64.0391 70.5732C63.9911 71.1652 63.9591 71.6852 63.9431 72.1332C63.9431 72.5652 63.9431 73.0692 63.9431 73.6452V90.1332C63.9431 90.3732 63.9271 90.5172 63.8951 90.5652C63.8791 90.6132 63.8311 90.6452 63.7511 90.6612L62.5271 90.7332ZM68.3619 85.1892C68.2819 85.1252 68.1699 85.0452 68.0259 84.9492C67.8979 84.8372 67.7939 84.7412 67.7139 84.6612C67.6179 84.5492 67.6259 84.4612 67.7379 84.3972C69.3379 83.2612 70.5939 82.0772 71.5059 80.8452C72.4339 79.6132 73.0979 78.4132 73.4979 77.2452C73.9139 76.0612 74.1539 75.0052 74.2179 74.0772C73.8019 74.1092 73.4419 74.1332 73.1379 74.1492C72.8339 74.1652 72.6259 74.1732 72.5139 74.1732L69.8739 74.4132C69.7139 74.4292 69.6099 74.4132 69.5619 74.3652C69.5139 74.3012 69.4739 74.2292 69.4419 74.1492C69.4259 74.1332 69.4179 74.1172 69.4179 74.1012C69.3539 73.9252 69.3059 73.7732 69.2739 73.6452C69.2579 73.5012 69.2179 73.2932 69.1539 73.0212C69.1379 72.9092 69.2019 72.8532 69.3459 72.8532C69.7939 72.8852 70.2099 72.9092 70.5939 72.9252C70.9939 72.9252 71.5779 72.9252 72.3459 72.9252C73.2099 72.9252 73.9859 72.9092 74.6739 72.8772C75.3779 72.8452 76.0259 72.8052 76.6179 72.7572C77.2419 72.7092 77.7459 72.6692 78.1299 72.6372C78.5299 72.6052 78.8739 72.5732 79.1619 72.5412C79.4659 72.4932 79.7859 72.4532 80.1219 72.4212C80.1699 72.4212 80.2259 72.4292 80.2899 72.4452C80.3539 72.4612 80.3939 72.5092 80.4099 72.5892C80.4259 72.6852 80.4419 72.7972 80.4579 72.9252C80.4899 73.0532 80.5139 73.1812 80.5299 73.3092L80.5779 73.7412C80.6099 73.9172 80.5139 74.0052 80.2899 74.0052C79.9859 73.9892 79.6419 73.9812 79.2579 73.9812C78.8899 73.9812 78.5459 73.9812 78.2259 73.9812C77.9539 73.9812 77.6259 73.9892 77.2419 74.0052C76.8739 74.0052 76.4739 74.0132 76.0419 74.0292C75.9459 75.3092 75.5619 76.6852 74.8899 78.1572C75.6579 78.7012 76.4259 79.2772 77.1939 79.8852C77.9619 80.4772 78.6579 81.0452 79.2819 81.5892C79.9059 82.1172 80.3859 82.5732 80.7219 82.9572C80.7859 83.0372 80.8339 83.1332 80.8659 83.2452C80.9139 83.3412 80.8979 83.4452 80.8179 83.5572C80.6739 83.7332 80.5059 83.8932 80.3139 84.0372C80.1379 84.1652 79.9619 84.3012 79.7859 84.4452C79.6899 84.5252 79.6099 84.5092 79.5459 84.3972C79.3219 84.0452 79.0099 83.6372 78.6099 83.1732C78.2259 82.7092 77.7859 82.2372 77.2899 81.7572C76.8099 81.2612 76.3139 80.7892 75.8019 80.3412C75.3059 79.8932 74.8339 79.5012 74.3859 79.1652C73.8259 80.1732 73.1139 81.1812 72.2499 82.1892C71.3859 83.1972 70.3459 84.1652 69.1299 85.0932C69.1139 85.1092 69.0899 85.1252 69.0579 85.1412C68.9459 85.2212 68.8419 85.2772 68.7459 85.3092C68.6499 85.3252 68.5219 85.2852 68.3619 85.1892ZM83.1699 90.7332C83.1059 90.7332 83.0739 90.6932 83.0739 90.6132V73.2852C83.0739 72.6772 83.0499 72.1172 83.0019 71.6052C82.9699 71.0772 82.9139 70.7332 82.8339 70.5732C82.8019 70.4932 82.8019 70.4372 82.8339 70.4052C82.8819 70.3572 82.9379 70.3332 83.0019 70.3332C83.0979 70.3332 83.2579 70.3412 83.4819 70.3572C83.7219 70.3572 83.9539 70.3652 84.1779 70.3812C84.4019 70.3812 84.5299 70.3812 84.5619 70.3812C84.6419 70.3812 84.6819 70.4452 84.6819 70.5732C84.6339 71.1652 84.6019 71.6852 84.5859 72.1332C84.5859 72.5652 84.5859 73.0692 84.5859 73.6452V90.1332C84.5859 90.3732 84.5699 90.5172 84.5379 90.5652C84.5219 90.6132 84.4739 90.6452 84.3939 90.6612L83.1699 90.7332Z" fill="white"/>
<path d="M36.4813 146.043C36.4613 145.993 36.4713 145.953 36.5113 145.923C36.9313 145.663 37.3763 145.468 37.8463 145.338C38.3163 145.198 38.7713 145.128 39.2113 145.128C40.8613 145.128 41.6863 145.953 41.6863 147.603V151.143C41.6863 151.313 41.7313 151.433 41.8213 151.503C41.9113 151.563 42.0213 151.593 42.1513 151.593C42.1913 151.593 42.2113 151.623 42.2113 151.683L42.1363 152.343C42.1363 152.383 42.1113 152.403 42.0613 152.403C41.7813 152.403 41.5213 152.328 41.2813 152.178C41.0413 152.028 40.8813 151.798 40.8013 151.488C40.5213 151.818 40.1663 152.068 39.7363 152.238C39.3163 152.398 38.8863 152.478 38.4463 152.478C38.0763 152.478 37.7163 152.408 37.3663 152.268C37.0263 152.128 36.7463 151.898 36.5263 151.578C36.3163 151.258 36.2113 150.828 36.2113 150.288C36.2113 149.658 36.4113 149.168 36.8113 148.818C37.2113 148.468 37.7563 148.228 38.4463 148.098C39.1363 147.958 39.9063 147.888 40.7563 147.888V147.633C40.7563 147.023 40.6113 146.593 40.3213 146.343C40.0413 146.083 39.6363 145.953 39.1063 145.953C38.7663 145.953 38.4013 146.013 38.0113 146.133C37.6313 146.253 37.2813 146.428 36.9613 146.658C36.9113 146.708 36.8713 146.703 36.8413 146.643L36.4813 146.043ZM40.7563 150.153V148.713C40.7063 148.703 40.6513 148.698 40.5913 148.698C40.5413 148.698 40.4863 148.698 40.4263 148.698C39.8163 148.698 39.2613 148.748 38.7613 148.848C38.2713 148.938 37.8813 149.103 37.5913 149.343C37.3013 149.573 37.1563 149.898 37.1563 150.318C37.1563 150.798 37.3013 151.138 37.5913 151.338C37.8913 151.538 38.2263 151.638 38.5963 151.638C39.0263 151.638 39.4463 151.518 39.8563 151.278C40.2763 151.038 40.5763 150.663 40.7563 150.153ZM45.0084 152.178C45.0084 152.228 44.9834 152.253 44.9334 152.253H44.1534C44.1034 152.253 44.0784 152.228 44.0784 152.178V145.428C44.0784 145.378 44.1034 145.353 44.1534 145.353H44.9334C44.9834 145.353 45.0084 145.378 45.0084 145.428V152.178ZM44.5584 143.628C44.3184 143.628 44.1184 143.553 43.9584 143.403C43.7984 143.253 43.7184 143.073 43.7184 142.863C43.7184 142.633 43.7984 142.443 43.9584 142.293C44.1184 142.133 44.3184 142.053 44.5584 142.053C44.7884 142.053 44.9784 142.133 45.1284 142.293C45.2884 142.443 45.3684 142.633 45.3684 142.863C45.3684 143.073 45.2884 143.253 45.1284 143.403C44.9784 143.553 44.7884 143.628 44.5584 143.628ZM57.5189 141.003L52.5989 153.753H51.8189L56.7239 141.003H57.5189ZM65.0425 145.428L65.1475 145.983C65.4075 145.783 65.7175 145.593 66.0775 145.413C66.4475 145.223 66.8525 145.128 67.2925 145.128C68.2125 145.128 68.9475 145.438 69.4975 146.058C70.0475 146.678 70.3275 147.558 70.3375 148.698C70.3475 149.848 70.0875 150.768 69.5575 151.458C69.0275 152.138 68.3025 152.478 67.3825 152.478C66.9125 152.478 66.4975 152.393 66.1375 152.223C65.7875 152.043 65.4975 151.838 65.2675 151.608V155.103C65.2675 155.153 65.2425 155.178 65.1925 155.178H64.4125C64.3625 155.178 64.3375 155.153 64.3375 155.103V145.428C64.3375 145.378 64.3625 145.353 64.4125 145.353H64.9675C64.9975 145.353 65.0225 145.378 65.0425 145.428ZM65.2675 150.183C65.3875 150.553 65.6175 150.883 65.9575 151.173C66.2975 151.463 66.7275 151.608 67.2475 151.608C67.8875 151.608 68.4025 151.363 68.7925 150.873C69.1925 150.373 69.3925 149.668 69.3925 148.758C69.3925 147.878 69.2125 147.198 68.8525 146.718C68.4925 146.238 67.9475 145.998 67.2175 145.998C66.8375 145.998 66.4825 146.088 66.1525 146.268C65.8225 146.438 65.5275 146.653 65.2675 146.913V150.183ZM76.1334 146.718C76.0834 146.748 76.0434 146.748 76.0134 146.718C75.8834 146.518 75.6634 146.343 75.3534 146.193C75.0534 146.033 74.6984 145.953 74.2884 145.953C74.0184 145.953 73.7584 145.988 73.5084 146.058C73.2584 146.128 73.0534 146.243 72.8934 146.403C72.7334 146.563 72.6534 146.773 72.6534 147.033C72.6534 147.343 72.7934 147.588 73.0734 147.768C73.3534 147.948 73.8434 148.113 74.5434 148.263C75.2034 148.403 75.7434 148.638 76.1634 148.968C76.5834 149.298 76.7934 149.753 76.7934 150.333C76.7934 150.823 76.6634 151.228 76.4034 151.548C76.1534 151.858 75.8234 152.093 75.4134 152.253C75.0134 152.403 74.5934 152.478 74.1534 152.478C73.5334 152.478 72.9684 152.353 72.4584 152.103C71.9484 151.853 71.5934 151.478 71.3934 150.978C71.3734 150.928 71.3884 150.888 71.4384 150.858L72.0534 150.528C72.0734 150.518 72.0984 150.513 72.1284 150.513C72.1584 150.513 72.1784 150.533 72.1884 150.573C72.3484 150.923 72.6084 151.193 72.9684 151.383C73.3384 151.563 73.7284 151.653 74.1384 151.653C74.6084 151.653 75.0084 151.558 75.3384 151.368C75.6784 151.168 75.8484 150.853 75.8484 150.423C75.8484 149.953 75.6784 149.628 75.3384 149.448C74.9984 149.258 74.5584 149.113 74.0184 149.013C73.3284 148.883 72.7684 148.663 72.3384 148.353C71.9184 148.043 71.7084 147.603 71.7084 147.033C71.7084 146.583 71.8334 146.218 72.0834 145.938C72.3334 145.658 72.6534 145.453 73.0434 145.323C73.4434 145.193 73.8534 145.128 74.2734 145.128C74.8234 145.128 75.2934 145.218 75.6834 145.398C76.0834 145.578 76.4034 145.818 76.6434 146.118C76.6734 146.158 76.6684 146.203 76.6284 146.253L76.1334 146.718Z" fill="#415360"/>
<rect x="10.0281" y="19.4131" width="93" height="87" stroke="white"/>
</svg>
