<svg width="118" height="167" viewBox="0 0 118 167" fill="none" xmlns="http://www.w3.org/2000/svg">
<rect x="10.1121" y="4" width="107" height="163" fill="#D2832C"/>
<rect x="9.11206" y="4" width="107" height="163" fill="#D9D9D9"/>
<rect x="0.112061" width="111" height="167" fill="#FFA13B"/>
<path d="M36.6789 41.904C36.6469 41.904 36.6069 41.896 36.5589 41.88C36.5109 41.864 36.4869 41.816 36.4869 41.736C36.4869 41.72 36.4869 41.68 36.4869 41.616C36.4869 41.504 36.4869 41.296 36.4869 40.992C36.5029 40.688 36.5109 40.224 36.5109 39.6C36.5109 38.96 36.5029 38.12 36.4869 37.08C36.4869 36.04 36.4789 34.728 36.4629 33.144C36.4629 32.712 36.4309 32.28 36.3669 31.848C36.3029 31.4 36.2469 31.096 36.1989 30.936C36.1509 30.792 36.2069 30.72 36.3669 30.72C36.4469 30.72 36.5909 30.728 36.7989 30.744C37.0229 30.744 37.2389 30.752 37.4469 30.768C37.6549 30.768 37.7749 30.768 37.8069 30.768C37.8869 30.8 37.9269 30.872 37.9269 30.984C37.9109 31.4 37.8949 31.824 37.8789 32.256C37.8789 32.672 37.8789 33.088 37.8789 33.504V34.728C38.2629 34.728 38.7749 34.728 39.4149 34.728C40.0709 34.712 40.7429 34.696 41.4309 34.68C42.1189 34.648 42.7109 34.616 43.2069 34.584V32.784C43.2069 31.616 43.1189 30.872 42.9429 30.552C42.9109 30.472 42.9109 30.416 42.9429 30.384C42.9909 30.336 43.0469 30.312 43.1109 30.312L44.5509 30.336C44.6309 30.368 44.6709 30.448 44.6709 30.576C44.6709 30.992 44.6629 31.336 44.6469 31.608C44.6469 31.864 44.6389 32.112 44.6229 32.352C44.6229 32.592 44.6229 32.904 44.6229 33.288V41.352C44.6229 41.464 44.5749 41.544 44.4789 41.592C44.3989 41.64 44.3189 41.664 44.2389 41.664C43.6309 41.664 42.9429 41.672 42.1749 41.688C41.4229 41.688 40.6789 41.696 39.9429 41.712C39.2069 41.728 38.5589 41.752 37.9989 41.784C37.9029 41.784 37.7509 41.792 37.5429 41.808C37.3509 41.824 37.1669 41.848 36.9909 41.88C36.8149 41.896 36.7109 41.904 36.6789 41.904ZM51.5589 48.24C51.4949 48.24 51.4629 48.2 51.4629 48.12V37.584C50.9669 37.584 50.4549 37.592 49.9269 37.608C49.3989 37.608 48.9429 37.624 48.5589 37.656V47.016C48.5589 47.24 48.5429 47.384 48.5109 47.448C48.4949 47.496 48.4469 47.528 48.3669 47.544C48.2709 47.56 48.0709 47.576 47.7669 47.592C47.4789 47.608 47.2949 47.616 47.2149 47.616C47.1509 47.616 47.1189 47.576 47.1189 47.496V31.392C47.1189 30.784 47.1029 30.224 47.0709 29.712C47.0389 29.2 46.9829 28.864 46.9029 28.704C46.8709 28.624 46.8709 28.568 46.9029 28.536C46.9509 28.488 47.0069 28.464 47.0709 28.464L48.4869 28.488C48.5669 28.52 48.6069 28.584 48.6069 28.68C48.5749 29.144 48.5589 29.56 48.5589 29.928C48.5589 30.296 48.5589 30.68 48.5589 31.08C48.5589 31.176 48.5589 31.28 48.5589 31.392C48.5589 31.504 48.5589 31.624 48.5589 31.752V36.288C48.6389 36.288 48.7189 36.288 48.7989 36.288C48.8789 36.288 48.9589 36.288 49.0389 36.288C49.4069 36.288 49.7989 36.288 50.2149 36.288C50.6469 36.288 51.0629 36.272 51.4629 36.24V30.768C51.4629 30.16 51.4469 29.6 51.4149 29.088C51.3989 28.576 51.3509 28.24 51.2709 28.08C51.2389 28 51.2389 27.944 51.2709 27.912C51.3189 27.864 51.3749 27.84 51.4389 27.84L52.8549 27.864C52.9349 27.896 52.9749 27.96 52.9749 28.056C52.9429 28.536 52.9189 28.968 52.9029 29.352C52.9029 29.736 52.9029 30.136 52.9029 30.552C52.9029 30.648 52.9029 30.744 52.9029 30.84C52.9029 30.936 52.9029 31.032 52.9029 31.128V47.64C52.9029 47.88 52.8869 48.024 52.8549 48.072C52.8389 48.12 52.7909 48.152 52.7109 48.168C52.6629 48.168 52.5509 48.168 52.3749 48.168C52.2149 48.184 52.0549 48.2 51.8949 48.216C51.7349 48.232 51.6229 48.24 51.5589 48.24ZM37.9029 40.44C38.1589 40.456 38.9429 40.456 40.2549 40.44C41.5829 40.408 42.5669 40.36 43.2069 40.296V35.952C42.9189 35.952 42.5269 35.952 42.0309 35.952C41.5509 35.952 41.0389 35.96 40.4949 35.976C39.9509 35.976 39.4469 35.984 38.9829 36C38.5189 36.016 38.1509 36.032 37.8789 36.048L37.9029 40.44ZM72.3344 48.24C72.2704 48.24 72.2384 48.2 72.2384 48.12V35.304L69.3584 35.4C68.9744 35.432 68.5344 35.472 68.0384 35.52C67.5584 35.552 67.1264 35.592 66.7424 35.64C66.5664 35.672 66.4464 35.664 66.3824 35.616C66.3184 35.568 66.2704 35.496 66.2384 35.4C66.1744 35.192 66.1264 34.992 66.0944 34.8C66.0624 34.592 66.0304 34.416 65.9984 34.272C65.9664 34.144 66.0304 34.096 66.1904 34.128C66.3984 34.16 66.7424 34.184 67.2224 34.2C67.7184 34.2 68.2704 34.2 68.8784 34.2C69.5024 34.184 70.1104 34.168 70.7024 34.152C71.2944 34.12 71.8064 34.088 72.2384 34.056V30.792C72.2384 30.184 72.2144 29.624 72.1664 29.112C72.1344 28.584 72.0784 28.24 71.9984 28.08C71.9664 28 71.9664 27.944 71.9984 27.912C72.0464 27.864 72.1024 27.84 72.1664 27.84C72.2624 27.84 72.4224 27.848 72.6464 27.864C72.8864 27.864 73.1184 27.872 73.3424 27.888C73.5664 27.888 73.6944 27.888 73.7264 27.888C73.8064 27.888 73.8464 27.952 73.8464 28.08C73.7984 28.672 73.7664 29.192 73.7504 29.64C73.7504 30.072 73.7504 30.576 73.7504 31.152V47.64C73.7504 47.88 73.7344 48.024 73.7024 48.072C73.6864 48.12 73.6384 48.152 73.5584 48.168L72.3344 48.24ZM59.9024 42.744C59.4544 42.744 59.1504 42.528 58.9904 42.096C58.8304 41.664 58.7504 41.2 58.7504 40.704V32.64C58.7504 32.208 58.7184 31.776 58.6544 31.344C58.6064 30.912 58.5584 30.616 58.5104 30.456C58.4624 30.296 58.5184 30.216 58.6784 30.216C58.7584 30.216 58.9184 30.232 59.1584 30.264C59.3984 30.28 59.6304 30.304 59.8544 30.336C60.0944 30.352 60.2304 30.36 60.2624 30.36C60.3264 30.376 60.3504 30.432 60.3344 30.528C60.3344 30.56 60.3344 30.584 60.3344 30.6C60.3024 31.016 60.2784 31.424 60.2624 31.824C60.2624 32.224 60.2624 32.656 60.2624 33.12L60.2384 39.936C60.2384 39.984 60.2384 40.056 60.2384 40.152C60.2384 40.424 60.2544 40.672 60.2864 40.896C60.3344 41.12 60.5024 41.232 60.7904 41.232C61.5424 41.232 62.4144 41.192 63.4064 41.112C64.3984 41.016 65.4144 40.872 66.4544 40.68C67.5104 40.472 68.4864 40.208 69.3824 39.888C69.5104 39.84 69.5904 39.88 69.6224 40.008L69.7424 40.848C69.7744 41.056 69.6944 41.192 69.5024 41.256C68.6544 41.512 67.6864 41.752 66.5984 41.976C65.5104 42.2 64.3904 42.384 63.2384 42.528C62.0864 42.672 60.9744 42.744 59.9024 42.744Z" fill="white"/>
<path d="M35.5934 142.402C35.5734 142.352 35.5834 142.312 35.6234 142.282C36.0434 142.022 36.4884 141.827 36.9584 141.697C37.4284 141.557 37.8834 141.487 38.3234 141.487C39.9734 141.487 40.7984 142.312 40.7984 143.962V147.502C40.7984 147.672 40.8434 147.792 40.9334 147.862C41.0234 147.922 41.1334 147.952 41.2634 147.952C41.3034 147.952 41.3234 147.982 41.3234 148.042L41.2484 148.702C41.2484 148.742 41.2234 148.762 41.1734 148.762C40.8934 148.762 40.6334 148.687 40.3934 148.537C40.1534 148.387 39.9934 148.157 39.9134 147.847C39.6334 148.177 39.2784 148.427 38.8484 148.597C38.4284 148.757 37.9984 148.837 37.5584 148.837C37.1884 148.837 36.8284 148.767 36.4784 148.627C36.1384 148.487 35.8584 148.257 35.6384 147.937C35.4284 147.617 35.3234 147.187 35.3234 146.647C35.3234 146.017 35.5234 145.527 35.9234 145.177C36.3234 144.827 36.8684 144.587 37.5584 144.457C38.2484 144.317 39.0184 144.247 39.8684 144.247V143.992C39.8684 143.382 39.7234 142.952 39.4334 142.702C39.1534 142.442 38.7484 142.312 38.2184 142.312C37.8784 142.312 37.5134 142.372 37.1234 142.492C36.7434 142.612 36.3934 142.787 36.0734 143.017C36.0234 143.067 35.9834 143.062 35.9534 143.002L35.5934 142.402ZM39.8684 146.512V145.072C39.8184 145.062 39.7634 145.057 39.7034 145.057C39.6534 145.057 39.5984 145.057 39.5384 145.057C38.9284 145.057 38.3734 145.107 37.8734 145.207C37.3834 145.297 36.9934 145.462 36.7034 145.702C36.4134 145.932 36.2684 146.257 36.2684 146.677C36.2684 147.157 36.4134 147.497 36.7034 147.697C37.0034 147.897 37.3384 147.997 37.7084 147.997C38.1384 147.997 38.5584 147.877 38.9684 147.637C39.3884 147.397 39.6884 147.022 39.8684 146.512ZM44.1204 148.537C44.1204 148.587 44.0954 148.612 44.0454 148.612H43.2654C43.2154 148.612 43.1904 148.587 43.1904 148.537V141.787C43.1904 141.737 43.2154 141.712 43.2654 141.712H44.0454C44.0954 141.712 44.1204 141.737 44.1204 141.787V148.537ZM43.6704 139.987C43.4304 139.987 43.2304 139.912 43.0704 139.762C42.9104 139.612 42.8304 139.432 42.8304 139.222C42.8304 138.992 42.9104 138.802 43.0704 138.652C43.2304 138.492 43.4304 138.412 43.6704 138.412C43.9004 138.412 44.0904 138.492 44.2404 138.652C44.4004 138.802 44.4804 138.992 44.4804 139.222C44.4804 139.432 44.4004 139.612 44.2404 139.762C44.0904 139.912 43.9004 139.987 43.6704 139.987ZM56.631 137.362L51.711 150.112H50.931L55.836 137.362H56.631ZM64.1546 141.787L64.2596 142.342C64.5196 142.142 64.8296 141.952 65.1896 141.772C65.5596 141.582 65.9646 141.487 66.4046 141.487C67.3246 141.487 68.0596 141.797 68.6096 142.417C69.1596 143.037 69.4396 143.917 69.4496 145.057C69.4596 146.207 69.1996 147.127 68.6696 147.817C68.1396 148.497 67.4146 148.837 66.4946 148.837C66.0246 148.837 65.6096 148.752 65.2496 148.582C64.8996 148.402 64.6096 148.197 64.3796 147.967V151.462C64.3796 151.512 64.3546 151.537 64.3046 151.537H63.5246C63.4746 151.537 63.4496 151.512 63.4496 151.462V141.787C63.4496 141.737 63.4746 141.712 63.5246 141.712H64.0796C64.1096 141.712 64.1346 141.737 64.1546 141.787ZM64.3796 146.542C64.4996 146.912 64.7296 147.242 65.0696 147.532C65.4096 147.822 65.8396 147.967 66.3596 147.967C66.9996 147.967 67.5146 147.722 67.9046 147.232C68.3046 146.732 68.5046 146.027 68.5046 145.117C68.5046 144.237 68.3246 143.557 67.9646 143.077C67.6046 142.597 67.0596 142.357 66.3296 142.357C65.9496 142.357 65.5946 142.447 65.2646 142.627C64.9346 142.797 64.6396 143.012 64.3796 143.272V146.542ZM75.2454 143.077C75.1954 143.107 75.1554 143.107 75.1254 143.077C74.9954 142.877 74.7754 142.702 74.4654 142.552C74.1654 142.392 73.8104 142.312 73.4004 142.312C73.1304 142.312 72.8704 142.347 72.6204 142.417C72.3704 142.487 72.1654 142.602 72.0054 142.762C71.8454 142.922 71.7654 143.132 71.7654 143.392C71.7654 143.702 71.9054 143.947 72.1854 144.127C72.4654 144.307 72.9554 144.472 73.6554 144.622C74.3154 144.762 74.8554 144.997 75.2754 145.327C75.6954 145.657 75.9054 146.112 75.9054 146.692C75.9054 147.182 75.7754 147.587 75.5154 147.907C75.2654 148.217 74.9354 148.452 74.5254 148.612C74.1254 148.762 73.7054 148.837 73.2654 148.837C72.6454 148.837 72.0804 148.712 71.5704 148.462C71.0604 148.212 70.7054 147.837 70.5054 147.337C70.4854 147.287 70.5004 147.247 70.5504 147.217L71.1654 146.887C71.1854 146.877 71.2104 146.872 71.2404 146.872C71.2704 146.872 71.2904 146.892 71.3004 146.932C71.4604 147.282 71.7204 147.552 72.0804 147.742C72.4504 147.922 72.8404 148.012 73.2504 148.012C73.7204 148.012 74.1204 147.917 74.4504 147.727C74.7904 147.527 74.9604 147.212 74.9604 146.782C74.9604 146.312 74.7904 145.987 74.4504 145.807C74.1104 145.617 73.6704 145.472 73.1304 145.372C72.4404 145.242 71.8804 145.022 71.4504 144.712C71.0304 144.402 70.8204 143.962 70.8204 143.392C70.8204 142.942 70.9454 142.577 71.1954 142.297C71.4454 142.017 71.7654 141.812 72.1554 141.682C72.5554 141.552 72.9654 141.487 73.3854 141.487C73.9354 141.487 74.4054 141.577 74.7954 141.757C75.1954 141.937 75.5154 142.177 75.7554 142.477C75.7854 142.517 75.7804 142.562 75.7404 142.612L75.2454 143.077Z" fill="#B77126"/>
<line x1="31.6121" y1="60.1953" x2="78.6121" y2="60.1953" stroke="white"/>
</svg>
