<svg width="118" height="168" viewBox="0 0 119 167" fill="none" xmlns="http://www.w3.org/2000/svg">
<rect x="10.032" y="4" width="107" height="163" fill="#C0721E"/>
<rect x="9.03198" y="4" width="107" height="163" fill="#D9D9D9"/>
<rect x="0.0319824" width="111" height="167" fill="#FFA13B"/>
<path d="M30.6661 40.8C29.6901 40.816 28.7941 40.616 27.9781 40.2C27.1621 39.784 26.5061 39.192 26.0101 38.424C25.5301 37.64 25.2901 36.744 25.2901 35.736C25.2901 34.76 25.5301 33.888 26.0101 33.12C26.4901 32.336 27.1381 31.712 27.9541 31.248C28.7861 30.768 29.6981 30.52 30.6901 30.504C31.6821 30.472 32.5781 30.648 33.3781 31.032C34.1941 31.416 34.8421 31.984 35.3221 32.736C35.8021 33.488 36.0421 34.416 36.0421 35.52C36.0421 36.512 35.8021 37.4 35.3221 38.184C34.8421 38.968 34.1941 39.592 33.3781 40.056C32.5621 40.52 31.6581 40.768 30.6661 40.8ZM30.6901 39.432C31.3941 39.4 32.0341 39.224 32.6101 38.904C33.1861 38.568 33.6421 38.112 33.9781 37.536C34.3301 36.944 34.5061 36.28 34.5061 35.544C34.5061 34.728 34.3301 34.032 33.9781 33.456C33.6421 32.88 33.1861 32.448 32.6101 32.16C32.0341 31.856 31.3941 31.72 30.6901 31.752C29.9861 31.768 29.3381 31.952 28.7461 32.304C28.1541 32.64 27.6821 33.104 27.3301 33.696C26.9781 34.272 26.8021 34.944 26.8021 35.712C26.8021 36.512 26.9781 37.192 27.3301 37.752C27.6981 38.312 28.1781 38.736 28.7701 39.024C29.3621 39.312 30.0021 39.448 30.6901 39.432ZM40.0981 48.24C40.0341 48.24 40.0021 48.2 40.0021 48.12V30.792C40.0021 30.184 39.9781 29.624 39.9301 29.112C39.8981 28.584 39.8421 28.24 39.7621 28.08C39.7301 28 39.7301 27.944 39.7621 27.912C39.8101 27.864 39.8661 27.84 39.9301 27.84C40.0261 27.84 40.1861 27.848 40.4101 27.864C40.6501 27.864 40.8821 27.872 41.1061 27.888C41.3301 27.888 41.4581 27.888 41.4901 27.888C41.5701 27.888 41.6101 27.952 41.6101 28.08C41.5621 28.672 41.5301 29.192 41.5141 29.64C41.5141 30.072 41.5141 30.576 41.5141 31.152V47.64C41.5141 47.88 41.4981 48.024 41.4661 48.072C41.4501 48.12 41.4021 48.152 41.3221 48.168L40.0981 48.24ZM57.9089 42.84C57.8449 42.84 57.8129 42.8 57.8129 42.72V35.688C57.1569 35.704 56.5569 35.736 56.0129 35.784C55.4689 35.816 54.9569 35.848 54.4769 35.88L54.4529 39.768C54.4529 39.976 54.3249 40.08 54.0689 40.08C53.1249 40.096 52.1169 40.112 51.0449 40.128C49.9729 40.144 49.0049 40.168 48.1409 40.2C48.0449 40.2 47.8929 40.208 47.6849 40.224C47.4929 40.24 47.3009 40.264 47.1089 40.296C46.9329 40.312 46.8289 40.32 46.7969 40.32C46.7649 40.32 46.7249 40.312 46.6769 40.296C46.6289 40.28 46.6049 40.232 46.6049 40.152C46.6049 40.136 46.6049 40.112 46.6049 40.08C46.6049 40.016 46.6049 39.896 46.6049 39.72C46.6209 39.544 46.6289 39.216 46.6289 38.736C46.6289 38.24 46.6209 37.504 46.6049 36.528C46.6049 35.536 46.5969 34.216 46.5809 32.568C46.5809 32.136 46.5489 31.696 46.4849 31.248C46.4209 30.8 46.3649 30.496 46.3169 30.336C46.2689 30.176 46.3249 30.096 46.4849 30.096L47.8289 30.12C47.9569 30.12 48.0209 30.208 48.0209 30.384C48.0049 30.8 47.9969 31.232 47.9969 31.68C47.9969 32.112 47.9969 32.536 47.9969 32.952V33.744C48.3809 33.744 48.8689 33.744 49.4609 33.744C50.0689 33.728 50.6929 33.712 51.3329 33.696C51.9729 33.664 52.5409 33.632 53.0369 33.6L53.0609 32.256C53.0769 31.648 53.0529 31.16 52.9889 30.792C52.9409 30.424 52.8769 30.16 52.7969 30C52.7649 29.92 52.7649 29.864 52.7969 29.832C52.8449 29.784 52.9009 29.76 52.9649 29.76C53.0609 29.76 53.2049 29.76 53.3969 29.76C53.6049 29.76 53.8049 29.76 53.9969 29.76C54.2049 29.76 54.3489 29.768 54.4289 29.784C54.5249 29.784 54.5729 29.864 54.5729 30.024C54.5569 30.424 54.5409 30.816 54.5249 31.2C54.5089 31.584 54.5009 32.056 54.5009 32.616L54.4769 34.632C54.9889 34.664 55.5409 34.672 56.1329 34.656C56.7249 34.624 57.2849 34.592 57.8129 34.56V30.888C57.8129 29.624 57.7409 28.808 57.5969 28.44C57.5649 28.36 57.5649 28.304 57.5969 28.272C57.6449 28.224 57.7009 28.2 57.7649 28.2L59.1809 28.224C59.2609 28.224 59.3009 28.296 59.3009 28.44C59.2689 28.952 59.2529 29.376 59.2529 29.712C59.2529 30.048 59.2529 30.4 59.2529 30.768C59.2529 30.88 59.2529 30.992 59.2529 31.104C59.2529 31.2 59.2529 31.312 59.2529 31.44V42.264C59.2529 42.504 59.2369 42.648 59.2049 42.696C59.1889 42.744 59.1409 42.776 59.0609 42.792L57.9089 42.84ZM53.1329 49.2C52.6209 49.2 52.2289 49.008 51.9569 48.624C51.7009 48.256 51.5729 47.728 51.5729 47.04V44.904C51.5729 44.344 51.5489 43.88 51.5009 43.512C51.4529 43.144 51.4049 42.88 51.3569 42.72C51.3089 42.56 51.3649 42.48 51.5249 42.48C51.6209 42.48 51.7809 42.488 52.0049 42.504C52.2449 42.504 52.4689 42.512 52.6769 42.528C52.9009 42.544 53.0209 42.552 53.0369 42.552C53.1169 42.552 53.1569 42.632 53.1569 42.792C53.1249 43.16 53.1009 43.488 53.0849 43.776C53.0849 44.048 53.0849 44.392 53.0849 44.808V46.896C53.0849 47.296 53.1329 47.576 53.2289 47.736C53.3409 47.88 53.5169 47.96 53.7569 47.976C54.2049 47.992 54.7809 48 55.4849 48C56.2049 48.016 56.9489 48.016 57.7169 48C58.4849 47.968 59.1889 47.936 59.8289 47.904C60.5009 47.872 61.1969 47.816 61.9169 47.736C62.6369 47.64 63.1889 47.544 63.5729 47.448C63.7329 47.416 63.8369 47.424 63.8849 47.472C63.9329 47.52 63.9649 47.584 63.9809 47.664L64.1729 48.792C64.1729 48.872 64.1489 48.936 64.1009 48.984C64.0689 49.032 63.9409 49.056 63.7169 49.056C62.1329 49.056 60.4369 49.08 58.6289 49.128C56.8369 49.176 55.0049 49.2 53.1329 49.2ZM61.5569 43.56C61.4929 43.56 61.4609 43.52 61.4609 43.44V30.288C61.4609 29.104 61.3969 28.368 61.2689 28.08C61.2369 28 61.2369 27.944 61.2689 27.912C61.3169 27.864 61.3729 27.84 61.4369 27.84L62.8769 27.864C62.9409 27.864 62.9729 27.928 62.9729 28.056C62.9729 28.072 62.9729 28.088 62.9729 28.104C62.9569 28.536 62.9409 28.904 62.9249 29.208C62.9089 29.512 62.9009 29.808 62.9009 30.096C62.9009 30.368 62.9009 30.696 62.9009 31.08V42.984C62.9009 43.224 62.8849 43.368 62.8529 43.416C62.8369 43.464 62.7889 43.496 62.7089 43.512L61.5569 43.56ZM48.0209 38.952C48.3889 38.984 49.1249 38.984 50.2289 38.952C51.3969 38.92 52.3249 38.872 53.0129 38.808L53.0369 34.848C52.5569 34.848 51.9809 34.856 51.3089 34.872C50.6529 34.872 50.0209 34.88 49.4129 34.896C48.8049 34.896 48.3329 34.912 47.9969 34.944L48.0209 38.952ZM71.6765 39.6C71.1165 39.616 70.7245 39.464 70.5005 39.144C70.2765 38.824 70.1645 38.28 70.1645 37.512V32.496C70.1645 31.936 70.1245 31.456 70.0445 31.056C69.9645 30.64 69.8845 30.352 69.8045 30.192C69.7565 30.096 69.7485 30.016 69.7805 29.952C69.8285 29.872 69.8845 29.832 69.9485 29.832C70.0605 29.832 70.2605 29.84 70.5485 29.856C70.8525 29.872 71.1725 29.888 71.5085 29.904C72.0365 29.92 72.6765 29.928 73.4285 29.928C74.1805 29.912 74.9805 29.888 75.8285 29.856C76.6925 29.824 77.5405 29.792 78.3725 29.76C79.3165 29.728 80.1325 29.688 80.8205 29.64C81.5245 29.576 82.0845 29.52 82.5005 29.472C82.5485 29.472 82.6045 29.48 82.6685 29.496C82.7325 29.512 82.7725 29.56 82.7885 29.64L82.8845 30.264C82.9005 30.328 82.9085 30.384 82.9085 30.432C82.9085 30.48 82.9085 30.536 82.9085 30.6C82.9245 30.68 82.9085 30.744 82.8605 30.792C82.8125 30.856 82.7325 30.888 82.6205 30.888C82.1725 30.888 81.7325 30.888 81.3005 30.888C80.8685 30.888 80.4205 30.896 79.9565 30.912L71.6765 31.104V34.008C72.6045 34.024 73.6125 34.024 74.7005 34.008C75.7885 33.992 76.8445 33.968 77.8685 33.936C78.9085 33.888 79.8285 33.84 80.6285 33.792C81.4285 33.728 81.9965 33.672 82.3325 33.624C82.5085 33.592 82.6125 33.6 82.6445 33.648C82.6765 33.68 82.7005 33.736 82.7165 33.816C82.7165 33.832 82.7165 33.84 82.7165 33.84L82.7885 34.728C82.8045 34.808 82.7885 34.872 82.7405 34.92C82.7085 34.952 82.5885 34.968 82.3805 34.968C82.2045 34.968 81.7965 34.976 81.1565 34.992C80.5325 34.992 79.7805 35 78.9005 35.016C78.0205 35.032 77.1165 35.048 76.1885 35.064C75.2605 35.08 74.3885 35.104 73.5725 35.136C72.7725 35.152 72.1405 35.168 71.6765 35.184V37.248C71.6765 37.728 71.7165 38.04 71.7965 38.184C71.8765 38.328 72.0445 38.408 72.3005 38.424C72.7005 38.44 73.2045 38.448 73.8125 38.448C74.4205 38.448 75.0525 38.44 75.7085 38.424C76.3645 38.408 76.9725 38.392 77.5325 38.376C78.1085 38.344 78.5485 38.32 78.8525 38.304C79.7165 38.272 80.4685 38.232 81.1085 38.184C81.7645 38.12 82.2925 38.048 82.6925 37.968C82.8525 37.936 82.9565 37.944 83.0045 37.992C83.0525 38.024 83.0845 38.08 83.1005 38.16L83.1965 39.168C83.2125 39.264 83.1885 39.328 83.1245 39.36C83.0605 39.392 82.9165 39.408 82.6925 39.408C80.9805 39.408 79.1725 39.432 77.2685 39.48C75.3805 39.528 73.5165 39.568 71.6765 39.6ZM67.5245 45.576C67.3485 45.592 67.2285 45.576 67.1645 45.528C67.1005 45.48 67.0525 45.408 67.0205 45.312C66.9565 45.136 66.9005 44.96 66.8525 44.784C66.8045 44.592 66.7485 44.36 66.6845 44.088C66.6685 44.056 66.6765 44.016 66.7085 43.968C66.7405 43.904 66.7965 43.88 66.8765 43.896C67.4845 43.976 68.3085 44.032 69.3485 44.064C70.4045 44.08 71.5645 44.088 72.8285 44.088C74.0605 44.088 75.3405 44.072 76.6685 44.04C77.9965 44.008 79.2765 43.968 80.5085 43.92C81.7405 43.872 82.8365 43.808 83.7965 43.728C84.7725 43.648 85.5245 43.56 86.0525 43.464C86.2125 43.432 86.3165 43.44 86.3645 43.488C86.4125 43.536 86.4445 43.6 86.4605 43.68L86.6045 44.832C86.6045 44.912 86.5805 44.984 86.5325 45.048C86.4845 45.112 86.3565 45.144 86.1485 45.144C85.6045 45.128 84.9725 45.12 84.2525 45.12C83.5325 45.12 82.7645 45.12 81.9485 45.12C79.9485 45.12 78.0125 45.144 76.1405 45.192C74.2685 45.224 72.5885 45.272 71.1005 45.336C69.6125 45.4 68.4205 45.48 67.5245 45.576Z" fill="white"/>
<path d="M119 5L114 1V5H119Z" fill="#D9D9D9"/>
<path d="M35.5133 142.402C35.4933 142.352 35.5033 142.312 35.5433 142.282C35.9633 142.022 36.4083 141.827 36.8783 141.697C37.3483 141.557 37.8033 141.487 38.2433 141.487C39.8933 141.487 40.7183 142.312 40.7183 143.962V147.502C40.7183 147.672 40.7633 147.792 40.8533 147.862C40.9433 147.922 41.0533 147.952 41.1833 147.952C41.2233 147.952 41.2433 147.982 41.2433 148.042L41.1683 148.702C41.1683 148.742 41.1433 148.762 41.0933 148.762C40.8133 148.762 40.5533 148.687 40.3133 148.537C40.0733 148.387 39.9133 148.157 39.8333 147.847C39.5533 148.177 39.1983 148.427 38.7683 148.597C38.3483 148.757 37.9183 148.837 37.4783 148.837C37.1083 148.837 36.7483 148.767 36.3983 148.627C36.0583 148.487 35.7783 148.257 35.5583 147.937C35.3483 147.617 35.2433 147.187 35.2433 146.647C35.2433 146.017 35.4433 145.527 35.8433 145.177C36.2433 144.827 36.7883 144.587 37.4783 144.457C38.1683 144.317 38.9383 144.247 39.7883 144.247V143.992C39.7883 143.382 39.6433 142.952 39.3533 142.702C39.0733 142.442 38.6683 142.312 38.1383 142.312C37.7983 142.312 37.4333 142.372 37.0433 142.492C36.6633 142.612 36.3133 142.787 35.9933 143.017C35.9433 143.067 35.9033 143.062 35.8733 143.002L35.5133 142.402ZM39.7883 146.512V145.072C39.7383 145.062 39.6833 145.057 39.6233 145.057C39.5733 145.057 39.5183 145.057 39.4583 145.057C38.8483 145.057 38.2933 145.107 37.7933 145.207C37.3033 145.297 36.9133 145.462 36.6233 145.702C36.3333 145.932 36.1883 146.257 36.1883 146.677C36.1883 147.157 36.3333 147.497 36.6233 147.697C36.9233 147.897 37.2583 147.997 37.6283 147.997C38.0583 147.997 38.4783 147.877 38.8883 147.637C39.3083 147.397 39.6083 147.022 39.7883 146.512ZM44.0403 148.537C44.0403 148.587 44.0153 148.612 43.9653 148.612H43.1853C43.1353 148.612 43.1103 148.587 43.1103 148.537V141.787C43.1103 141.737 43.1353 141.712 43.1853 141.712H43.9653C44.0153 141.712 44.0403 141.737 44.0403 141.787V148.537ZM43.5903 139.987C43.3503 139.987 43.1503 139.912 42.9903 139.762C42.8303 139.612 42.7503 139.432 42.7503 139.222C42.7503 138.992 42.8303 138.802 42.9903 138.652C43.1503 138.492 43.3503 138.412 43.5903 138.412C43.8203 138.412 44.0103 138.492 44.1603 138.652C44.3203 138.802 44.4003 138.992 44.4003 139.222C44.4003 139.432 44.3203 139.612 44.1603 139.762C44.0103 139.912 43.8203 139.987 43.5903 139.987ZM56.5509 137.362L51.6309 150.112H50.8509L55.7559 137.362H56.5509ZM64.0745 141.787L64.1795 142.342C64.4395 142.142 64.7495 141.952 65.1095 141.772C65.4795 141.582 65.8845 141.487 66.3245 141.487C67.2445 141.487 67.9795 141.797 68.5295 142.417C69.0795 143.037 69.3595 143.917 69.3695 145.057C69.3795 146.207 69.1195 147.127 68.5895 147.817C68.0595 148.497 67.3345 148.837 66.4145 148.837C65.9445 148.837 65.5295 148.752 65.1695 148.582C64.8195 148.402 64.5295 148.197 64.2995 147.967V151.462C64.2995 151.512 64.2745 151.537 64.2245 151.537H63.4445C63.3945 151.537 63.3695 151.512 63.3695 151.462V141.787C63.3695 141.737 63.3945 141.712 63.4445 141.712H63.9995C64.0295 141.712 64.0545 141.737 64.0745 141.787ZM64.2995 146.542C64.4195 146.912 64.6495 147.242 64.9895 147.532C65.3295 147.822 65.7595 147.967 66.2795 147.967C66.9195 147.967 67.4345 147.722 67.8245 147.232C68.2245 146.732 68.4245 146.027 68.4245 145.117C68.4245 144.237 68.2445 143.557 67.8845 143.077C67.5245 142.597 66.9795 142.357 66.2495 142.357C65.8695 142.357 65.5145 142.447 65.1845 142.627C64.8545 142.797 64.5595 143.012 64.2995 143.272V146.542ZM75.1653 143.077C75.1153 143.107 75.0753 143.107 75.0453 143.077C74.9153 142.877 74.6953 142.702 74.3853 142.552C74.0853 142.392 73.7303 142.312 73.3203 142.312C73.0503 142.312 72.7903 142.347 72.5403 142.417C72.2903 142.487 72.0853 142.602 71.9253 142.762C71.7653 142.922 71.6853 143.132 71.6853 143.392C71.6853 143.702 71.8253 143.947 72.1053 144.127C72.3853 144.307 72.8753 144.472 73.5753 144.622C74.2353 144.762 74.7753 144.997 75.1953 145.327C75.6153 145.657 75.8253 146.112 75.8253 146.692C75.8253 147.182 75.6953 147.587 75.4353 147.907C75.1853 148.217 74.8553 148.452 74.4453 148.612C74.0453 148.762 73.6253 148.837 73.1853 148.837C72.5653 148.837 72.0003 148.712 71.4903 148.462C70.9803 148.212 70.6253 147.837 70.4253 147.337C70.4053 147.287 70.4203 147.247 70.4703 147.217L71.0853 146.887C71.1053 146.877 71.1303 146.872 71.1603 146.872C71.1903 146.872 71.2103 146.892 71.2203 146.932C71.3803 147.282 71.6403 147.552 72.0003 147.742C72.3703 147.922 72.7603 148.012 73.1703 148.012C73.6403 148.012 74.0403 147.917 74.3703 147.727C74.7103 147.527 74.8803 147.212 74.8803 146.782C74.8803 146.312 74.7103 145.987 74.3703 145.807C74.0303 145.617 73.5903 145.472 73.0503 145.372C72.3603 145.242 71.8003 145.022 71.3703 144.712C70.9503 144.402 70.7403 143.962 70.7403 143.392C70.7403 142.942 70.8653 142.577 71.1153 142.297C71.3653 142.017 71.6853 141.812 72.0753 141.682C72.4753 141.552 72.8853 141.487 73.3053 141.487C73.8553 141.487 74.3253 141.577 74.7153 141.757C75.1153 141.937 75.4353 142.177 75.6753 142.477C75.7053 142.517 75.7003 142.562 75.6603 142.612L75.1653 143.077Z" fill="#B77126"/>
</svg>
