<svg width="118" height="168" viewBox="0 0 117 167" fill="none" xmlns="http://www.w3.org/2000/svg">
<rect x="10" y="4" width="107" height="163" fill="#417497"/>
<rect x="9" y="4" width="107" height="163" fill="#D9D9D9"/>
<rect width="111" height="167" fill="#81A6C0"/>
<path d="M36.5668 41.904C36.5348 41.904 36.4948 41.896 36.4468 41.88C36.3988 41.864 36.3748 41.816 36.3748 41.736C36.3748 41.72 36.3748 41.68 36.3748 41.616C36.3748 41.504 36.3748 41.296 36.3748 40.992C36.3908 40.688 36.3988 40.224 36.3988 39.6C36.3988 38.96 36.3908 38.12 36.3748 37.08C36.3748 36.04 36.3668 34.728 36.3508 33.144C36.3508 32.712 36.3188 32.28 36.2548 31.848C36.1908 31.4 36.1348 31.096 36.0868 30.936C36.0388 30.792 36.0948 30.72 36.2548 30.72C36.3348 30.72 36.4788 30.728 36.6868 30.744C36.9108 30.744 37.1268 30.752 37.3348 30.768C37.5428 30.768 37.6628 30.768 37.6948 30.768C37.7748 30.8 37.8148 30.872 37.8148 30.984C37.7988 31.4 37.7828 31.824 37.7668 32.256C37.7668 32.672 37.7668 33.088 37.7668 33.504V34.728C38.1508 34.728 38.6628 34.728 39.3028 34.728C39.9588 34.712 40.6308 34.696 41.3188 34.68C42.0068 34.648 42.5988 34.616 43.0948 34.584V32.784C43.0948 31.616 43.0068 30.872 42.8308 30.552C42.7988 30.472 42.7988 30.416 42.8308 30.384C42.8788 30.336 42.9348 30.312 42.9988 30.312L44.4388 30.336C44.5188 30.368 44.5588 30.448 44.5588 30.576C44.5588 30.992 44.5508 31.336 44.5348 31.608C44.5348 31.864 44.5268 32.112 44.5108 32.352C44.5108 32.592 44.5108 32.904 44.5108 33.288V41.352C44.5108 41.464 44.4628 41.544 44.3668 41.592C44.2868 41.64 44.2068 41.664 44.1268 41.664C43.5188 41.664 42.8308 41.672 42.0628 41.688C41.3108 41.688 40.5668 41.696 39.8308 41.712C39.0948 41.728 38.4468 41.752 37.8868 41.784C37.7908 41.784 37.6388 41.792 37.4308 41.808C37.2388 41.824 37.0548 41.848 36.8788 41.88C36.7028 41.896 36.5988 41.904 36.5668 41.904ZM51.4468 48.24C51.3828 48.24 51.3508 48.2 51.3508 48.12V37.584C50.8548 37.584 50.3428 37.592 49.8148 37.608C49.2868 37.608 48.8308 37.624 48.4468 37.656V47.016C48.4468 47.24 48.4308 47.384 48.3988 47.448C48.3828 47.496 48.3348 47.528 48.2548 47.544C48.1588 47.56 47.9588 47.576 47.6548 47.592C47.3668 47.608 47.1828 47.616 47.1028 47.616C47.0388 47.616 47.0068 47.576 47.0068 47.496V31.392C47.0068 30.784 46.9908 30.224 46.9588 29.712C46.9268 29.2 46.8708 28.864 46.7908 28.704C46.7588 28.624 46.7588 28.568 46.7908 28.536C46.8388 28.488 46.8948 28.464 46.9588 28.464L48.3748 28.488C48.4548 28.52 48.4948 28.584 48.4948 28.68C48.4628 29.144 48.4468 29.56 48.4468 29.928C48.4468 30.296 48.4468 30.68 48.4468 31.08C48.4468 31.176 48.4468 31.28 48.4468 31.392C48.4468 31.504 48.4468 31.624 48.4468 31.752V36.288C48.5268 36.288 48.6068 36.288 48.6868 36.288C48.7668 36.288 48.8468 36.288 48.9268 36.288C49.2948 36.288 49.6868 36.288 50.1028 36.288C50.5348 36.288 50.9508 36.272 51.3508 36.24V30.768C51.3508 30.16 51.3348 29.6 51.3028 29.088C51.2868 28.576 51.2388 28.24 51.1588 28.08C51.1268 28 51.1268 27.944 51.1588 27.912C51.2068 27.864 51.2628 27.84 51.3268 27.84L52.7428 27.864C52.8228 27.896 52.8628 27.96 52.8628 28.056C52.8308 28.536 52.8068 28.968 52.7908 29.352C52.7908 29.736 52.7908 30.136 52.7908 30.552C52.7908 30.648 52.7908 30.744 52.7908 30.84C52.7908 30.936 52.7908 31.032 52.7908 31.128V47.64C52.7908 47.88 52.7748 48.024 52.7428 48.072C52.7268 48.12 52.6788 48.152 52.5988 48.168C52.5508 48.168 52.4388 48.168 52.2628 48.168C52.1028 48.184 51.9428 48.2 51.7828 48.216C51.6228 48.232 51.5108 48.24 51.4468 48.24ZM37.7908 40.44C38.0468 40.456 38.8308 40.456 40.1428 40.44C41.4708 40.408 42.4548 40.36 43.0948 40.296V35.952C42.8068 35.952 42.4148 35.952 41.9188 35.952C41.4388 35.952 40.9268 35.96 40.3828 35.976C39.8388 35.976 39.3348 35.984 38.8708 36C38.4068 36.016 38.0388 36.032 37.7668 36.048L37.7908 40.44ZM72.2224 48.24C72.1584 48.24 72.1264 48.2 72.1264 48.12V35.304L69.2464 35.4C68.8624 35.432 68.4224 35.472 67.9264 35.52C67.4464 35.552 67.0144 35.592 66.6304 35.64C66.4544 35.672 66.3344 35.664 66.2704 35.616C66.2064 35.568 66.1584 35.496 66.1264 35.4C66.0624 35.192 66.0144 34.992 65.9824 34.8C65.9504 34.592 65.9184 34.416 65.8864 34.272C65.8544 34.144 65.9184 34.096 66.0784 34.128C66.2864 34.16 66.6304 34.184 67.1104 34.2C67.6064 34.2 68.1584 34.2 68.7664 34.2C69.3904 34.184 69.9984 34.168 70.5904 34.152C71.1824 34.12 71.6944 34.088 72.1264 34.056V30.792C72.1264 30.184 72.1024 29.624 72.0544 29.112C72.0224 28.584 71.9664 28.24 71.8864 28.08C71.8544 28 71.8544 27.944 71.8864 27.912C71.9344 27.864 71.9904 27.84 72.0544 27.84C72.1504 27.84 72.3104 27.848 72.5344 27.864C72.7744 27.864 73.0064 27.872 73.2304 27.888C73.4544 27.888 73.5824 27.888 73.6144 27.888C73.6944 27.888 73.7344 27.952 73.7344 28.08C73.6864 28.672 73.6544 29.192 73.6384 29.64C73.6384 30.072 73.6384 30.576 73.6384 31.152V47.64C73.6384 47.88 73.6224 48.024 73.5904 48.072C73.5744 48.12 73.5264 48.152 73.4464 48.168L72.2224 48.24ZM59.7904 42.744C59.3424 42.744 59.0384 42.528 58.8784 42.096C58.7184 41.664 58.6384 41.2 58.6384 40.704V32.64C58.6384 32.208 58.6064 31.776 58.5424 31.344C58.4944 30.912 58.4464 30.616 58.3984 30.456C58.3504 30.296 58.4064 30.216 58.5664 30.216C58.6464 30.216 58.8064 30.232 59.0464 30.264C59.2864 30.28 59.5184 30.304 59.7424 30.336C59.9824 30.352 60.1184 30.36 60.1504 30.36C60.2144 30.376 60.2384 30.432 60.2224 30.528C60.2224 30.56 60.2224 30.584 60.2224 30.6C60.1904 31.016 60.1664 31.424 60.1504 31.824C60.1504 32.224 60.1504 32.656 60.1504 33.12L60.1264 39.936C60.1264 39.984 60.1264 40.056 60.1264 40.152C60.1264 40.424 60.1424 40.672 60.1744 40.896C60.2224 41.12 60.3904 41.232 60.6784 41.232C61.4304 41.232 62.3024 41.192 63.2944 41.112C64.2864 41.016 65.3024 40.872 66.3424 40.68C67.3984 40.472 68.3744 40.208 69.2704 39.888C69.3984 39.84 69.4784 39.88 69.5104 40.008L69.6304 40.848C69.6624 41.056 69.5824 41.192 69.3904 41.256C68.5424 41.512 67.5744 41.752 66.4864 41.976C65.3984 42.2 64.2784 42.384 63.1264 42.528C61.9744 42.672 60.8624 42.744 59.7904 42.744Z" fill="white"/>
<path d="M35.4813 142.402C35.4613 142.352 35.4713 142.312 35.5113 142.282C35.9313 142.022 36.3763 141.827 36.8463 141.697C37.3163 141.557 37.7713 141.487 38.2113 141.487C39.8613 141.487 40.6863 142.312 40.6863 143.962V147.502C40.6863 147.672 40.7313 147.792 40.8213 147.862C40.9113 147.922 41.0213 147.952 41.1513 147.952C41.1913 147.952 41.2113 147.982 41.2113 148.042L41.1363 148.702C41.1363 148.742 41.1113 148.762 41.0613 148.762C40.7813 148.762 40.5213 148.687 40.2813 148.537C40.0413 148.387 39.8813 148.157 39.8013 147.847C39.5213 148.177 39.1663 148.427 38.7363 148.597C38.3163 148.757 37.8863 148.837 37.4463 148.837C37.0763 148.837 36.7163 148.767 36.3663 148.627C36.0263 148.487 35.7463 148.257 35.5263 147.937C35.3163 147.617 35.2113 147.187 35.2113 146.647C35.2113 146.017 35.4113 145.527 35.8113 145.177C36.2113 144.827 36.7563 144.587 37.4463 144.457C38.1363 144.317 38.9063 144.247 39.7563 144.247V143.992C39.7563 143.382 39.6113 142.952 39.3213 142.702C39.0413 142.442 38.6363 142.312 38.1063 142.312C37.7663 142.312 37.4013 142.372 37.0113 142.492C36.6313 142.612 36.2813 142.787 35.9613 143.017C35.9113 143.067 35.8713 143.062 35.8413 143.002L35.4813 142.402ZM39.7563 146.512V145.072C39.7063 145.062 39.6513 145.057 39.5913 145.057C39.5413 145.057 39.4863 145.057 39.4263 145.057C38.8163 145.057 38.2613 145.107 37.7613 145.207C37.2713 145.297 36.8813 145.462 36.5913 145.702C36.3013 145.932 36.1563 146.257 36.1563 146.677C36.1563 147.157 36.3013 147.497 36.5913 147.697C36.8913 147.897 37.2263 147.997 37.5963 147.997C38.0263 147.997 38.4463 147.877 38.8563 147.637C39.2763 147.397 39.5763 147.022 39.7563 146.512ZM44.0084 148.537C44.0084 148.587 43.9834 148.612 43.9334 148.612H43.1534C43.1034 148.612 43.0784 148.587 43.0784 148.537V141.787C43.0784 141.737 43.1034 141.712 43.1534 141.712H43.9334C43.9834 141.712 44.0084 141.737 44.0084 141.787V148.537ZM43.5584 139.987C43.3184 139.987 43.1184 139.912 42.9584 139.762C42.7984 139.612 42.7184 139.432 42.7184 139.222C42.7184 138.992 42.7984 138.802 42.9584 138.652C43.1184 138.492 43.3184 138.412 43.5584 138.412C43.7884 138.412 43.9784 138.492 44.1284 138.652C44.2884 138.802 44.3684 138.992 44.3684 139.222C44.3684 139.432 44.2884 139.612 44.1284 139.762C43.9784 139.912 43.7884 139.987 43.5584 139.987ZM56.5189 137.362L51.5989 150.112H50.8189L55.7239 137.362H56.5189ZM64.0425 141.787L64.1475 142.342C64.4075 142.142 64.7175 141.952 65.0775 141.772C65.4475 141.582 65.8525 141.487 66.2925 141.487C67.2125 141.487 67.9475 141.797 68.4975 142.417C69.0475 143.037 69.3275 143.917 69.3375 145.057C69.3475 146.207 69.0875 147.127 68.5575 147.817C68.0275 148.497 67.3025 148.837 66.3825 148.837C65.9125 148.837 65.4975 148.752 65.1375 148.582C64.7875 148.402 64.4975 148.197 64.2675 147.967V151.462C64.2675 151.512 64.2425 151.537 64.1925 151.537H63.4125C63.3625 151.537 63.3375 151.512 63.3375 151.462V141.787C63.3375 141.737 63.3625 141.712 63.4125 141.712H63.9675C63.9975 141.712 64.0225 141.737 64.0425 141.787ZM64.2675 146.542C64.3875 146.912 64.6175 147.242 64.9575 147.532C65.2975 147.822 65.7275 147.967 66.2475 147.967C66.8875 147.967 67.4025 147.722 67.7925 147.232C68.1925 146.732 68.3925 146.027 68.3925 145.117C68.3925 144.237 68.2125 143.557 67.8525 143.077C67.4925 142.597 66.9475 142.357 66.2175 142.357C65.8375 142.357 65.4825 142.447 65.1525 142.627C64.8225 142.797 64.5275 143.012 64.2675 143.272V146.542ZM75.1334 143.077C75.0834 143.107 75.0434 143.107 75.0134 143.077C74.8834 142.877 74.6634 142.702 74.3534 142.552C74.0534 142.392 73.6984 142.312 73.2884 142.312C73.0184 142.312 72.7584 142.347 72.5084 142.417C72.2584 142.487 72.0534 142.602 71.8934 142.762C71.7334 142.922 71.6534 143.132 71.6534 143.392C71.6534 143.702 71.7934 143.947 72.0734 144.127C72.3534 144.307 72.8434 144.472 73.5434 144.622C74.2034 144.762 74.7434 144.997 75.1634 145.327C75.5834 145.657 75.7934 146.112 75.7934 146.692C75.7934 147.182 75.6634 147.587 75.4034 147.907C75.1534 148.217 74.8234 148.452 74.4134 148.612C74.0134 148.762 73.5934 148.837 73.1534 148.837C72.5334 148.837 71.9684 148.712 71.4584 148.462C70.9484 148.212 70.5934 147.837 70.3934 147.337C70.3734 147.287 70.3884 147.247 70.4384 147.217L71.0534 146.887C71.0734 146.877 71.0984 146.872 71.1284 146.872C71.1584 146.872 71.1784 146.892 71.1884 146.932C71.3484 147.282 71.6084 147.552 71.9684 147.742C72.3384 147.922 72.7284 148.012 73.1384 148.012C73.6084 148.012 74.0084 147.917 74.3384 147.727C74.6784 147.527 74.8484 147.212 74.8484 146.782C74.8484 146.312 74.6784 145.987 74.3384 145.807C73.9984 145.617 73.5584 145.472 73.0184 145.372C72.3284 145.242 71.7684 145.022 71.3384 144.712C70.9184 144.402 70.7084 143.962 70.7084 143.392C70.7084 142.942 70.8334 142.577 71.0834 142.297C71.3334 142.017 71.6534 141.812 72.0434 141.682C72.4434 141.552 72.8534 141.487 73.2734 141.487C73.8234 141.487 74.2934 141.577 74.6834 141.757C75.0834 141.937 75.4034 142.177 75.6434 142.477C75.6734 142.517 75.6684 142.562 75.6284 142.612L75.1334 143.077Z" fill="#415360"/>
<line x1="31.5" y1="60.1953" x2="78.5" y2="60.1953" stroke="white"/>
</svg>
