<svg width="117" height="167" viewBox="0 0 117 167" fill="none" xmlns="http://www.w3.org/2000/svg">
<rect x="10" y="4" width="107" height="163" fill="#417497"/>
<rect x="9" y="4" width="107" height="163" fill="#D9D9D9"/>
<rect width="111" height="167" fill="#81A6C0"/>
<path d="M30.6341 40.8C29.6581 40.816 28.7621 40.616 27.9461 40.2C27.1301 39.784 26.4741 39.192 25.9781 38.424C25.4981 37.64 25.2581 36.744 25.2581 35.736C25.2581 34.76 25.4981 33.888 25.9781 33.12C26.4581 32.336 27.1061 31.712 27.9221 31.248C28.7541 30.768 29.6661 30.52 30.6581 30.504C31.6501 30.472 32.5461 30.648 33.3461 31.032C34.1621 31.416 34.8101 31.984 35.2901 32.736C35.7701 33.488 36.0101 34.416 36.0101 35.52C36.0101 36.512 35.7701 37.4 35.2901 38.184C34.8101 38.968 34.1621 39.592 33.3461 40.056C32.5301 40.52 31.6261 40.768 30.6341 40.8ZM30.6581 39.432C31.3621 39.4 32.0021 39.224 32.5781 38.904C33.1541 38.568 33.6101 38.112 33.9461 37.536C34.2981 36.944 34.4741 36.28 34.4741 35.544C34.4741 34.728 34.2981 34.032 33.9461 33.456C33.6101 32.88 33.1541 32.448 32.5781 32.16C32.0021 31.856 31.3621 31.72 30.6581 31.752C29.9541 31.768 29.3061 31.952 28.7141 32.304C28.1221 32.64 27.6501 33.104 27.2981 33.696C26.9461 34.272 26.7701 34.944 26.7701 35.712C26.7701 36.512 26.9461 37.192 27.2981 37.752C27.6661 38.312 28.1461 38.736 28.7381 39.024C29.3301 39.312 29.9701 39.448 30.6581 39.432ZM40.0661 48.24C40.0021 48.24 39.9701 48.2 39.9701 48.12V30.792C39.9701 30.184 39.9461 29.624 39.8981 29.112C39.8661 28.584 39.8101 28.24 39.7301 28.08C39.6981 28 39.6981 27.944 39.7301 27.912C39.7781 27.864 39.8341 27.84 39.8981 27.84C39.9941 27.84 40.1541 27.848 40.3781 27.864C40.6181 27.864 40.8501 27.872 41.0741 27.888C41.2981 27.888 41.4261 27.888 41.4581 27.888C41.5381 27.888 41.5781 27.952 41.5781 28.08C41.5301 28.672 41.4981 29.192 41.4821 29.64C41.4821 30.072 41.4821 30.576 41.4821 31.152V47.64C41.4821 47.88 41.4661 48.024 41.4341 48.072C41.4181 48.12 41.3701 48.152 41.2901 48.168L40.0661 48.24ZM57.8769 42.84C57.8129 42.84 57.7809 42.8 57.7809 42.72V35.688C57.1249 35.704 56.5249 35.736 55.9809 35.784C55.4369 35.816 54.9249 35.848 54.4449 35.88L54.4209 39.768C54.4209 39.976 54.2929 40.08 54.0369 40.08C53.0929 40.096 52.0849 40.112 51.0129 40.128C49.9409 40.144 48.9729 40.168 48.1089 40.2C48.0129 40.2 47.8609 40.208 47.6529 40.224C47.4609 40.24 47.2689 40.264 47.0769 40.296C46.9009 40.312 46.7969 40.32 46.7649 40.32C46.7329 40.32 46.6929 40.312 46.6449 40.296C46.5969 40.28 46.5729 40.232 46.5729 40.152C46.5729 40.136 46.5729 40.112 46.5729 40.08C46.5729 40.016 46.5729 39.896 46.5729 39.72C46.5889 39.544 46.5969 39.216 46.5969 38.736C46.5969 38.24 46.5889 37.504 46.5729 36.528C46.5729 35.536 46.5649 34.216 46.5489 32.568C46.5489 32.136 46.5169 31.696 46.4529 31.248C46.3889 30.8 46.3329 30.496 46.2849 30.336C46.2369 30.176 46.2929 30.096 46.4529 30.096L47.7969 30.12C47.9249 30.12 47.9889 30.208 47.9889 30.384C47.9729 30.8 47.9649 31.232 47.9649 31.68C47.9649 32.112 47.9649 32.536 47.9649 32.952V33.744C48.3489 33.744 48.8369 33.744 49.4289 33.744C50.0369 33.728 50.6609 33.712 51.3009 33.696C51.9409 33.664 52.5089 33.632 53.0049 33.6L53.0289 32.256C53.0449 31.648 53.0209 31.16 52.9569 30.792C52.9089 30.424 52.8449 30.16 52.7649 30C52.7329 29.92 52.7329 29.864 52.7649 29.832C52.8129 29.784 52.8689 29.76 52.9329 29.76C53.0289 29.76 53.1729 29.76 53.3649 29.76C53.5729 29.76 53.7729 29.76 53.9649 29.76C54.1729 29.76 54.3169 29.768 54.3969 29.784C54.4929 29.784 54.5409 29.864 54.5409 30.024C54.5249 30.424 54.5089 30.816 54.4929 31.2C54.4769 31.584 54.4689 32.056 54.4689 32.616L54.4449 34.632C54.9569 34.664 55.5089 34.672 56.1009 34.656C56.6929 34.624 57.2529 34.592 57.7809 34.56V30.888C57.7809 29.624 57.7089 28.808 57.5649 28.44C57.5329 28.36 57.5329 28.304 57.5649 28.272C57.6129 28.224 57.6689 28.2 57.7329 28.2L59.1489 28.224C59.2289 28.224 59.2689 28.296 59.2689 28.44C59.2369 28.952 59.2209 29.376 59.2209 29.712C59.2209 30.048 59.2209 30.4 59.2209 30.768C59.2209 30.88 59.2209 30.992 59.2209 31.104C59.2209 31.2 59.2209 31.312 59.2209 31.44V42.264C59.2209 42.504 59.2049 42.648 59.1729 42.696C59.1569 42.744 59.1089 42.776 59.0289 42.792L57.8769 42.84ZM53.1009 49.2C52.5889 49.2 52.1969 49.008 51.9249 48.624C51.6689 48.256 51.5409 47.728 51.5409 47.04V44.904C51.5409 44.344 51.5169 43.88 51.4689 43.512C51.4209 43.144 51.3729 42.88 51.3249 42.72C51.2769 42.56 51.3329 42.48 51.4929 42.48C51.5889 42.48 51.7489 42.488 51.9729 42.504C52.2129 42.504 52.4369 42.512 52.6449 42.528C52.8689 42.544 52.9889 42.552 53.0049 42.552C53.0849 42.552 53.1249 42.632 53.1249 42.792C53.0929 43.16 53.0689 43.488 53.0529 43.776C53.0529 44.048 53.0529 44.392 53.0529 44.808V46.896C53.0529 47.296 53.1009 47.576 53.1969 47.736C53.3089 47.88 53.4849 47.96 53.7249 47.976C54.1729 47.992 54.7489 48 55.4529 48C56.1729 48.016 56.9169 48.016 57.6849 48C58.4529 47.968 59.1569 47.936 59.7969 47.904C60.4689 47.872 61.1649 47.816 61.8849 47.736C62.6049 47.64 63.1569 47.544 63.5409 47.448C63.7009 47.416 63.8049 47.424 63.8529 47.472C63.9009 47.52 63.9329 47.584 63.9489 47.664L64.1409 48.792C64.1409 48.872 64.1169 48.936 64.0689 48.984C64.0369 49.032 63.9089 49.056 63.6849 49.056C62.1009 49.056 60.4049 49.08 58.5969 49.128C56.8049 49.176 54.9729 49.2 53.1009 49.2ZM61.5249 43.56C61.4609 43.56 61.4289 43.52 61.4289 43.44V30.288C61.4289 29.104 61.3649 28.368 61.2369 28.08C61.2049 28 61.2049 27.944 61.2369 27.912C61.2849 27.864 61.3409 27.84 61.4049 27.84L62.8449 27.864C62.9089 27.864 62.9409 27.928 62.9409 28.056C62.9409 28.072 62.9409 28.088 62.9409 28.104C62.9249 28.536 62.9089 28.904 62.8929 29.208C62.8769 29.512 62.8689 29.808 62.8689 30.096C62.8689 30.368 62.8689 30.696 62.8689 31.08V42.984C62.8689 43.224 62.8529 43.368 62.8209 43.416C62.8049 43.464 62.7569 43.496 62.6769 43.512L61.5249 43.56ZM47.9889 38.952C48.3569 38.984 49.0929 38.984 50.1969 38.952C51.3649 38.92 52.2929 38.872 52.9809 38.808L53.0049 34.848C52.5249 34.848 51.9489 34.856 51.2769 34.872C50.6209 34.872 49.9889 34.88 49.3809 34.896C48.7729 34.896 48.3009 34.912 47.9649 34.944L47.9889 38.952ZM71.6445 39.6C71.0845 39.616 70.6925 39.464 70.4685 39.144C70.2445 38.824 70.1325 38.28 70.1325 37.512V32.496C70.1325 31.936 70.0925 31.456 70.0125 31.056C69.9325 30.64 69.8525 30.352 69.7725 30.192C69.7245 30.096 69.7165 30.016 69.7485 29.952C69.7965 29.872 69.8525 29.832 69.9165 29.832C70.0285 29.832 70.2285 29.84 70.5165 29.856C70.8205 29.872 71.1405 29.888 71.4765 29.904C72.0045 29.92 72.6445 29.928 73.3965 29.928C74.1485 29.912 74.9485 29.888 75.7965 29.856C76.6605 29.824 77.5085 29.792 78.3405 29.76C79.2845 29.728 80.1005 29.688 80.7885 29.64C81.4925 29.576 82.0525 29.52 82.4685 29.472C82.5165 29.472 82.5725 29.48 82.6365 29.496C82.7005 29.512 82.7405 29.56 82.7565 29.64L82.8525 30.264C82.8685 30.328 82.8765 30.384 82.8765 30.432C82.8765 30.48 82.8765 30.536 82.8765 30.6C82.8925 30.68 82.8765 30.744 82.8285 30.792C82.7805 30.856 82.7005 30.888 82.5885 30.888C82.1405 30.888 81.7005 30.888 81.2685 30.888C80.8365 30.888 80.3885 30.896 79.9245 30.912L71.6445 31.104V34.008C72.5725 34.024 73.5805 34.024 74.6685 34.008C75.7565 33.992 76.8125 33.968 77.8365 33.936C78.8765 33.888 79.7965 33.84 80.5965 33.792C81.3965 33.728 81.9645 33.672 82.3005 33.624C82.4765 33.592 82.5805 33.6 82.6125 33.648C82.6445 33.68 82.6685 33.736 82.6845 33.816C82.6845 33.832 82.6845 33.84 82.6845 33.84L82.7565 34.728C82.7725 34.808 82.7565 34.872 82.7085 34.92C82.6765 34.952 82.5565 34.968 82.3485 34.968C82.1725 34.968 81.7645 34.976 81.1245 34.992C80.5005 34.992 79.7485 35 78.8685 35.016C77.9885 35.032 77.0845 35.048 76.1565 35.064C75.2285 35.08 74.3565 35.104 73.5405 35.136C72.7405 35.152 72.1085 35.168 71.6445 35.184V37.248C71.6445 37.728 71.6845 38.04 71.7645 38.184C71.8445 38.328 72.0125 38.408 72.2685 38.424C72.6685 38.44 73.1725 38.448 73.7805 38.448C74.3885 38.448 75.0205 38.44 75.6765 38.424C76.3325 38.408 76.9405 38.392 77.5005 38.376C78.0765 38.344 78.5165 38.32 78.8205 38.304C79.6845 38.272 80.4365 38.232 81.0765 38.184C81.7325 38.12 82.2605 38.048 82.6605 37.968C82.8205 37.936 82.9245 37.944 82.9725 37.992C83.0205 38.024 83.0525 38.08 83.0685 38.16L83.1645 39.168C83.1805 39.264 83.1565 39.328 83.0925 39.36C83.0285 39.392 82.8845 39.408 82.6605 39.408C80.9485 39.408 79.1405 39.432 77.2365 39.48C75.3485 39.528 73.4845 39.568 71.6445 39.6ZM67.4925 45.576C67.3165 45.592 67.1965 45.576 67.1325 45.528C67.0685 45.48 67.0205 45.408 66.9885 45.312C66.9245 45.136 66.8685 44.96 66.8205 44.784C66.7725 44.592 66.7165 44.36 66.6525 44.088C66.6365 44.056 66.6445 44.016 66.6765 43.968C66.7085 43.904 66.7645 43.88 66.8445 43.896C67.4525 43.976 68.2765 44.032 69.3165 44.064C70.3725 44.08 71.5325 44.088 72.7965 44.088C74.0285 44.088 75.3085 44.072 76.6365 44.04C77.9645 44.008 79.2445 43.968 80.4765 43.92C81.7085 43.872 82.8045 43.808 83.7645 43.728C84.7405 43.648 85.4925 43.56 86.0205 43.464C86.1805 43.432 86.2845 43.44 86.3325 43.488C86.3805 43.536 86.4125 43.6 86.4285 43.68L86.5725 44.832C86.5725 44.912 86.5485 44.984 86.5005 45.048C86.4525 45.112 86.3245 45.144 86.1165 45.144C85.5725 45.128 84.9405 45.12 84.2205 45.12C83.5005 45.12 82.7325 45.12 81.9165 45.12C79.9165 45.12 77.9805 45.144 76.1085 45.192C74.2365 45.224 72.5565 45.272 71.0685 45.336C69.5805 45.4 68.3885 45.48 67.4925 45.576Z" fill="white"/>
<path d="M35.4813 142.402C35.4613 142.352 35.4713 142.312 35.5113 142.282C35.9313 142.022 36.3763 141.827 36.8463 141.697C37.3163 141.557 37.7713 141.487 38.2113 141.487C39.8613 141.487 40.6863 142.312 40.6863 143.962V147.502C40.6863 147.672 40.7313 147.792 40.8213 147.862C40.9113 147.922 41.0213 147.952 41.1513 147.952C41.1913 147.952 41.2113 147.982 41.2113 148.042L41.1363 148.702C41.1363 148.742 41.1113 148.762 41.0613 148.762C40.7813 148.762 40.5213 148.687 40.2813 148.537C40.0413 148.387 39.8813 148.157 39.8013 147.847C39.5213 148.177 39.1663 148.427 38.7363 148.597C38.3163 148.757 37.8863 148.837 37.4463 148.837C37.0763 148.837 36.7163 148.767 36.3663 148.627C36.0263 148.487 35.7463 148.257 35.5263 147.937C35.3163 147.617 35.2113 147.187 35.2113 146.647C35.2113 146.017 35.4113 145.527 35.8113 145.177C36.2113 144.827 36.7563 144.587 37.4463 144.457C38.1363 144.317 38.9063 144.247 39.7563 144.247V143.992C39.7563 143.382 39.6113 142.952 39.3213 142.702C39.0413 142.442 38.6363 142.312 38.1063 142.312C37.7663 142.312 37.4013 142.372 37.0113 142.492C36.6313 142.612 36.2813 142.787 35.9613 143.017C35.9113 143.067 35.8713 143.062 35.8413 143.002L35.4813 142.402ZM39.7563 146.512V145.072C39.7063 145.062 39.6513 145.057 39.5913 145.057C39.5413 145.057 39.4863 145.057 39.4263 145.057C38.8163 145.057 38.2613 145.107 37.7613 145.207C37.2713 145.297 36.8813 145.462 36.5913 145.702C36.3013 145.932 36.1563 146.257 36.1563 146.677C36.1563 147.157 36.3013 147.497 36.5913 147.697C36.8913 147.897 37.2263 147.997 37.5963 147.997C38.0263 147.997 38.4463 147.877 38.8563 147.637C39.2763 147.397 39.5763 147.022 39.7563 146.512ZM44.0084 148.537C44.0084 148.587 43.9834 148.612 43.9334 148.612H43.1534C43.1034 148.612 43.0784 148.587 43.0784 148.537V141.787C43.0784 141.737 43.1034 141.712 43.1534 141.712H43.9334C43.9834 141.712 44.0084 141.737 44.0084 141.787V148.537ZM43.5584 139.987C43.3184 139.987 43.1184 139.912 42.9584 139.762C42.7984 139.612 42.7184 139.432 42.7184 139.222C42.7184 138.992 42.7984 138.802 42.9584 138.652C43.1184 138.492 43.3184 138.412 43.5584 138.412C43.7884 138.412 43.9784 138.492 44.1284 138.652C44.2884 138.802 44.3684 138.992 44.3684 139.222C44.3684 139.432 44.2884 139.612 44.1284 139.762C43.9784 139.912 43.7884 139.987 43.5584 139.987ZM56.5189 137.362L51.5989 150.112H50.8189L55.7239 137.362H56.5189ZM64.0425 141.787L64.1475 142.342C64.4075 142.142 64.7175 141.952 65.0775 141.772C65.4475 141.582 65.8525 141.487 66.2925 141.487C67.2125 141.487 67.9475 141.797 68.4975 142.417C69.0475 143.037 69.3275 143.917 69.3375 145.057C69.3475 146.207 69.0875 147.127 68.5575 147.817C68.0275 148.497 67.3025 148.837 66.3825 148.837C65.9125 148.837 65.4975 148.752 65.1375 148.582C64.7875 148.402 64.4975 148.197 64.2675 147.967V151.462C64.2675 151.512 64.2425 151.537 64.1925 151.537H63.4125C63.3625 151.537 63.3375 151.512 63.3375 151.462V141.787C63.3375 141.737 63.3625 141.712 63.4125 141.712H63.9675C63.9975 141.712 64.0225 141.737 64.0425 141.787ZM64.2675 146.542C64.3875 146.912 64.6175 147.242 64.9575 147.532C65.2975 147.822 65.7275 147.967 66.2475 147.967C66.8875 147.967 67.4025 147.722 67.7925 147.232C68.1925 146.732 68.3925 146.027 68.3925 145.117C68.3925 144.237 68.2125 143.557 67.8525 143.077C67.4925 142.597 66.9475 142.357 66.2175 142.357C65.8375 142.357 65.4825 142.447 65.1525 142.627C64.8225 142.797 64.5275 143.012 64.2675 143.272V146.542ZM75.1334 143.077C75.0834 143.107 75.0434 143.107 75.0134 143.077C74.8834 142.877 74.6634 142.702 74.3534 142.552C74.0534 142.392 73.6984 142.312 73.2884 142.312C73.0184 142.312 72.7584 142.347 72.5084 142.417C72.2584 142.487 72.0534 142.602 71.8934 142.762C71.7334 142.922 71.6534 143.132 71.6534 143.392C71.6534 143.702 71.7934 143.947 72.0734 144.127C72.3534 144.307 72.8434 144.472 73.5434 144.622C74.2034 144.762 74.7434 144.997 75.1634 145.327C75.5834 145.657 75.7934 146.112 75.7934 146.692C75.7934 147.182 75.6634 147.587 75.4034 147.907C75.1534 148.217 74.8234 148.452 74.4134 148.612C74.0134 148.762 73.5934 148.837 73.1534 148.837C72.5334 148.837 71.9684 148.712 71.4584 148.462C70.9484 148.212 70.5934 147.837 70.3934 147.337C70.3734 147.287 70.3884 147.247 70.4384 147.217L71.0534 146.887C71.0734 146.877 71.0984 146.872 71.1284 146.872C71.1584 146.872 71.1784 146.892 71.1884 146.932C71.3484 147.282 71.6084 147.552 71.9684 147.742C72.3384 147.922 72.7284 148.012 73.1384 148.012C73.6084 148.012 74.0084 147.917 74.3384 147.727C74.6784 147.527 74.8484 147.212 74.8484 146.782C74.8484 146.312 74.6784 145.987 74.3384 145.807C73.9984 145.617 73.5584 145.472 73.0184 145.372C72.3284 145.242 71.7684 145.022 71.3384 144.712C70.9184 144.402 70.7084 143.962 70.7084 143.392C70.7084 142.942 70.8334 142.577 71.0834 142.297C71.3334 142.017 71.6534 141.812 72.0434 141.682C72.4434 141.552 72.8534 141.487 73.2734 141.487C73.8234 141.487 74.2934 141.577 74.6834 141.757C75.0834 141.937 75.4034 142.177 75.6434 142.477C75.6734 142.517 75.6684 142.562 75.6284 142.612L75.1334 143.077Z" fill="#415360"/>
<line x1="31.5" y1="60.1953" x2="78.5" y2="60.1953" stroke="white"/>
</svg>
