<svg width="118" height="168" viewBox="0 0 118 168" fill="none" xmlns="http://www.w3.org/2000/svg">
<rect x="10.5154" y="4.9248" width="107" height="163" fill="#974528"/>
<rect x="9.51538" y="4.9248" width="107" height="163" fill="#D9D9D9"/>
<rect x="0.515381" y="0.924805" width="111" height="167" fill="#D94B19"/>
<path d="M46.4116 55.04C45.4036 55.04 44.5076 54.856 43.7236 54.488C42.9556 54.136 42.3476 53.648 41.8996 53.024C41.4676 52.4 41.2516 51.68 41.2516 50.864C41.2516 50.08 41.4916 49.368 41.9716 48.728C42.4516 48.088 43.0916 47.584 43.8916 47.216C44.6916 46.832 45.5636 46.64 46.5076 46.64C47.4676 46.64 48.3396 46.8 49.1236 47.12C49.9236 47.424 50.5556 47.888 51.0196 48.512C51.4996 49.12 51.7236 49.872 51.6916 50.768C51.6756 51.6 51.4276 52.336 50.9476 52.976C50.4836 53.616 49.8516 54.12 49.0516 54.488C48.2676 54.856 47.3876 55.04 46.4116 55.04ZM46.4596 53.792C47.4676 53.76 48.3156 53.488 49.0036 52.976C49.7076 52.464 50.0756 51.72 50.1076 50.744C50.1396 50.104 49.9876 49.568 49.6516 49.136C49.3316 48.704 48.8916 48.376 48.3316 48.152C47.7876 47.912 47.1716 47.792 46.4836 47.792C45.8116 47.808 45.1956 47.952 44.6356 48.224C44.0756 48.48 43.6276 48.832 43.2916 49.28C42.9556 49.728 42.7876 50.248 42.7876 50.84C42.7876 51.448 42.9476 51.976 43.2676 52.424C43.6036 52.856 44.0516 53.192 44.6116 53.432C45.1716 53.672 45.7876 53.792 46.4596 53.792ZM35.5396 45.296L34.9396 44.768C34.8756 44.704 34.8996 44.632 35.0116 44.552C35.0276 44.536 35.0356 44.528 35.0356 44.528C35.9316 43.936 36.7796 43.216 37.5796 42.368C38.3956 41.504 39.1156 40.6 39.7396 39.656C40.3636 38.696 40.8276 37.776 41.1316 36.896C41.2596 36.624 41.3716 36.312 41.4676 35.96C41.5636 35.592 41.6356 35.24 41.6836 34.904C41.7316 34.568 41.7556 34.296 41.7556 34.088C41.7556 33.944 41.8356 33.88 41.9956 33.896C42.1716 33.928 42.4196 33.992 42.7396 34.088C43.0596 34.184 43.3396 34.272 43.5796 34.352C43.6756 34.4 43.6996 34.488 43.6516 34.616C43.5396 34.936 43.3876 35.352 43.1956 35.864C43.0196 36.376 42.8516 36.824 42.6916 37.208C42.6116 37.4 42.5156 37.608 42.4036 37.832C42.3076 38.04 42.1956 38.256 42.0676 38.48C42.5476 38.832 43.0516 39.216 43.5796 39.632C44.1236 40.032 44.6436 40.432 45.1396 40.832C45.6516 41.216 46.0996 41.568 46.4836 41.888C46.8676 42.208 47.1476 42.456 47.3236 42.632C47.3876 42.68 47.4356 42.76 47.4676 42.872C47.5156 42.968 47.4996 43.072 47.4196 43.184C47.3556 43.28 47.2036 43.432 46.9636 43.64C46.7396 43.848 46.5796 44 46.4836 44.096C46.3556 44.176 46.2596 44.16 46.1956 44.048C45.9236 43.632 45.5156 43.144 44.9716 42.584C44.4436 42.024 43.8676 41.464 43.2436 40.904C42.6356 40.328 42.0676 39.84 41.5396 39.44C40.9956 40.336 40.2996 41.288 39.4516 42.296C38.6036 43.304 37.5476 44.288 36.2836 45.248C36.2036 45.312 36.0996 45.368 35.9716 45.416C35.8436 45.464 35.6996 45.424 35.5396 45.296ZM50.0596 46.304C49.9956 46.304 49.9636 46.264 49.9636 46.184V35.768C49.9636 35.16 49.9396 34.6 49.8916 34.088C49.8596 33.576 49.8036 33.24 49.7236 33.08C49.6916 33 49.6916 32.944 49.7236 32.912C49.7716 32.864 49.8276 32.84 49.8916 32.84C50.0676 32.84 50.3076 32.84 50.6116 32.84C50.9156 32.84 51.1956 32.848 51.4516 32.864C51.5316 32.864 51.5716 32.928 51.5716 33.056C51.5236 33.648 51.4916 34.168 51.4756 34.616C51.4756 35.048 51.4756 35.552 51.4756 36.128V39.272C51.9076 39.272 52.3796 39.256 52.8916 39.224C53.4036 39.192 53.8756 39.152 54.3076 39.104C54.7556 39.056 55.0916 39 55.3156 38.936C55.4596 38.92 55.5396 38.968 55.5556 39.08C55.5876 39.288 55.6036 39.496 55.6036 39.704C55.6196 39.912 55.6356 40.12 55.6516 40.328C55.6516 40.504 55.5796 40.592 55.4356 40.592C55.2116 40.56 54.8676 40.544 54.4036 40.544C53.9396 40.528 53.4436 40.52 52.9156 40.52C52.4036 40.52 51.9236 40.536 51.4756 40.568V45.704C51.4756 45.944 51.4596 46.088 51.4276 46.136C51.4116 46.184 51.3636 46.216 51.2836 46.232L50.0596 46.304ZM69.6898 52.616C69.6258 52.616 69.5938 52.576 69.5938 52.496V40.808L68.8738 40.832C68.4898 40.848 68.0338 40.88 67.5058 40.928C66.9778 40.96 66.5218 40.992 66.1378 41.024C65.9618 41.04 65.8498 41.032 65.8018 41C65.7698 40.968 65.7458 40.912 65.7298 40.832C65.7138 40.816 65.7058 40.8 65.7058 40.784L65.5138 39.776C65.5138 39.744 65.5218 39.704 65.5378 39.656C65.5538 39.608 65.6018 39.592 65.6818 39.608C65.9218 39.64 66.2578 39.664 66.6898 39.68C67.1218 39.696 67.5938 39.696 68.1058 39.68C68.6338 39.664 69.1298 39.648 69.5938 39.632V36.392C69.5938 35.784 69.5778 35.224 69.5458 34.712C69.5138 34.2 69.4578 33.864 69.3778 33.704C69.3458 33.624 69.3458 33.568 69.3778 33.536C69.4258 33.488 69.4818 33.464 69.5458 33.464L70.9618 33.488C71.0418 33.52 71.0818 33.584 71.0818 33.68C71.0498 34.144 71.0338 34.56 71.0338 34.928C71.0338 35.296 71.0338 35.68 71.0338 36.08C71.0338 36.176 71.0338 36.28 71.0338 36.392C71.0338 36.504 71.0338 36.624 71.0338 36.752V52.016C71.0338 52.256 71.0178 52.4 70.9858 52.448C70.9698 52.496 70.9218 52.528 70.8418 52.544C70.7938 52.544 70.6818 52.552 70.5058 52.568C70.3458 52.568 70.1858 52.576 70.0258 52.592C69.8658 52.608 69.7538 52.616 69.6898 52.616ZM57.2098 47.096L56.6578 46.592C56.5938 46.528 56.6178 46.456 56.7298 46.376C56.7458 46.36 56.7538 46.352 56.7538 46.352C57.3938 45.888 58.0178 45.32 58.6258 44.648C59.2498 43.96 59.8258 43.224 60.3538 42.44C60.8818 41.656 61.3378 40.864 61.7218 40.064C62.1058 39.264 62.3858 38.512 62.5618 37.808C62.6898 37.328 62.7938 36.832 62.8738 36.32C62.9538 35.792 62.9938 35.368 62.9938 35.048C62.9938 34.872 63.0658 34.8 63.2098 34.832L64.7698 35.216C64.8658 35.232 64.9058 35.32 64.8898 35.48L64.1218 38.048C64.0258 38.384 63.8818 38.792 63.6898 39.272C63.4978 39.752 63.2498 40.288 62.9458 40.88C63.5538 41.408 64.1858 41.976 64.8418 42.584C65.4978 43.192 66.0898 43.752 66.6178 44.264C67.1458 44.776 67.5138 45.16 67.7218 45.416C67.7698 45.464 67.8098 45.544 67.8418 45.656C67.8898 45.768 67.8578 45.872 67.7458 45.968C67.6018 46.128 67.4498 46.28 67.2898 46.424C67.1298 46.568 66.9618 46.696 66.7858 46.808C66.7058 46.888 66.6258 46.872 66.5458 46.76C66.3218 46.328 65.9698 45.816 65.4898 45.224C65.0258 44.632 64.5138 44.032 63.9538 43.424C63.4098 42.816 62.8898 42.288 62.3938 41.84C61.9138 42.656 61.3138 43.512 60.5938 44.408C59.8738 45.304 58.9938 46.192 57.9538 47.072C57.8738 47.152 57.7698 47.208 57.6418 47.24C57.5138 47.272 57.3698 47.224 57.2098 47.096ZM73.5538 53.24C73.4898 53.24 73.4578 53.2 73.4578 53.12V35.768C73.4578 35.16 73.4418 34.6 73.4098 34.088C73.3938 33.576 73.3458 33.24 73.2658 33.08C73.2338 33 73.2338 32.944 73.2658 32.912C73.3138 32.864 73.3698 32.84 73.4338 32.84L74.8498 32.864C74.9298 32.896 74.9698 32.96 74.9698 33.056C74.9378 33.536 74.9138 33.968 74.8978 34.352C74.8978 34.736 74.8978 35.136 74.8978 35.552C74.8978 35.648 74.8978 35.744 74.8978 35.84C74.8978 35.936 74.8978 36.032 74.8978 36.128V52.64C74.8978 52.88 74.8818 53.024 74.8498 53.072C74.8338 53.12 74.7858 53.152 74.7058 53.168C74.6578 53.168 74.5458 53.168 74.3698 53.168C74.2098 53.184 74.0498 53.2 73.8898 53.216C73.7298 53.232 73.6178 53.24 73.5538 53.24ZM26.1971 82.192C26.0211 82.192 25.9091 82.184 25.8611 82.168C25.8131 82.136 25.7651 82.056 25.7171 81.928C25.6531 81.752 25.5971 81.592 25.5491 81.448C25.5171 81.288 25.4691 81.072 25.4051 80.8C25.3891 80.768 25.3971 80.728 25.4291 80.68C25.4611 80.632 25.5171 80.616 25.5971 80.632C25.8531 80.664 26.1811 80.696 26.5811 80.728C26.9811 80.76 27.5091 80.768 28.1651 80.752C28.1331 79.808 28.1091 78.912 28.0931 78.064C28.0931 77.216 28.0691 76.352 28.0211 75.472C27.9411 74.272 27.8051 73.488 27.6131 73.12C27.5811 73.04 27.5811 72.984 27.6131 72.952C27.6611 72.904 27.7171 72.88 27.7811 72.88H29.3411C29.4371 72.896 29.4851 72.976 29.4851 73.12C29.4691 73.408 29.4611 73.696 29.4611 73.984C29.4611 74.272 29.4611 74.592 29.4611 74.944C29.4611 75.072 29.4611 75.208 29.4611 75.352C29.4611 75.48 29.4611 75.624 29.4611 75.784L29.4371 80.728C30.3491 80.696 31.3091 80.624 32.3171 80.512C32.3491 79.696 32.3891 78.88 32.4371 78.064C32.4851 77.232 32.5251 76.368 32.5571 75.472C32.5891 74.896 32.5811 74.352 32.5331 73.84C32.5011 73.328 32.4451 72.992 32.3651 72.832C32.3011 72.688 32.3571 72.616 32.5331 72.616C32.6291 72.616 32.7891 72.624 33.0131 72.64C33.2531 72.64 33.4851 72.648 33.7091 72.664C33.9331 72.664 34.0611 72.664 34.0931 72.664C34.2051 72.68 34.2451 72.76 34.2131 72.904C34.1811 73.336 34.1491 73.688 34.1171 73.96C34.0851 74.232 34.0611 74.496 34.0451 74.752C34.0291 75.008 34.0051 75.328 33.9731 75.712L33.6611 80.32C34.6531 80.176 35.6291 79.984 36.5891 79.744C36.7011 79.696 36.7731 79.736 36.8051 79.864L36.8771 80.536C36.8771 80.68 36.8531 80.776 36.8051 80.824C36.7731 80.856 36.7011 80.896 36.5891 80.944C36.1571 81.072 35.5411 81.2 34.7411 81.328C33.9571 81.456 33.1011 81.576 32.1731 81.688C31.2451 81.784 30.3571 81.864 29.5091 81.928C28.9331 81.96 28.4611 81.992 28.0931 82.024C27.7411 82.056 27.4211 82.088 27.1331 82.12C26.8611 82.136 26.5491 82.16 26.1971 82.192ZM38.4851 87.616C38.4211 87.616 38.3891 87.576 38.3891 87.496V76.384L37.5731 76.408C37.1891 76.424 36.8131 76.456 36.4451 76.504C36.0771 76.536 35.7011 76.568 35.3171 76.6C35.1411 76.616 35.0291 76.608 34.9811 76.576C34.9491 76.544 34.9251 76.488 34.9091 76.408C34.8931 76.392 34.8851 76.376 34.8851 76.36L34.6931 75.352C34.6611 75.224 34.7171 75.168 34.8611 75.184C35.2451 75.248 35.7731 75.272 36.4451 75.256C37.1331 75.24 37.7811 75.216 38.3891 75.184V71.392C38.3891 70.784 38.3731 70.224 38.3411 69.712C38.3091 69.2 38.2531 68.864 38.1731 68.704C38.1411 68.624 38.1411 68.568 38.1731 68.536C38.2211 68.488 38.2771 68.464 38.3411 68.464L39.7571 68.488C39.8371 68.52 39.8771 68.584 39.8771 68.68C39.8451 69.144 39.8291 69.56 39.8291 69.928C39.8291 70.296 39.8291 70.68 39.8291 71.08C39.8291 71.176 39.8291 71.28 39.8291 71.392C39.8291 71.504 39.8291 71.624 39.8291 71.752V87.016C39.8291 87.256 39.8131 87.4 39.7811 87.448C39.7651 87.496 39.7171 87.528 39.6371 87.544C39.5891 87.544 39.4771 87.552 39.3011 87.568C39.1411 87.568 38.9811 87.576 38.8211 87.592C38.6611 87.608 38.5491 87.616 38.4851 87.616ZM41.9891 88.24C41.9251 88.24 41.8931 88.2 41.8931 88.12V70.768C41.8931 70.16 41.8771 69.6 41.8451 69.088C41.8291 68.576 41.7811 68.24 41.7011 68.08C41.6691 68 41.6691 67.944 41.7011 67.912C41.7491 67.864 41.8051 67.84 41.8691 67.84L43.2851 67.864C43.3651 67.896 43.4051 67.96 43.4051 68.056C43.3731 68.536 43.3491 68.968 43.3331 69.352C43.3331 69.736 43.3331 70.136 43.3331 70.552C43.3331 70.648 43.3331 70.744 43.3331 70.84C43.3331 70.936 43.3331 71.032 43.3331 71.128V87.64C43.3331 87.88 43.3171 88.024 43.2851 88.072C43.2691 88.12 43.2211 88.152 43.1411 88.168C43.0931 88.168 42.9811 88.168 42.8051 88.168C42.6451 88.184 42.4851 88.2 42.3251 88.216C42.1651 88.232 42.0531 88.24 41.9891 88.24ZM26.5331 72.136C26.3731 72.152 26.2691 72.136 26.2211 72.088C26.1731 72.024 26.1331 71.952 26.1011 71.872C26.0851 71.856 26.0771 71.84 26.0771 71.824C26.0131 71.648 25.9651 71.512 25.9331 71.416C25.9011 71.304 25.8531 71.112 25.7891 70.84C25.7731 70.808 25.7811 70.768 25.8131 70.72C25.8451 70.672 25.9011 70.648 25.9811 70.648C26.3011 70.648 26.6371 70.664 26.9891 70.696C27.3571 70.712 27.9091 70.72 28.6451 70.72C29.5411 70.688 30.4291 70.648 31.3091 70.6C32.2051 70.552 33.0211 70.496 33.7571 70.432C34.5091 70.352 35.1171 70.28 35.5811 70.216C35.6291 70.2 35.6851 70.208 35.7491 70.24C35.8131 70.256 35.8531 70.304 35.8691 70.384C35.9011 70.496 35.9331 70.664 35.9651 70.888C35.9971 71.096 36.0211 71.288 36.0371 71.464C36.0691 71.64 35.9731 71.728 35.7491 71.728C35.4451 71.712 35.1571 71.704 34.8851 71.704C34.6291 71.704 34.3411 71.704 34.0211 71.704C33.6691 71.704 33.2211 71.712 32.6771 71.728C32.1331 71.744 31.5731 71.768 30.9971 71.8C30.4371 71.832 29.9331 71.864 29.4851 71.896C29.0531 71.912 28.7571 71.928 28.5971 71.944L26.5331 72.136ZM53.1104 80.8C52.1344 80.816 51.2384 80.616 50.4224 80.2C49.6064 79.784 48.9504 79.192 48.4544 78.424C47.9744 77.64 47.7344 76.744 47.7344 75.736C47.7344 74.76 47.9744 73.888 48.4544 73.12C48.9344 72.336 49.5824 71.712 50.3984 71.248C51.2304 70.768 52.1424 70.52 53.1344 70.504C54.1264 70.472 55.0224 70.648 55.8224 71.032C56.6384 71.416 57.2864 71.984 57.7664 72.736C58.2464 73.488 58.4864 74.416 58.4864 75.52C58.4864 76.512 58.2464 77.4 57.7664 78.184C57.2864 78.968 56.6384 79.592 55.8224 80.056C55.0064 80.52 54.1024 80.768 53.1104 80.8ZM53.1344 79.432C53.8384 79.4 54.4784 79.224 55.0544 78.904C55.6304 78.568 56.0864 78.112 56.4224 77.536C56.7744 76.944 56.9504 76.28 56.9504 75.544C56.9504 74.728 56.7744 74.032 56.4224 73.456C56.0864 72.88 55.6304 72.448 55.0544 72.16C54.4784 71.856 53.8384 71.72 53.1344 71.752C52.4304 71.768 51.7824 71.952 51.1904 72.304C50.5984 72.64 50.1264 73.104 49.7744 73.696C49.4224 74.272 49.2464 74.944 49.2464 75.712C49.2464 76.512 49.4224 77.192 49.7744 77.752C50.1424 78.312 50.6224 78.736 51.2144 79.024C51.8064 79.312 52.4464 79.448 53.1344 79.432ZM62.5424 88.24C62.4784 88.24 62.4464 88.2 62.4464 88.12V70.792C62.4464 70.184 62.4224 69.624 62.3744 69.112C62.3424 68.584 62.2864 68.24 62.2064 68.08C62.1744 68 62.1744 67.944 62.2064 67.912C62.2544 67.864 62.3104 67.84 62.3744 67.84C62.4704 67.84 62.6304 67.848 62.8544 67.864C63.0944 67.864 63.3264 67.872 63.5504 67.888C63.7744 67.888 63.9024 67.888 63.9344 67.888C64.0144 67.888 64.0544 67.952 64.0544 68.08C64.0064 68.672 63.9744 69.192 63.9584 69.64C63.9584 70.072 63.9584 70.576 63.9584 71.152V87.64C63.9584 87.88 63.9424 88.024 63.9104 88.072C63.8944 88.12 63.8464 88.152 63.7664 88.168L62.5424 88.24ZM68.3773 82.696C68.2973 82.632 68.1853 82.552 68.0413 82.456C67.9133 82.344 67.8093 82.248 67.7293 82.168C67.6333 82.056 67.6413 81.968 67.7533 81.904C69.3533 80.768 70.6093 79.584 71.5213 78.352C72.4493 77.12 73.1133 75.92 73.5133 74.752C73.9293 73.568 74.1693 72.512 74.2333 71.584C73.8173 71.616 73.4573 71.64 73.1533 71.656C72.8493 71.672 72.6413 71.68 72.5293 71.68L69.8893 71.92C69.7293 71.936 69.6253 71.92 69.5773 71.872C69.5293 71.808 69.4893 71.736 69.4573 71.656C69.4413 71.64 69.4333 71.624 69.4333 71.608C69.3693 71.432 69.3213 71.28 69.2893 71.152C69.2733 71.008 69.2333 70.8 69.1693 70.528C69.1533 70.416 69.2173 70.36 69.3613 70.36C69.8093 70.392 70.2253 70.416 70.6093 70.432C71.0093 70.432 71.5933 70.432 72.3613 70.432C73.2253 70.432 74.0013 70.416 74.6893 70.384C75.3933 70.352 76.0413 70.312 76.6333 70.264C77.2573 70.216 77.7613 70.176 78.1453 70.144C78.5453 70.112 78.8893 70.08 79.1773 70.048C79.4813 70 79.8013 69.96 80.1373 69.928C80.1853 69.928 80.2413 69.936 80.3053 69.952C80.3693 69.968 80.4093 70.016 80.4253 70.096C80.4413 70.192 80.4573 70.304 80.4733 70.432C80.5053 70.56 80.5293 70.688 80.5453 70.816L80.5933 71.248C80.6253 71.424 80.5293 71.512 80.3053 71.512C80.0013 71.496 79.6573 71.488 79.2733 71.488C78.9053 71.488 78.5613 71.488 78.2413 71.488C77.9693 71.488 77.6413 71.496 77.2573 71.512C76.8893 71.512 76.4893 71.52 76.0573 71.536C75.9613 72.816 75.5773 74.192 74.9053 75.664C75.6733 76.208 76.4413 76.784 77.2093 77.392C77.9773 77.984 78.6733 78.552 79.2973 79.096C79.9213 79.624 80.4013 80.08 80.7373 80.464C80.8013 80.544 80.8493 80.64 80.8813 80.752C80.9293 80.848 80.9133 80.952 80.8333 81.064C80.6893 81.24 80.5213 81.4 80.3293 81.544C80.1533 81.672 79.9773 81.808 79.8013 81.952C79.7053 82.032 79.6253 82.016 79.5613 81.904C79.3373 81.552 79.0253 81.144 78.6253 80.68C78.2413 80.216 77.8013 79.744 77.3053 79.264C76.8253 78.768 76.3293 78.296 75.8173 77.848C75.3213 77.4 74.8493 77.008 74.4013 76.672C73.8413 77.68 73.1293 78.688 72.2653 79.696C71.4013 80.704 70.3613 81.672 69.1453 82.6C69.1293 82.616 69.1053 82.632 69.0733 82.648C68.9613 82.728 68.8573 82.784 68.7613 82.816C68.6653 82.832 68.5373 82.792 68.3773 82.696ZM83.1853 88.24C83.1213 88.24 83.0893 88.2 83.0893 88.12V70.792C83.0893 70.184 83.0653 69.624 83.0173 69.112C82.9853 68.584 82.9293 68.24 82.8493 68.08C82.8173 68 82.8173 67.944 82.8493 67.912C82.8973 67.864 82.9533 67.84 83.0173 67.84C83.1133 67.84 83.2733 67.848 83.4973 67.864C83.7373 67.864 83.9693 67.872 84.1933 67.888C84.4173 67.888 84.5453 67.888 84.5773 67.888C84.6573 67.888 84.6973 67.952 84.6973 68.08C84.6493 68.672 84.6173 69.192 84.6013 69.64C84.6013 70.072 84.6013 70.576 84.6013 71.152V87.64C84.6013 87.88 84.5853 88.024 84.5533 88.072C84.5373 88.12 84.4893 88.152 84.4093 88.168L83.1853 88.24Z" fill="white"/>
<path d="M27.5764 34.7808L10.9287 30.9042L18.0028 19.1687L27.5764 34.7808Z" fill="white"/>
<path d="M85.6709 125.708L100.92 135.762L89.6928 144.887L85.6709 125.708Z" fill="white"/>
<path d="M82.6407 126.23L97.8896 136.284L86.6625 145.409L82.6407 126.23Z" fill="#81A6C0"/>
<path d="M50.8323 142.711L50.9373 143.266C51.1973 143.066 51.5073 142.876 51.8673 142.696C52.2373 142.506 52.6423 142.411 53.0823 142.411C54.0023 142.411 54.7373 142.721 55.2873 143.341C55.8373 143.961 56.1173 144.841 56.1273 145.981C56.1373 147.131 55.8773 148.051 55.3473 148.741C54.8173 149.421 54.0923 149.761 53.1723 149.761C52.7023 149.761 52.2873 149.676 51.9273 149.506C51.5773 149.326 51.2873 149.121 51.0573 148.891V152.386C51.0573 152.436 51.0323 152.461 50.9823 152.461H50.2023C50.1523 152.461 50.1273 152.436 50.1273 152.386V142.711C50.1273 142.661 50.1523 142.636 50.2023 142.636H50.7573C50.7873 142.636 50.8123 142.661 50.8323 142.711ZM51.0573 147.466C51.1773 147.836 51.4073 148.166 51.7473 148.456C52.0873 148.746 52.5173 148.891 53.0373 148.891C53.6773 148.891 54.1923 148.646 54.5823 148.156C54.9823 147.656 55.1823 146.951 55.1823 146.041C55.1823 145.161 55.0023 144.481 54.6423 144.001C54.2823 143.521 53.7373 143.281 53.0073 143.281C52.6273 143.281 52.2723 143.371 51.9423 143.551C51.6123 143.721 51.3173 143.936 51.0573 144.196V147.466ZM61.9232 144.001C61.8732 144.031 61.8332 144.031 61.8032 144.001C61.6732 143.801 61.4532 143.626 61.1432 143.476C60.8432 143.316 60.4882 143.236 60.0782 143.236C59.8082 143.236 59.5482 143.271 59.2982 143.341C59.0482 143.411 58.8432 143.526 58.6832 143.686C58.5232 143.846 58.4432 144.056 58.4432 144.316C58.4432 144.626 58.5832 144.871 58.8632 145.051C59.1432 145.231 59.6332 145.396 60.3332 145.546C60.9932 145.686 61.5332 145.921 61.9532 146.251C62.3732 146.581 62.5832 147.036 62.5832 147.616C62.5832 148.106 62.4532 148.511 62.1932 148.831C61.9432 149.141 61.6132 149.376 61.2032 149.536C60.8032 149.686 60.3832 149.761 59.9432 149.761C59.3232 149.761 58.7582 149.636 58.2482 149.386C57.7382 149.136 57.3832 148.761 57.1832 148.261C57.1632 148.211 57.1782 148.171 57.2282 148.141L57.8432 147.811C57.8632 147.801 57.8882 147.796 57.9182 147.796C57.9482 147.796 57.9682 147.816 57.9782 147.856C58.1382 148.206 58.3982 148.476 58.7582 148.666C59.1282 148.846 59.5182 148.936 59.9282 148.936C60.3982 148.936 60.7982 148.841 61.1282 148.651C61.4682 148.451 61.6382 148.136 61.6382 147.706C61.6382 147.236 61.4682 146.911 61.1282 146.731C60.7882 146.541 60.3482 146.396 59.8082 146.296C59.1182 146.166 58.5582 145.946 58.1282 145.636C57.7082 145.326 57.4982 144.886 57.4982 144.316C57.4982 143.866 57.6232 143.501 57.8732 143.221C58.1232 142.941 58.4432 142.736 58.8332 142.606C59.2332 142.476 59.6432 142.411 60.0632 142.411C60.6132 142.411 61.0832 142.501 61.4732 142.681C61.8732 142.861 62.1932 143.101 62.4332 143.401C62.4632 143.441 62.4582 143.486 62.4182 143.536L61.9232 144.001Z" fill="#692811"/>
</svg>
