<svg width="221" height="280" viewBox="0 0 221 280" fill="none" xmlns="http://www.w3.org/2000/svg">
<path d="M220.975 279.979L220.975 5.13623L7.46217 5.13623L7.46217 279.979L220.975 279.979Z" fill="#4F1305"/>
<path d="M215.751 274.16L215.751 0.0202637L3.11574 0.0202637L3.11574 274.16L215.751 274.16Z" fill="#9E260A"/>
<path d="M213.98 1.75806H4.85522V272.382H213.98V1.75806Z" fill="#D94B19"/>
<path d="M202.238 260.623L202.238 13.4985L16.5699 13.4985L16.5699 260.623H202.238Z" fill="#841C08"/>
<path d="M199.313 257.693L199.313 16.4287L19.4948 16.4287L19.4948 257.693H199.313Z" fill="white"/>
<path d="M4.85522 1.64087L16.5545 13.3613H202.281L213.98 1.64087H4.85522Z" fill="url(#paint0_linear_8_583)"/>
<path d="M202.281 13.3613L213.98 1.64087V272.499L202.281 260.779V13.3613Z" fill="#C1360C"/>
<path d="M202.281 13.3613L213.98 1.64087V272.499L202.281 260.779V13.3613Z" fill="url(#paint1_linear_8_583)"/>
<path d="M4.85522 272.499L16.5545 260.779H202.281L213.98 272.499H4.85522Z" fill="#9E260A"/>
<path d="M199.298 16.4087H19.4792V257.673H199.298V16.4087Z" fill="#6281CD"/>
<path d="M92.8339 16.4087H19.4792V54.2069L92.8339 16.4087Z" fill="url(#paint2_linear_8_583)"/>
<path d="M19.4792 73.5456L130.389 16.4087H118.631L19.4792 67.451V73.5456Z" fill="url(#paint3_linear_8_583)"/>
<mask id="mask0_8_583" style="mask-type:alpha" maskUnits="userSpaceOnUse" x="19" y="22" width="180" height="236">
<rect x="19.6431" y="22.855" width="179.045" height="234.994" fill="#D9D9D9"/>
</mask>
<g mask="url(#mask0_8_583)">
<path d="M99.1882 260.886H199.651C199.651 260.886 206.318 216.53 188.824 182.735C177.769 161.327 177.142 145.115 178.282 132.784C177.94 121.481 173.837 112.004 173.837 112.004L116.511 139.235L99.1882 260.886Z" fill="#36200B"/>
<path d="M99.1882 260.886H199.651C199.651 260.886 206.318 216.53 188.824 182.735C177.769 161.327 177.142 145.115 178.282 132.784C177.94 121.481 173.837 112.004 173.837 112.004L116.511 139.235L99.1882 260.886Z" fill="#42210B"/>
<path d="M98.2195 162.412C98.2195 162.241 98.2195 162.126 98.2765 161.955C98.2765 162.126 98.2765 162.241 98.2195 162.412Z" fill="#C1272D"/>
<path d="M177.37 192.953C171.957 165.209 122.267 185.932 122.267 185.932C117.822 181.479 121.013 172.003 121.013 172.003C121.013 172.003 120.842 171.888 120.557 171.717C113.89 170.975 106.425 168.692 97.9916 164.296C95.8832 180.337 85.968 192.268 64.599 182.735C64.599 182.735 52.6324 176.684 43.7429 188.215C41.2356 192.268 39.3552 196.721 38.3295 201.459C37.7027 204.371 37.3038 207.339 37.1328 210.308C38.5004 233.827 52.1765 260.886 52.1765 260.886L163.922 262.142C164.036 262.142 182.784 220.697 177.37 192.953Z" fill="#C1272D"/>
<path d="M89.8997 164.353C89.8997 164.353 107.223 187.416 122.266 185.932C122.266 185.932 114.973 173.258 128.25 161.499L89.8997 164.353Z" fill="#F2B365"/>
<path d="M98.3903 160.3C98.3903 160.814 98.3334 161.384 98.2764 161.898C98.3334 161.384 98.3903 160.814 98.3903 160.3Z" fill="#FFDFB7"/>
<path d="M98.2762 161.898C98.2762 162.126 98.2192 162.355 98.2192 162.64C98.2192 162.355 98.2762 162.126 98.2762 161.898Z" fill="#FFDFB7"/>
<path d="M122.323 185.931C112.978 186.845 102.778 178.339 96.3958 171.717C92.9198 182.049 85.056 188.729 71.3799 185.132C71.3799 185.132 111.098 229.945 144.946 179.481C132.922 181.479 122.323 185.931 122.323 185.931Z" fill="#FFDFB7"/>
<path d="M98.1055 163.725C98.1625 163.325 98.2194 162.983 98.2194 162.583C98.1625 162.983 98.1625 163.382 98.1055 163.725Z" fill="#FFDFB7"/>
<path d="M121.811 171.831C121.868 171.831 121.868 171.831 121.925 171.831C123.976 172.003 125.97 172.003 127.851 171.888C135.487 171.432 141.812 168.749 146.997 164.867C148.308 163.896 149.505 162.869 150.644 161.784L150.701 161.727C150.929 161.499 151.157 161.327 151.328 161.099C152.183 160.243 153.038 159.329 153.836 158.359C153.893 158.302 153.893 158.245 153.95 158.245C154.12 158.016 154.291 157.845 154.462 157.617C154.519 157.56 154.519 157.56 154.576 157.503C155.146 156.818 155.659 156.133 156.172 155.447C156.172 155.39 156.229 155.39 156.229 155.333C156.4 155.105 156.514 154.934 156.685 154.705C156.742 154.648 156.799 154.534 156.856 154.477C156.97 154.306 157.141 154.077 157.255 153.906C157.312 153.849 157.369 153.735 157.426 153.678C157.881 153.05 158.28 152.365 158.679 151.737C158.736 151.68 158.793 151.566 158.85 151.509C158.964 151.337 159.078 151.166 159.192 150.938C159.249 150.823 159.306 150.709 159.363 150.595C159.477 150.424 159.591 150.253 159.648 150.081C159.705 149.967 159.762 149.853 159.876 149.739C159.99 149.568 160.047 149.396 160.161 149.225C160.218 149.111 160.332 148.94 160.389 148.825C160.56 148.54 160.674 148.255 160.845 147.969C160.902 147.798 161.015 147.684 161.072 147.512C161.129 147.341 161.243 147.227 161.3 147.056C161.357 146.885 161.471 146.77 161.528 146.599C161.585 146.428 161.642 146.314 161.756 146.142C161.813 145.971 161.927 145.8 161.984 145.686C162.041 145.572 162.098 145.4 162.155 145.286C162.269 145.058 162.383 144.829 162.497 144.601C162.554 144.487 162.611 144.316 162.668 144.201C162.782 143.973 162.839 143.802 162.953 143.574C163.01 143.459 163.067 143.345 163.124 143.231C163.181 143.06 163.295 142.888 163.352 142.717C163.409 142.603 163.466 142.489 163.523 142.375C163.58 142.203 163.694 141.975 163.751 141.804C163.808 141.69 163.808 141.575 163.865 141.461C163.979 141.176 164.093 140.89 164.207 140.605C164.207 140.548 164.207 140.548 164.264 140.491C164.378 140.205 164.435 139.977 164.548 139.692C164.605 139.577 164.605 139.52 164.662 139.406C164.719 139.235 164.776 139.007 164.833 138.835C164.89 138.721 164.89 138.607 164.947 138.55C165.004 138.379 165.061 138.15 165.118 137.979C165.118 137.865 165.175 137.808 165.175 137.694C165.289 137.408 165.346 137.123 165.403 136.894C165.574 136.266 165.802 135.581 165.973 134.953C166.03 134.725 166.087 134.497 166.201 134.268C166.315 133.869 166.429 133.469 166.543 133.07C166.6 132.784 166.714 132.556 166.771 132.27C166.885 131.928 166.999 131.585 167.113 131.243C167.17 130.957 167.284 130.729 167.341 130.444C167.455 130.101 167.569 129.816 167.626 129.473C167.74 129.188 167.797 128.959 167.911 128.674C168.025 128.389 168.081 128.103 168.195 127.818C168.309 127.532 168.366 127.304 168.48 127.018C168.594 126.733 168.651 126.448 168.765 126.162C168.822 125.934 168.936 125.648 168.993 125.42C169.107 125.135 169.164 124.849 169.278 124.621C169.335 124.392 169.449 124.164 169.506 123.936C169.62 123.65 169.677 123.422 169.791 123.137C169.848 122.908 169.962 122.68 170.019 122.452C170.133 122.166 170.19 121.938 170.304 121.652C170.361 121.424 170.475 121.196 170.532 121.024C170.646 120.796 170.703 120.511 170.817 120.282C170.874 120.054 170.988 119.883 171.045 119.654C171.159 119.426 171.216 119.14 171.33 118.912C171.387 118.741 171.444 118.513 171.558 118.341C171.671 118.113 171.728 117.827 171.842 117.599C171.899 117.428 171.956 117.257 172.013 117.085C172.127 116.857 172.184 116.572 172.298 116.343C172.355 116.172 172.412 116.058 172.469 115.887C172.583 115.601 172.697 115.373 172.754 115.087C172.811 114.973 172.868 114.859 172.868 114.745C172.982 114.459 173.096 114.174 173.21 113.889C173.267 113.831 173.267 113.717 173.324 113.66C173.438 113.318 173.552 113.032 173.723 112.69C169.848 107.78 164.435 105.839 164.435 105.839C167.284 98.8177 161.585 72.9575 161.585 72.9575C166.03 93.052 155.83 105.497 155.83 105.497L127.566 106.125C131.441 102.3 127.509 91.7961 127.509 91.7961C128.136 102.642 122.437 106.467 122.437 106.467L99.131 105.497C107.052 99.7311 103.633 83.804 103.633 83.804C102.037 110.92 75.3118 115.715 83.2325 111.263C86.3097 109.55 88.1332 106.41 89.2159 103.27C89.2159 103.27 90.5265 95.9634 83.5175 96.5913C76.5085 97.2193 68.3028 105.839 86.4236 122.452C86.7656 122.794 87.1075 123.137 87.4494 123.479C87.4494 123.479 87.4494 123.479 87.4494 123.536C87.6773 123.822 87.9622 124.107 88.1901 124.392C88.1901 124.392 88.1901 124.392 88.2471 124.45C88.2471 124.507 88.3041 124.507 88.3041 124.564C88.5321 124.792 88.703 125.077 88.9309 125.306C88.9309 125.306 88.9309 125.363 88.9879 125.363C89.0449 125.42 89.0449 125.477 89.1019 125.534C89.2728 125.763 89.5008 126.048 89.6717 126.276L89.7287 126.333C89.7857 126.39 89.8427 126.448 89.8997 126.562C90.0706 126.79 90.2416 127.018 90.4125 127.247C90.4125 127.304 90.4695 127.304 90.4695 127.361C90.5265 127.475 90.5835 127.532 90.6404 127.646C90.7544 127.875 90.9254 128.103 91.0393 128.331C91.0393 128.388 91.0963 128.388 91.0963 128.446C91.1533 128.56 91.2103 128.674 91.2673 128.788C91.3812 129.016 91.4952 129.188 91.6092 129.416C91.6092 129.473 91.6662 129.53 91.6662 129.53C91.7231 129.644 91.8371 129.816 91.8941 129.93C92.0081 130.158 92.122 130.329 92.236 130.558C92.236 130.615 92.293 130.615 92.293 130.672C92.35 130.786 92.4069 130.9 92.4639 131.072C92.4639 131.129 92.5209 131.129 92.5209 131.186C92.6349 131.414 92.7489 131.642 92.8628 131.814V131.871C92.9198 132.042 93.0338 132.213 93.0908 132.385V132.442C93.2047 132.67 93.3187 132.898 93.4327 133.184C93.4896 133.355 93.5466 133.526 93.6606 133.64C93.6606 133.64 93.6606 133.698 93.7176 133.698C93.8315 133.983 93.9455 134.268 94.0595 134.554C94.1165 134.668 94.1734 134.782 94.1734 134.896C94.1734 134.953 94.2304 134.953 94.2304 135.011C94.3444 135.296 94.4584 135.581 94.5723 135.867C94.6293 135.981 94.6293 136.038 94.6863 136.152C94.6863 136.209 94.7433 136.266 94.7433 136.324C94.8573 136.609 94.9712 136.894 95.0282 137.18C95.0852 137.294 95.0852 137.408 95.1422 137.465C95.1422 137.522 95.1992 137.637 95.1992 137.694C95.3131 137.979 95.3701 138.207 95.4841 138.493C95.5411 138.607 95.5411 138.721 95.598 138.835C95.655 138.95 95.655 139.007 95.712 139.121C95.769 139.349 95.883 139.635 95.9399 139.863C95.9399 139.977 95.9969 140.034 95.9969 140.148C96.0539 140.262 96.0539 140.377 96.1109 140.548C96.1679 140.833 96.2818 141.062 96.3388 141.347C96.3388 141.404 96.3958 141.461 96.3958 141.575C96.4528 141.69 96.4528 141.804 96.5098 141.918C96.5668 142.203 96.6807 142.546 96.7377 142.831C96.7377 142.888 96.7377 142.946 96.7947 142.946C96.7947 143.06 96.8517 143.174 96.8517 143.231C96.9087 143.573 97.0226 143.916 97.0796 144.259V144.316C97.0796 144.373 97.1366 144.487 97.1366 144.544C97.1936 144.944 97.3076 145.343 97.3645 145.686C97.4785 146.257 97.5925 146.885 97.7065 147.455C97.7065 147.57 97.7634 147.684 97.7634 147.855C97.7634 147.855 97.7634 147.855 97.7634 147.912C97.8204 148.255 97.8774 148.54 97.8774 148.883C97.8774 149.054 97.9344 149.168 97.9344 149.339C97.9344 149.396 97.9344 149.396 97.9344 149.453C98.0484 150.196 98.1053 150.995 98.2193 151.737C98.2193 151.851 98.2193 152.022 98.2763 152.136C98.2763 152.194 98.2763 152.251 98.2763 152.308C98.2763 152.65 98.3333 152.936 98.3333 153.278C98.3333 153.392 98.3333 153.507 98.3333 153.621C98.3333 153.678 98.3333 153.735 98.3333 153.792C98.3333 154.134 98.3903 154.477 98.3903 154.82C98.3903 154.877 98.3903 154.991 98.3903 155.048C98.3903 155.105 98.3903 155.105 98.3903 155.162C98.3903 155.562 98.3902 155.904 98.4472 156.304C98.4472 156.361 98.4472 156.418 98.4472 156.475C98.4472 156.532 98.4472 156.532 98.4472 156.589C98.4472 156.989 98.4472 157.446 98.4472 157.845V157.902V157.959C98.4472 159.444 98.3903 160.985 98.2193 162.412C98.2193 162.469 98.2193 162.469 98.2193 162.526C98.1623 163.154 98.1053 163.782 97.9914 164.41C106.368 168.806 113.89 171.089 120.557 171.831C121.013 171.774 121.412 171.831 121.811 171.831Z" fill="#FFDFB7"/>
<path d="M48.9282 253.693C50.8657 258.203 52.2333 260.943 52.2333 260.943L163.979 262.199C163.979 262.199 175.432 236.91 177.883 212.591L48.9282 253.693Z" fill="#CD5257"/>
<path d="M139.818 119.312C140.444 120.967 131.441 151.908 131.441 151.908L142.838 144.372L139.818 119.312Z" fill="#F2B365"/>
<path d="M119.36 151.908C119.36 151.908 127.452 169.776 137.196 156.19" stroke="#D98235" stroke-width="2" stroke-miterlimit="10" stroke-linecap="round" stroke-linejoin="round"/>
<path d="M118.164 122.509C117.879 126.162 115.315 128.845 113.092 128.674C110.87 128.503 111.952 126.39 112.18 122.737C112.465 119.083 112.294 116.058 114.517 116.229C116.796 116.4 118.449 118.855 118.164 122.509Z" fill="#D98235"/>
<path d="M159.477 123.993C159.249 126.733 157.369 128.731 155.716 128.617C154.064 128.503 154.861 126.904 155.032 124.164C155.203 121.424 155.089 119.198 156.799 119.312C158.451 119.426 159.705 121.253 159.477 123.993Z" fill="#D98235"/>
<path d="M116.568 119.312C116.568 119.312 121.013 119.597 122.323 114.859" stroke="#D98235" stroke-width="2" stroke-miterlimit="10" stroke-linecap="round" stroke-linejoin="round"/>
<path d="M157.768 121.138C157.768 121.138 160.788 121.367 161.586 118.17" stroke="#D98235" stroke-width="2" stroke-miterlimit="10" stroke-linecap="round" stroke-linejoin="round"/>
<path d="M118.221 190.898C118.221 190.898 121.184 183.248 135.544 180.508" stroke="#36200B" stroke-width="2" stroke-miterlimit="10" stroke-linecap="round" stroke-linejoin="round"/>
<path d="M64.656 182.735C64.656 182.735 65.3398 183.82 66.6504 185.532" stroke="#CD5257" stroke-width="3" stroke-linecap="round" stroke-linejoin="round"/>
<path d="M71.0381 190.955C84.2583 205.969 115.998 232.114 148.251 184.447" stroke="#CD5257" stroke-width="3" stroke-linecap="round" stroke-linejoin="round" stroke-dasharray="12.25 12.25"/>
<path d="M150.132 181.536C150.759 180.565 151.328 179.595 151.955 178.625" stroke="#CD5257" stroke-width="3" stroke-linecap="round" stroke-linejoin="round"/>
<path d="M83.8595 116.457C83.8595 116.457 74.1152 107.038 80.2695 102.757C86.4237 98.418 84.3723 111.434 83.8595 116.457Z" fill="#F2B365"/>
<path d="M188.824 182.735C171.33 148.94 179.934 127.989 180.561 114.859C181.188 101.729 187.285 40.1328 142.211 47.1544C142.211 47.1544 113.149 22.0363 79.9278 55.4319C46.9911 88.5421 72.2919 141.233 26.7619 189.699C-18.7682 238.166 1.63198 260.886 1.63198 260.886H52.2336C52.2336 260.886 38.5575 233.827 37.1899 210.308C37.2469 209.623 37.3039 208.938 37.3608 208.252C37.3608 208.195 37.3608 208.081 37.3608 208.024C37.4178 207.339 37.5318 206.597 37.5888 205.912V205.855C37.6458 205.227 37.7597 204.599 37.8737 203.971C37.8737 203.8 37.9307 203.628 37.9307 203.514C38.0447 202.829 38.1586 202.201 38.3296 201.516C39.3553 196.835 41.2358 192.325 43.743 188.272C52.6325 176.741 64.5991 182.792 64.5991 182.792C65.2829 183.077 65.9098 183.363 66.5366 183.591C66.7645 183.648 66.9355 183.762 67.1634 183.819C67.5623 183.991 68.0182 184.162 68.417 184.276C68.645 184.39 68.8729 184.447 69.1578 184.504C69.4997 184.619 69.8986 184.733 70.2405 184.847C70.4685 184.904 70.7534 184.961 70.9813 185.075C71.3232 185.19 71.6651 185.247 71.95 185.361C72.178 185.418 72.4629 185.475 72.6908 185.532C72.9757 185.589 73.3177 185.646 73.6026 185.703C73.8305 185.76 74.1154 185.76 74.3434 185.817C74.6283 185.875 74.9132 185.932 75.2551 185.932C75.483 185.989 75.711 185.989 75.9959 185.989C76.2808 185.989 76.5657 186.046 76.8507 186.046C77.0786 186.046 77.3065 186.046 77.5345 186.103C77.8194 186.103 78.0473 186.103 78.3322 186.103C78.5602 186.103 78.7881 186.103 79.016 186.103C79.244 186.103 79.5289 186.103 79.7568 186.046C79.9848 186.046 80.2127 185.989 80.3836 185.989C80.6116 185.989 80.8965 185.932 81.1244 185.932C81.3524 185.875 81.5233 185.875 81.7513 185.817C81.9792 185.76 82.2071 185.76 82.4351 185.703C82.663 185.646 82.834 185.589 83.0619 185.532C83.2898 185.475 83.5178 185.418 83.7457 185.361C83.9167 185.304 84.1446 185.247 84.3155 185.19C84.5435 185.132 84.7144 185.018 84.9424 184.961C85.1133 184.904 85.2843 184.79 85.5122 184.733C85.7401 184.619 85.9111 184.562 86.139 184.447C86.31 184.39 86.4809 184.276 86.6519 184.162C86.8228 184.048 87.0508 183.934 87.2217 183.877C87.3927 183.762 87.5636 183.705 87.7346 183.591C87.9055 183.477 88.0765 183.363 88.2474 183.249C88.4184 183.134 88.5893 183.02 88.7033 182.906C88.8742 182.792 89.0452 182.678 89.2161 182.506C89.3871 182.392 89.5011 182.278 89.672 182.164C89.843 182.05 90.0139 181.878 90.1279 181.764C90.2419 181.65 90.4128 181.479 90.5268 181.365C90.6977 181.193 90.8117 181.079 90.9826 180.908C91.0966 180.794 91.2676 180.623 91.3815 180.508C91.5525 180.337 91.6665 180.166 91.8374 179.995C91.9514 179.823 92.0653 179.709 92.1793 179.538C92.2933 179.367 92.4642 179.195 92.5782 179.024C92.6922 178.853 92.8061 178.682 92.9201 178.567C93.0341 178.396 93.148 178.168 93.319 177.997C93.4329 177.825 93.5469 177.654 93.6609 177.483C93.7749 177.312 93.8888 177.083 94.0028 176.855C94.1168 176.684 94.1737 176.512 94.2877 176.341C94.4017 176.113 94.5156 175.942 94.6296 175.713C94.7436 175.542 94.8006 175.371 94.9145 175.199C95.0285 174.971 95.1425 174.743 95.1994 174.514C95.2564 174.343 95.3704 174.172 95.4274 173.943C95.5414 173.715 95.5983 173.487 95.7123 173.258C95.7693 173.087 95.8833 172.916 95.9402 172.688C96.0542 172.459 96.1112 172.174 96.2252 171.945C96.2821 171.774 96.3391 171.546 96.3961 171.375C96.4531 171.089 96.5671 170.861 96.624 170.575C96.681 170.404 96.738 170.233 96.795 170.005C96.852 169.719 96.9659 169.434 97.0229 169.148C97.0799 168.977 97.1369 168.806 97.1369 168.634C97.1939 168.349 97.2509 168.006 97.3648 167.721C97.4218 167.55 97.4218 167.379 97.4788 167.264C97.5358 166.865 97.6498 166.465 97.7067 166.066C97.7067 165.951 97.7637 165.894 97.7637 165.78C97.8207 165.266 97.9347 164.81 97.9917 164.296C98.0486 163.668 98.1626 163.04 98.2196 162.412C98.2196 162.241 98.2196 162.127 98.2766 161.955C98.3336 161.384 98.3905 160.757 98.3905 160.186C98.3905 160.129 98.3905 160.129 98.3905 160.071C98.3905 160.129 98.3905 160.129 98.3905 160.186C98.3905 160.129 98.3905 160.129 98.3905 160.071C98.3905 160.071 98.3905 160.071 98.3905 160.014V159.957C98.3905 159.672 98.3905 159.386 98.4475 159.158C98.4475 158.93 98.4475 158.758 98.4475 158.53C98.4475 158.245 98.4475 158.016 98.4475 157.731C98.4475 157.503 98.4475 157.331 98.4475 157.103C98.4475 156.818 98.4475 156.532 98.4475 156.304C98.4475 156.075 98.4475 155.904 98.4475 155.676C98.4475 155.39 98.4475 155.105 98.4475 154.877C98.4475 154.648 98.4475 154.477 98.3905 154.249C98.3905 153.963 98.3905 153.678 98.3336 153.449C98.3336 153.221 98.2766 153.05 98.2766 152.821C98.2766 152.536 98.2196 152.251 98.2196 151.965C98.2196 151.794 98.1626 151.623 98.1626 151.394C98.1056 150.823 98.0486 150.253 97.9917 149.739C97.9917 149.568 97.9347 149.339 97.9347 149.168C97.8777 148.883 97.8777 148.654 97.8207 148.369C97.7637 148.14 97.7637 147.912 97.7067 147.684C97.6498 147.455 97.6497 147.17 97.5928 146.942C97.5358 146.713 97.5358 146.485 97.4788 146.257C97.4218 146.028 97.3648 145.743 97.3648 145.514C97.3078 145.286 97.2509 145.058 97.2509 144.829C97.1939 144.601 97.1369 144.316 97.0799 144.087C97.0229 143.859 96.9659 143.631 96.909 143.402C96.852 143.174 96.795 142.946 96.738 142.717C96.681 142.489 96.624 142.26 96.5671 141.975C96.5101 141.747 96.4531 141.518 96.3961 141.29C96.3391 141.005 96.2252 140.776 96.1682 140.491C96.1112 140.32 96.0542 140.091 95.9972 139.92C95.8833 139.463 95.7123 139.064 95.5983 138.607C95.5413 138.436 95.4844 138.264 95.4274 138.036C95.3134 137.751 95.2564 137.522 95.1425 137.237C95.0855 137.066 95.0285 136.837 94.9145 136.666C94.8006 136.438 94.7436 136.152 94.6296 135.924C94.5726 135.753 94.4587 135.524 94.4017 135.353C94.2877 135.125 94.2307 134.896 94.1168 134.668C94.0598 134.497 93.9458 134.268 93.8888 134.097C93.7748 133.869 93.7179 133.64 93.6039 133.412C93.5469 133.241 93.4329 133.07 93.376 132.898C93.262 132.67 93.148 132.442 93.0341 132.156C92.9771 131.985 92.8631 131.814 92.8061 131.642C92.6922 131.357 92.5212 131.129 92.4072 130.843C92.3503 130.729 92.2933 130.615 92.2363 130.444C92.0653 130.044 91.8374 129.701 91.6095 129.302C91.5525 129.245 91.4955 129.131 91.4385 129.074C91.2676 128.788 91.0966 128.503 90.9257 128.217C90.8687 128.103 90.7547 127.989 90.6977 127.818C90.5838 127.589 90.4128 127.361 90.2988 127.133C90.1849 127.018 90.1279 126.847 90.0139 126.733C89.9 126.505 89.729 126.333 89.615 126.162C89.5011 126.048 89.4441 125.877 89.3301 125.762C89.2161 125.591 89.0452 125.363 88.8742 125.192C88.7603 125.077 88.7033 124.963 88.5893 124.792C88.4184 124.621 88.3044 124.449 88.1335 124.221C88.0195 124.107 87.9625 123.993 87.8485 123.879C87.6776 123.707 87.5066 123.479 87.3357 123.308C87.2787 123.194 87.1647 123.137 87.1077 123.022C86.8228 122.737 86.5949 122.509 86.31 122.28C68.1891 105.668 76.3948 97.1051 83.4038 96.42C90.4128 95.7921 89.1022 103.099 89.1022 103.099C88.0195 106.239 86.139 109.379 83.1189 111.091C75.1411 115.544 101.924 110.749 103.519 83.6327C103.519 83.6327 106.938 99.5598 99.0174 105.326L122.324 106.296C122.324 106.296 128.079 102.471 127.395 91.6248C127.395 91.6248 131.327 102.129 127.452 105.953L155.716 105.326C155.716 105.326 165.916 92.8807 161.472 72.7862C161.472 72.7862 167.227 98.6464 164.321 105.668C164.321 105.668 169.734 107.609 173.609 112.518C171.387 118.227 168.424 125.991 165.29 136.609C160.788 151.851 147.568 174.571 120.614 171.546C120.899 171.717 121.07 171.831 121.07 171.831C121.07 171.831 117.879 181.251 122.324 185.76C122.324 185.76 172.014 165.038 177.427 192.782C182.271 217.672 167.683 253.579 164.606 260.715H199.708C199.651 260.886 206.375 216.53 188.824 182.735Z" fill="#603813"/>
<path d="M188.824 182.735C171.33 148.94 179.934 127.989 180.561 114.859C181.188 101.729 187.285 40.1328 142.211 47.1544C142.211 47.1544 113.149 22.0363 79.9278 55.4319C46.9911 88.5421 72.2919 141.233 26.7619 189.699C-18.7682 238.166 1.63198 260.886 1.63198 260.886H52.2336C52.2336 260.886 38.5575 233.827 37.1899 210.308C37.2469 209.623 37.3039 208.938 37.3608 208.252C37.3608 208.195 37.3608 208.081 37.3608 208.024C37.4178 207.339 37.5318 206.597 37.5888 205.912V205.855C37.6458 205.227 37.7597 204.599 37.8737 203.971C37.8737 203.8 37.9307 203.628 37.9307 203.514C38.0447 202.829 38.1586 202.201 38.3296 201.516C39.3553 196.835 41.2358 192.325 43.743 188.272C52.6325 176.741 64.5991 182.792 64.5991 182.792C65.2829 183.077 65.9098 183.363 66.5366 183.591C66.7645 183.648 66.9355 183.762 67.1634 183.819C67.5623 183.991 68.0182 184.162 68.417 184.276C68.645 184.39 68.8729 184.447 69.1578 184.504C69.4997 184.619 69.8986 184.733 70.2405 184.847C70.4685 184.904 70.7534 184.961 70.9813 185.075C71.3232 185.19 71.6651 185.247 71.95 185.361C72.178 185.418 72.4629 185.475 72.6908 185.532C72.9757 185.589 73.3177 185.646 73.6026 185.703C73.8305 185.76 74.1154 185.76 74.3434 185.817C74.6283 185.875 74.9132 185.932 75.2551 185.932C75.483 185.989 75.711 185.989 75.9959 185.989C76.2808 185.989 76.5657 186.046 76.8507 186.046C77.0786 186.046 77.3065 186.046 77.5345 186.103C77.8194 186.103 78.0473 186.103 78.3322 186.103C78.5602 186.103 78.7881 186.103 79.016 186.103C79.244 186.103 79.5289 186.103 79.7568 186.046C79.9848 186.046 80.2127 185.989 80.3836 185.989C80.6116 185.989 80.8965 185.932 81.1244 185.932C81.3524 185.875 81.5233 185.875 81.7513 185.817C81.9792 185.76 82.2071 185.76 82.4351 185.703C82.663 185.646 82.834 185.589 83.0619 185.532C83.2898 185.475 83.5178 185.418 83.7457 185.361C83.9167 185.304 84.1446 185.247 84.3155 185.19C84.5435 185.132 84.7144 185.018 84.9424 184.961C85.1133 184.904 85.2843 184.79 85.5122 184.733C85.7401 184.619 85.9111 184.562 86.139 184.447C86.31 184.39 86.4809 184.276 86.6519 184.162C86.8228 184.048 87.0508 183.934 87.2217 183.877C87.3927 183.762 87.5636 183.705 87.7346 183.591C87.9055 183.477 88.0765 183.363 88.2474 183.249C88.4184 183.134 88.5893 183.02 88.7033 182.906C88.8742 182.792 89.0452 182.678 89.2161 182.506C89.3871 182.392 89.5011 182.278 89.672 182.164C89.843 182.05 90.0139 181.878 90.1279 181.764C90.2419 181.65 90.4128 181.479 90.5268 181.365C90.6977 181.193 90.8117 181.079 90.9826 180.908C91.0966 180.794 91.2676 180.623 91.3815 180.508C91.5525 180.337 91.6665 180.166 91.8374 179.995C91.9514 179.823 92.0653 179.709 92.1793 179.538C92.2933 179.367 92.4642 179.195 92.5782 179.024C92.6922 178.853 92.8061 178.682 92.9201 178.567C93.0341 178.396 93.148 178.168 93.319 177.997C93.4329 177.825 93.5469 177.654 93.6609 177.483C93.7749 177.312 93.8888 177.083 94.0028 176.855C94.1168 176.684 94.1737 176.512 94.2877 176.341C94.4017 176.113 94.5156 175.942 94.6296 175.713C94.7436 175.542 94.8006 175.371 94.9145 175.199C95.0285 174.971 95.1425 174.743 95.1994 174.514C95.2564 174.343 95.3704 174.172 95.4274 173.943C95.5414 173.715 95.5983 173.487 95.7123 173.258C95.7693 173.087 95.8833 172.916 95.9402 172.688C96.0542 172.459 96.1112 172.174 96.2252 171.945C96.2821 171.774 96.3391 171.546 96.3961 171.375C96.4531 171.089 96.5671 170.861 96.624 170.575C96.681 170.404 96.738 170.233 96.795 170.005C96.852 169.719 96.9659 169.434 97.0229 169.148C97.0799 168.977 97.1369 168.806 97.1369 168.634C97.1939 168.349 97.2509 168.006 97.3648 167.721C97.4218 167.55 97.4218 167.379 97.4788 167.264C97.5358 166.865 97.6498 166.465 97.7067 166.066C97.7067 165.951 97.7637 165.894 97.7637 165.78C97.8207 165.266 97.9347 164.81 97.9917 164.296C98.0486 163.668 98.1626 163.04 98.2196 162.412C98.2196 162.241 98.2196 162.127 98.2766 161.955C98.3336 161.384 98.3905 160.757 98.3905 160.186C98.3905 160.129 98.3905 160.129 98.3905 160.071C98.3905 160.129 98.3905 160.129 98.3905 160.186C98.3905 160.129 98.3905 160.129 98.3905 160.071C98.3905 160.071 98.3905 160.071 98.3905 160.014V159.957C98.3905 159.672 98.3905 159.386 98.4475 159.158C98.4475 158.93 98.4475 158.758 98.4475 158.53C98.4475 158.245 98.4475 158.016 98.4475 157.731C98.4475 157.503 98.4475 157.331 98.4475 157.103C98.4475 156.818 98.4475 156.532 98.4475 156.304C98.4475 156.075 98.4475 155.904 98.4475 155.676C98.4475 155.39 98.4475 155.105 98.4475 154.877C98.4475 154.648 98.4475 154.477 98.3905 154.249C98.3905 153.963 98.3905 153.678 98.3336 153.449C98.3336 153.221 98.2766 153.05 98.2766 152.821C98.2766 152.536 98.2196 152.251 98.2196 151.965C98.2196 151.794 98.1626 151.623 98.1626 151.394C98.1056 150.823 98.0486 150.253 97.9917 149.739C97.9917 149.568 97.9347 149.339 97.9347 149.168C97.8777 148.883 97.8777 148.654 97.8207 148.369C97.7637 148.14 97.7637 147.912 97.7067 147.684C97.6498 147.455 97.6497 147.17 97.5928 146.942C97.5358 146.713 97.5358 146.485 97.4788 146.257C97.4218 146.028 97.3648 145.743 97.3648 145.514C97.3078 145.286 97.2509 145.058 97.2509 144.829C97.1939 144.601 97.1369 144.316 97.0799 144.087C97.0229 143.859 96.9659 143.631 96.909 143.402C96.852 143.174 96.795 142.946 96.738 142.717C96.681 142.489 96.624 142.26 96.5671 141.975C96.5101 141.747 96.4531 141.518 96.3961 141.29C96.3391 141.005 96.2252 140.776 96.1682 140.491C96.1112 140.32 96.0542 140.091 95.9972 139.92C95.8833 139.463 95.7123 139.064 95.5983 138.607C95.5413 138.436 95.4844 138.264 95.4274 138.036C95.3134 137.751 95.2564 137.522 95.1425 137.237C95.0855 137.066 95.0285 136.837 94.9145 136.666C94.8006 136.438 94.7436 136.152 94.6296 135.924C94.5726 135.753 94.4587 135.524 94.4017 135.353C94.2877 135.125 94.2307 134.896 94.1168 134.668C94.0598 134.497 93.9458 134.268 93.8888 134.097C93.7748 133.869 93.7179 133.64 93.6039 133.412C93.5469 133.241 93.4329 133.07 93.376 132.898C93.262 132.67 93.148 132.442 93.0341 132.156C92.9771 131.985 92.8631 131.814 92.8061 131.642C92.6922 131.357 92.5212 131.129 92.4072 130.843C92.3503 130.729 92.2933 130.615 92.2363 130.444C92.0653 130.044 91.8374 129.701 91.6095 129.302C91.5525 129.245 91.4955 129.131 91.4385 129.074C91.2676 128.788 91.0966 128.503 90.9257 128.217C90.8687 128.103 90.7547 127.989 90.6977 127.818C90.5838 127.589 90.4128 127.361 90.2988 127.133C90.1849 127.018 90.1279 126.847 90.0139 126.733C89.9 126.505 89.729 126.333 89.615 126.162C89.5011 126.048 89.4441 125.877 89.3301 125.762C89.2161 125.591 89.0452 125.363 88.8742 125.192C88.7603 125.077 88.7033 124.963 88.5893 124.792C88.4184 124.621 88.3044 124.449 88.1335 124.221C88.0195 124.107 87.9625 123.993 87.8485 123.879C87.6776 123.707 87.5066 123.479 87.3357 123.308C87.2787 123.194 87.1647 123.137 87.1077 123.022C86.8228 122.737 86.5949 122.509 86.31 122.28C68.1891 105.668 76.3948 97.1051 83.4038 96.42C90.4128 95.7921 89.1022 103.099 89.1022 103.099C88.0195 106.239 86.139 109.379 83.1189 111.091C75.1411 115.544 101.924 110.749 103.519 83.6327C103.519 83.6327 106.938 99.5598 99.0174 105.326L122.324 106.296C122.324 106.296 128.079 102.471 127.395 91.6248C127.395 91.6248 131.327 102.129 127.452 105.953L155.716 105.326C155.716 105.326 165.916 92.8807 161.472 72.7862C161.472 72.7862 167.227 98.6464 164.321 105.668C164.321 105.668 169.734 107.609 173.609 112.518C171.387 118.227 168.424 125.991 165.29 136.609C160.788 151.851 147.568 174.571 120.614 171.546C120.899 171.717 121.07 171.831 121.07 171.831C121.07 171.831 117.879 181.251 122.324 185.76C122.324 185.76 172.014 165.038 177.427 192.782C182.271 217.672 167.683 253.579 164.606 260.715H199.708C199.651 260.886 206.375 216.53 188.824 182.735Z" fill="url(#paint4_linear_8_583)"/>
<path d="M187.912 180.908C187.798 180.737 187.741 180.565 187.627 180.337C187.399 179.937 187.228 179.481 187 179.081C186.886 178.853 186.829 178.681 186.715 178.453C186.487 177.996 186.316 177.597 186.146 177.197C186.089 177.026 185.975 176.855 185.918 176.683C185.633 176.113 185.405 175.542 185.177 174.971C185.12 174.914 185.12 174.8 185.063 174.742C184.835 174.229 184.664 173.772 184.436 173.258C184.379 173.087 184.265 172.916 184.208 172.744C184.037 172.345 183.866 171.945 183.752 171.546C183.695 171.374 183.581 171.203 183.524 170.975C183.353 170.575 183.182 170.118 183.068 169.719C183.011 169.605 182.954 169.433 182.897 169.319C182.726 168.748 182.499 168.235 182.328 167.664C182.271 167.55 182.271 167.435 182.214 167.321C182.043 166.922 181.929 166.465 181.815 166.065C181.758 165.894 181.701 165.723 181.644 165.552C181.53 165.152 181.416 164.809 181.302 164.41C181.245 164.239 181.188 164.067 181.131 163.896C181.017 163.439 180.903 163.04 180.732 162.583C180.732 162.526 180.675 162.412 180.675 162.355C180.561 161.841 180.39 161.327 180.276 160.813C180.219 160.699 180.219 160.585 180.162 160.471C180.048 160.071 179.991 159.672 179.877 159.329C179.82 159.158 179.82 159.044 179.763 158.872C179.706 158.53 179.592 158.13 179.535 157.788C179.478 157.674 179.478 157.502 179.421 157.388C179.307 156.874 179.25 156.418 179.137 155.961C179.023 155.447 178.966 154.991 178.852 154.477C178.852 154.363 178.795 154.248 178.795 154.134C178.738 153.792 178.681 153.392 178.624 153.05C178.624 152.935 178.567 152.764 178.567 152.65C178.51 152.307 178.453 151.908 178.396 151.565C178.396 151.451 178.396 151.337 178.339 151.28C178.225 150.367 178.111 149.453 178.054 148.54C178.054 148.426 178.054 148.368 178.054 148.254C177.997 147.912 177.997 147.569 177.997 147.17C177.997 147.055 177.997 146.941 177.997 146.827C177.997 146.428 177.94 146.085 177.94 145.685C177.94 145.628 177.94 145.571 177.94 145.514C177.883 144.601 177.883 143.744 177.826 142.888C177.826 142.831 177.826 142.717 177.826 142.66C177.826 142.317 177.826 141.918 177.826 141.575C177.826 141.518 177.826 141.461 177.826 141.347C177.826 140.091 177.883 138.835 177.883 137.636C177.883 137.579 177.883 137.579 177.883 137.522C177.883 137.122 177.94 136.78 177.94 136.38V136.323C177.997 135.124 178.111 133.926 178.225 132.784C177.883 121.481 173.78 112.004 173.78 112.004L173.153 112.29C173.267 112.404 173.381 112.575 173.495 112.689C171.273 118.398 168.31 126.162 165.175 136.78C160.674 152.022 147.453 174.742 120.5 171.717C120.785 171.888 120.956 172.002 120.956 172.002C120.956 172.002 117.765 181.422 122.21 185.931C122.21 185.931 171.9 165.209 177.313 192.953C182.157 217.843 167.569 253.75 164.492 260.886H199.594C199.594 260.886 204.722 226.919 194.237 195.807C193.325 193.01 192.243 190.27 191.046 187.587C190.818 187.073 190.59 186.502 190.305 185.988C189.792 184.904 189.28 183.819 188.71 182.792C188.539 182.107 188.197 181.536 187.912 180.908Z" fill="#42210B"/>
<path d="M68.4738 184.276C68.7017 184.39 68.9296 184.447 69.2146 184.504C69.5565 184.619 69.9554 184.733 70.2973 184.847C70.5252 184.904 70.8101 184.961 71.0381 185.075C71.38 185.189 71.7219 185.247 72.0068 185.361C72.2347 185.418 72.5196 185.475 72.7476 185.532C73.0325 185.589 73.3744 185.646 73.6593 185.703C73.8872 185.76 74.1722 185.76 74.4001 185.817C74.685 185.874 74.9699 185.932 75.3118 185.932C75.5398 185.989 75.7677 185.989 76.0526 185.989C76.3375 185.989 76.6225 186.046 76.9074 186.046C77.1353 186.046 77.3633 186.046 77.5912 186.103C77.8761 186.103 78.104 186.103 78.389 186.103C78.6169 186.103 78.8448 186.103 79.0728 186.103C79.3007 186.103 79.5856 186.103 79.8136 186.046C80.0415 186.046 80.2694 185.989 80.4404 185.989C80.6683 185.989 80.9532 185.932 81.1812 185.932C81.4091 185.874 81.5801 185.874 81.808 185.817C82.0359 185.76 82.2639 185.76 82.4918 185.703C82.7197 185.646 82.8907 185.589 83.1186 185.532C83.3466 185.475 83.5745 185.418 83.8024 185.361C83.9734 185.304 84.2013 185.247 84.3723 185.189C84.6002 185.132 84.7712 185.018 84.9991 184.961C85.17 184.904 85.341 184.79 85.5689 184.733C85.7969 184.619 85.9678 184.561 86.1957 184.447C86.3667 184.39 86.5377 184.276 86.7086 184.162C86.8796 184.048 87.1075 183.934 87.2784 183.876C87.4494 183.762 87.6203 183.705 87.7913 183.591C87.9622 183.477 88.1332 183.363 88.3042 183.248C88.4751 183.134 88.6461 183.02 88.76 182.906C88.931 182.792 89.1019 182.678 89.2729 182.506C89.4438 182.392 89.5578 182.278 89.7288 182.164C89.8997 182.05 90.0706 181.878 90.1846 181.764C90.2986 181.65 90.4695 181.479 90.5835 181.365C90.7545 181.193 90.8684 181.079 91.0394 180.908C91.1533 180.794 91.3243 180.623 91.4383 180.508C91.6092 180.337 91.7232 180.166 91.8941 179.995C92.0081 179.823 92.1221 179.709 92.236 179.538C92.35 179.367 92.521 179.195 92.6349 179.024C92.7489 178.853 92.8629 178.682 92.9768 178.567C93.0908 178.396 93.2048 178.168 93.3757 177.997C93.4897 177.825 93.6037 177.654 93.7176 177.483C93.8316 177.311 93.9456 177.083 94.0595 176.855C94.1735 176.684 94.2305 176.512 94.3444 176.341C94.4584 176.113 94.5724 175.941 94.6863 175.713C94.8003 175.542 94.8573 175.371 94.9713 175.199C95.0852 174.971 95.1992 174.743 95.2562 174.514C95.3132 174.343 95.4271 174.172 95.4841 173.943C95.5981 173.715 95.6551 173.487 95.769 173.258C95.826 173.087 95.94 172.916 95.997 172.687C96.1109 172.459 96.1679 172.174 96.2819 171.945C96.3389 171.774 96.3959 171.546 96.4528 171.375C96.5098 171.089 96.6238 170.861 96.6808 170.575C96.7378 170.404 96.7947 170.233 96.8517 170.004C96.9087 169.719 97.0227 169.434 97.0797 169.148C97.1366 168.977 97.1936 168.806 97.1936 168.634C97.2506 168.349 97.3076 168.006 97.4216 167.721C97.4786 167.55 97.4786 167.378 97.5355 167.264C97.5925 166.865 97.7065 166.465 97.7635 166.065C97.7635 165.951 97.8205 165.894 97.8205 165.78C97.8774 165.266 97.9914 164.81 98.0484 164.296C98.1054 163.668 98.2193 163.04 98.2763 162.412C98.2763 162.241 98.2763 162.127 98.3333 161.955C98.3903 161.384 98.4473 160.756 98.4473 160.186V160.128C98.4473 160.128 98.4473 160.128 98.4473 160.071V160.014C98.4473 159.729 98.4473 159.443 98.5043 159.215C98.5043 158.987 98.5043 158.815 98.5043 158.587C98.5043 158.302 98.5043 158.073 98.5043 157.788C98.5043 157.56 98.5043 157.388 98.5043 157.16C98.5043 156.875 98.5043 156.589 98.5043 156.361C98.5043 156.132 98.5043 155.961 98.5043 155.733C98.5043 155.447 98.5043 155.162 98.5043 154.934C92.0081 187.302 66.7073 183.591 66.7073 183.591C66.9352 183.648 67.1062 183.762 67.3341 183.819C67.676 183.934 68.0749 184.105 68.4738 184.276Z" fill="#301C0A"/>
<path d="M29.3259 196.835C74.856 148.369 49.5552 95.6779 82.4919 62.5678C115.713 29.1722 144.775 54.2902 144.775 54.2902C162.839 51.493 172.697 59.7135 177.94 71.4162C173.609 56.1741 163.751 43.8434 142.211 47.2115C142.211 47.2115 113.149 22.0935 79.9276 55.4891C46.9909 88.5992 72.2918 141.29 26.7617 189.756C-10.9616 229.945 -3.43977 252.38 0.264179 258.888C-1.90121 248.156 0.321162 227.719 29.3259 196.835Z" fill="white"/>
<path d="M194.807 197.178C204.665 227.947 199.708 260.886 199.708 260.886H203.013C203.982 248.327 204.551 221.211 194.807 197.178Z" fill="#C6AB95"/>
<path d="M175.604 187.758L176.287 189.243C176.059 188.729 175.831 188.215 175.604 187.758Z" fill="#C1272D"/>
<path d="M175.49 187.587C175.49 187.587 175.547 187.644 175.49 187.587C175.49 187.644 175.547 187.701 175.547 187.701L175.49 187.587Z" fill="white"/>
<path d="M177.37 192.953C177.085 191.583 176.743 190.384 176.287 189.242L175.603 187.758C175.603 187.701 175.547 187.701 175.547 187.644C184.379 222.238 154.69 262.085 154.69 262.085H164.036C165.061 259.801 182.613 219.898 177.37 192.953Z" fill="white"/>
</g>
<defs>
<linearGradient id="paint0_linear_8_583" x1="4.85522" y1="7.4819" x2="213.976" y2="7.4819" gradientUnits="userSpaceOnUse">
<stop stop-color="#FFA13B"/>
<stop offset="1" stop-color="#D94B19"/>
</linearGradient>
<linearGradient id="paint1_linear_8_583" x1="208.118" y1="-2.1924" x2="208.118" y2="272.357" gradientUnits="userSpaceOnUse">
<stop stop-opacity="0.1"/>
<stop offset="1" stop-color="#D94B19" stop-opacity="0"/>
</linearGradient>
<linearGradient id="paint2_linear_8_583" x1="1.02481" y1="41.8752" x2="106.361" y2="4.54811" gradientUnits="userSpaceOnUse">
<stop stop-color="white" stop-opacity="0.5"/>
<stop offset="1" stop-color="#6281CD" stop-opacity="0"/>
</linearGradient>
<linearGradient id="paint3_linear_8_583" x1="57.6582" y1="-5.93757" x2="92.5174" y2="96.3431" gradientUnits="userSpaceOnUse">
<stop stop-color="white" stop-opacity="0.5"/>
<stop offset="1" stop-color="#6281CD" stop-opacity="0"/>
</linearGradient>
<linearGradient id="paint4_linear_8_583" x1="92.5086" y1="268.759" x2="134.958" y2="133.165" gradientUnits="userSpaceOnUse">
<stop stop-color="#3A210C"/>
<stop offset="1" stop-color="#603813" stop-opacity="0"/>
</linearGradient>
</defs>
</svg>
