<svg width="999" height="357" viewBox="0 0 999 357" fill="none" xmlns="http://www.w3.org/2000/svg">
<g clip-path="url(#clip0_8_739)" filter="url(#filter0_f_8_739)">
<path d="M995 60.4056V39.084C977.407 39.084 963.164 24.8442 963.164 7.25391H643.664V14.8688C643.664 15.9348 642.827 16.7725 641.76 16.7725V28.6516C642.827 28.6516 643.664 29.4893 643.664 30.5554V46.242C643.664 47.308 642.827 48.1457 641.76 48.1457V60.0248C642.827 60.0248 643.664 60.8625 643.664 61.9286V77.6152C643.664 78.6812 642.827 79.5189 641.76 79.5189V91.398C642.827 91.398 643.664 92.2357 643.664 93.3018V108.988C643.664 110.054 642.827 110.892 641.76 110.892V123.076C642.827 123.076 643.664 123.913 643.664 124.98V140.666C643.664 141.732 642.827 142.57 641.76 142.57V154.449C642.827 154.449 643.664 155.287 643.664 156.353V172.039C643.664 173.105 642.827 173.943 641.76 173.943V185.822C642.827 185.822 643.664 186.66 643.664 187.726V203.413C643.664 204.479 642.827 205.316 641.76 205.316V217.195C642.827 217.195 643.664 218.033 643.664 219.099V234.786C643.664 235.852 642.827 236.689 641.76 236.689V248.569C642.827 248.569 643.664 249.406 643.664 250.472V266.159C643.664 267.225 642.827 268.063 641.76 268.063V279.942C642.827 279.942 643.664 280.779 643.664 281.846V297.532C643.664 298.598 642.827 299.436 641.76 299.436V311.315C642.827 311.315 643.664 312.153 643.664 313.219V329.438C643.664 330.504 642.827 331.342 641.76 331.342V343.221C642.827 343.221 643.664 344.059 643.664 345.125V352.74H963.164C963.164 335.15 977.407 320.91 995 320.91V299.588C988.603 297.532 983.957 291.516 983.957 284.358C983.957 277.2 988.603 271.261 995 269.129V247.35C988.603 245.294 983.957 239.279 983.957 232.121C983.957 225.039 988.603 219.023 995 216.891V195.112C988.603 193.056 983.957 187.041 983.957 179.883C983.957 172.725 988.603 166.785 995 164.653V142.874C988.603 140.818 983.957 134.803 983.957 127.645C983.957 120.563 988.603 114.547 995 112.415V90.6366C988.603 88.5805 983.957 82.5648 983.957 75.4068C983.957 68.2489 988.603 62.5377 995 60.4056Z" fill="#D9C7A2"/>
<path d="M639.856 352.74V345.125C639.856 344.059 640.694 343.221 641.76 343.221V331.342C640.694 331.342 639.856 330.504 639.856 329.438V313.752C639.856 312.686 640.694 311.848 641.76 311.848V299.969C640.694 299.969 639.856 299.131 639.856 298.065V282.226C639.856 281.16 640.694 280.323 641.76 280.323V268.443C640.694 268.443 639.856 267.606 639.856 266.54V250.853C639.856 249.787 640.694 248.949 641.76 248.949V237.07C640.694 237.07 639.856 236.233 639.856 235.166V219.48C639.856 218.414 640.694 217.576 641.76 217.576V205.697C640.694 205.697 639.856 204.859 639.856 203.793V188.107C639.856 187.041 640.694 186.203 641.76 186.203V174.095C640.694 174.095 639.856 173.258 639.856 172.192V156.505C639.856 155.439 640.694 154.601 641.76 154.601V142.722C640.694 142.722 639.856 141.885 639.856 140.818V125.132C639.856 124.066 640.694 123.228 641.76 123.228V111.349C640.694 111.349 639.856 110.511 639.856 109.445V93.7587C639.856 92.6926 640.694 91.8549 641.76 91.8549V79.7473C640.694 79.7473 639.856 78.9097 639.856 77.8436V62.0809C639.856 61.0148 640.694 60.1772 641.76 60.1772V48.298C640.694 48.298 639.856 47.4604 639.856 46.3943V30.6315C639.856 29.5654 640.694 28.7278 641.76 28.7278V16.8486C640.694 16.8486 639.856 16.011 639.856 14.9449V7.33008H7.32983V352.74H639.856Z" fill="#D9C7A2"/>
</g>
<g clip-path="url(#clip1_8_739)">
<path d="M987.67 53.0755V31.7539C970.077 31.7539 955.835 17.5141 955.835 -0.0761719H636.334V7.53868C636.334 8.60476 635.497 9.4424 634.43 9.4424V21.3216C635.497 21.3216 636.334 22.1592 636.334 23.2253V38.9119C636.334 39.978 635.497 40.8156 634.43 40.8156V52.6948C635.497 52.6948 636.334 53.5324 636.334 54.5985V70.2851C636.334 71.3512 635.497 72.1888 634.43 72.1888V84.068C635.497 84.068 636.334 84.9056 636.334 85.9717V101.658C636.334 102.724 635.497 103.562 634.43 103.562V115.746C635.497 115.746 636.334 116.583 636.334 117.649V133.336C636.334 134.402 635.497 135.24 634.43 135.24V147.119C635.497 147.119 636.334 147.957 636.334 149.023V164.709C636.334 165.775 635.497 166.613 634.43 166.613V178.492C635.497 178.492 636.334 179.33 636.334 180.396V196.082C636.334 197.149 635.497 197.986 634.43 197.986V209.865C635.497 209.865 636.334 210.703 636.334 211.769V227.456C636.334 228.522 635.497 229.359 634.43 229.359V241.239C635.497 241.239 636.334 242.076 636.334 243.142V258.829C636.334 259.895 635.497 260.733 634.43 260.733V272.612C635.497 272.612 636.334 273.449 636.334 274.515V290.202C636.334 291.268 635.497 292.106 634.43 292.106V303.985C635.497 303.985 636.334 304.823 636.334 305.889V322.108C636.334 323.174 635.497 324.012 634.43 324.012V335.891C635.497 335.891 636.334 336.729 636.334 337.795V345.41H955.835C955.835 327.819 970.077 313.58 987.67 313.58V292.258C981.273 290.202 976.627 284.186 976.627 277.028C976.627 269.87 981.273 263.931 987.67 261.799V240.02C981.273 237.964 976.627 231.948 976.627 224.79C976.627 217.709 981.273 211.693 987.67 209.561V187.782C981.273 185.726 976.627 179.711 976.627 172.553C976.627 165.395 981.273 159.455 987.67 157.323V135.544C981.273 133.488 976.627 127.473 976.627 120.315C976.627 113.233 981.273 107.217 987.67 105.085V83.3065C981.273 81.2505 976.627 75.2347 976.627 68.0768C976.627 60.9188 981.273 55.2077 987.67 53.0755Z" fill="white"/>
<path d="M632.526 345.41V337.795C632.526 336.729 633.364 335.891 634.43 335.891V324.012C633.364 324.012 632.526 323.174 632.526 322.108V306.422C632.526 305.356 633.364 304.518 634.43 304.518V292.639C633.364 292.639 632.526 291.801 632.526 290.735V274.896C632.526 273.83 633.364 272.992 634.43 272.992V261.113C633.364 261.113 632.526 260.276 632.526 259.21V243.523C632.526 242.457 633.364 241.619 634.43 241.619V229.74C633.364 229.74 632.526 228.902 632.526 227.836V212.15C632.526 211.084 633.364 210.246 634.43 210.246V198.367C633.364 198.367 632.526 197.529 632.526 196.463V180.777C632.526 179.711 633.364 178.873 634.43 178.873V166.765C633.364 166.765 632.526 165.928 632.526 164.862V149.175C632.526 148.109 633.364 147.271 634.43 147.271V135.392C633.364 135.392 632.526 134.554 632.526 133.488V117.802C632.526 116.736 633.364 115.898 634.43 115.898V104.019C633.364 104.019 632.526 103.181 632.526 102.115V86.4286C632.526 85.3625 633.364 84.5249 634.43 84.5249V72.4173C633.364 72.4173 632.526 71.5796 632.526 70.5135V54.7508C632.526 53.6847 633.364 52.8471 634.43 52.8471V40.9679C633.364 40.9679 632.526 40.1303 632.526 39.0642V23.3015C632.526 22.2354 633.364 21.3977 634.43 21.3977V9.51857C633.364 9.51857 632.526 8.68093 632.526 7.61485V0H0V345.41H632.526Z" fill="#D94B19"/>
<g clip-path="url(#clip2_8_739)">
<path d="M540.784 212.8L424.849 442.728C428.045 443.703 431.242 444.587 434.476 445.307L548.582 219.006C546.062 216.871 543.469 214.79 540.784 212.8Z" fill="#81A6C0"/>
<path d="M580.071 259.496L485.735 446.587C489.882 445.857 493.993 444.928 498.069 443.798L585.162 271.071C583.647 267.122 581.95 263.264 580.071 259.496Z" fill="#81A6C0"/>
<path d="M361.875 235.323L336.545 285.559C334.042 295.398 332.721 305.332 332.509 315.234L383.335 214.434C375.518 220.456 368.298 227.461 361.875 235.323Z" fill="#81A6C0"/>
<path d="M555.398 225.354L443.614 447.049C447.048 447.552 450.519 447.983 453.954 448.214L562.482 232.976C560.255 230.351 557.863 227.78 555.398 225.354Z" fill="#81A6C0"/>
<path d="M568.603 240.702L463.806 448.541C467.551 448.518 471.278 448.35 475.005 448.001L574.828 250.028C572.893 246.823 570.812 243.726 568.603 240.702Z" fill="#81A6C0"/>
<path d="M507.808 195.126L391.031 426.722C393.734 428.495 396.51 430.213 399.396 431.804L516.868 198.829C513.854 197.492 510.84 196.245 507.808 195.126Z" fill="#81A6C0"/>
<path d="M398.399 204.424L333.436 333.262C334.092 338.643 335.057 343.952 336.35 349.153L412.909 197.319C407.958 199.372 403.116 201.752 398.399 204.424Z" fill="#81A6C0"/>
<path d="M489.482 189.933L375.942 415.11C378.426 417.318 380.982 419.471 383.648 421.498L499.2 192.331C495.985 191.393 492.734 190.618 489.482 189.933Z" fill="#81A6C0"/>
<path d="M425.139 192.93L340.075 361.631C341.499 365.67 343.178 369.656 344.983 373.569L437.655 189.779C433.453 190.617 429.233 191.674 425.139 192.93Z" fill="#81A6C0"/>
<path d="M469.802 187.426L362.225 400.778C364.416 403.475 366.753 406.064 369.199 408.617L480.252 188.373C476.745 187.924 473.274 187.584 469.802 187.426Z" fill="#81A6C0"/>
<path d="M448.531 188.075L350.117 383.254C352.015 386.532 354.042 389.737 356.214 392.834L459.859 187.281C456.059 187.412 452.295 187.652 448.531 188.075Z" fill="#81A6C0"/>
<path d="M524.891 202.783L407.327 435.94C410.304 437.35 413.3 438.633 416.314 439.788L533.329 207.72C530.607 205.984 527.794 204.338 524.891 202.783Z" fill="#81A6C0"/>
<path d="M593.88 315.183L538.72 424.579C545.661 419.662 552.168 414.072 558.113 407.789L591.912 340.758C593.428 332.242 594.054 323.687 593.88 315.183Z" fill="#81A6C0"/>
<path d="M589.125 283.077L510.06 439.881C514.901 438.046 519.634 435.883 524.223 433.465L592.405 298.243C591.621 293.116 590.527 288.061 589.125 283.077Z" fill="#81A6C0"/>
</g>
<g clip-path="url(#clip3_8_739)">
<path d="M538.507 63.5831L473.136 81.7754L491.329 147.146L556.699 128.954L538.507 63.5831Z" stroke="white" stroke-miterlimit="10"/>
</g>
<path d="M569.169 308.254C623.93 308.254 668.324 260.99 668.324 202.686C668.324 144.383 623.93 97.1182 569.169 97.1182C514.407 97.1182 470.014 144.383 470.014 202.686C470.014 260.99 514.407 308.254 569.169 308.254Z" stroke="white" stroke-miterlimit="10"/>
</g>
<path d="M38.588 0H0V344.971H38.588V0Z" fill="#6D260D"/>
<path d="M703.116 54.4625V55.3505C703.116 59.3585 699.732 62.5025 694.092 63.9905L694.86 65.5745C701.244 63.8705 705.204 59.9825 705.204 54.4625H703.116ZM695.22 54.4625V56.0705H704.268V54.4625H695.22ZM709.62 53.0705V65.3105H711.636V53.0705H709.62ZM697.596 66.3665V74.4785H711.636V66.3665H697.596ZM709.668 67.9745V72.8465H699.564V67.9745H709.668ZM724.618 55.2065V56.1185C724.618 58.9745 720.898 61.4705 717.082 62.0225L717.85 63.6065C722.218 62.8625 726.346 60.0065 726.346 56.1185V55.2065H724.618ZM725.122 55.2065V56.1185C725.122 60.0065 729.226 62.8625 733.618 63.6065L734.362 62.0225C730.57 61.4705 726.826 58.9745 726.826 56.1185V55.2065H725.122ZM724.69 66.4865V74.7665H726.658V66.4865H724.69ZM715.93 65.4305V67.0625H735.538V65.4305H715.93ZM717.754 54.4145V56.0225H733.642V54.4145H717.754ZM737.984 64.4705V66.1025H757.592V64.4705H737.984ZM740.528 72.6545V74.2865H755.432V72.6545H740.528ZM740.528 67.9985V73.1585H742.52V67.9985H740.528ZM747.8 53.7905C743.144 53.7905 740.168 55.4225 740.168 58.1345C740.168 60.8225 743.144 62.4545 747.8 62.4545C752.432 62.4545 755.432 60.8225 755.432 58.1345C755.432 55.4225 752.432 53.7905 747.8 53.7905ZM747.8 55.4225C751.208 55.4225 753.392 56.4305 753.392 58.1345C753.392 59.8385 751.208 60.8465 747.8 60.8465C744.392 60.8465 742.208 59.8385 742.208 58.1345C742.208 56.4305 744.392 55.4225 747.8 55.4225Z" fill="#262626"/>
<path d="M693.212 141.926C694.924 141.926 695.596 140.806 695.596 139.046V129.35H694.124V139.03C694.124 140.086 693.916 140.758 693.052 140.758C692.748 140.758 692.444 140.662 692.236 140.598L691.948 141.702C692.236 141.814 692.684 141.926 693.212 141.926ZM694.844 127.558C695.404 127.558 695.82 127.19 695.82 126.582C695.82 126.022 695.404 125.654 694.844 125.654C694.284 125.654 693.884 126.022 693.884 126.582C693.884 127.19 694.284 127.558 694.844 127.558ZM698.53 138.038H699.986V132.47C700.562 130.982 701.458 130.454 702.178 130.454C702.53 130.454 702.722 130.502 703.026 130.598L703.298 129.318C703.01 129.19 702.754 129.142 702.37 129.142C701.394 129.142 700.498 129.83 699.906 130.934H699.858L699.714 129.35H698.53V138.038ZM706.265 138.262C707.337 138.262 708.313 137.702 709.129 137.014H709.193L709.321 138.038H710.521V132.71C710.521 130.55 709.625 129.142 707.497 129.142C706.105 129.142 704.889 129.75 704.089 130.262L704.665 131.286C705.337 130.822 706.249 130.342 707.273 130.342C708.697 130.342 709.049 131.414 709.049 132.534C705.353 132.95 703.721 133.894 703.721 135.782C703.721 137.35 704.809 138.262 706.265 138.262ZM706.665 137.078C705.817 137.078 705.145 136.678 705.145 135.686C705.145 134.566 706.121 133.846 709.049 133.51V135.926C708.217 136.678 707.513 137.078 706.665 137.078ZM713.28 138.038H714.736V131.734C715.6 130.87 716.224 130.406 717.104 130.406C718.256 130.406 718.752 131.094 718.752 132.726V138.038H720.224V132.534C720.224 130.326 719.392 129.142 717.568 129.142C716.368 129.142 715.472 129.798 714.656 130.614H714.608L714.464 129.35H713.28V138.038ZM725.974 142.038C728.646 142.038 730.358 140.662 730.358 139.046C730.358 137.606 729.35 136.982 727.334 136.982H725.638C724.47 136.982 724.102 136.582 724.102 136.022C724.102 135.558 724.358 135.254 724.662 134.998C725.062 135.19 725.542 135.286 725.958 135.286C727.734 135.286 729.142 134.134 729.142 132.278C729.142 131.526 728.854 130.886 728.438 130.486H730.214V129.35H727.19C726.886 129.238 726.454 129.142 725.958 129.142C724.198 129.142 722.694 130.326 722.694 132.246C722.694 133.286 723.27 134.118 723.846 134.582V134.646C723.382 134.966 722.87 135.526 722.87 136.246C722.87 136.934 723.206 137.398 723.654 137.686V137.75C722.854 138.262 722.374 138.982 722.374 139.718C722.374 141.206 723.846 142.038 725.974 142.038ZM725.958 134.31C724.95 134.31 724.102 133.494 724.102 132.246C724.102 130.95 724.934 130.198 725.958 130.198C726.982 130.198 727.814 130.966 727.814 132.246C727.814 133.494 726.966 134.31 725.958 134.31ZM726.166 141.046C724.598 141.046 723.654 140.454 723.654 139.51C723.654 139.014 723.91 138.486 724.534 138.038C724.934 138.15 725.334 138.182 725.67 138.182H727.174C728.31 138.182 728.934 138.454 728.934 139.27C728.934 140.166 727.846 141.046 726.166 141.046ZM732.077 138.038H733.517V135.75L735.133 133.846L737.677 138.038H739.261L735.997 132.854L738.893 129.35H737.261L733.565 133.942H733.517V125.318H732.077V138.038ZM740.905 138.038H742.361V129.35H740.905V138.038ZM741.641 127.558C742.201 127.558 742.617 127.19 742.617 126.582C742.617 126.022 742.201 125.654 741.641 125.654C741.065 125.654 740.665 126.022 740.665 126.582C740.665 127.19 741.065 127.558 741.641 127.558ZM745.312 138.038H746.768V131.734C747.552 130.854 748.288 130.406 748.944 130.406C750.064 130.406 750.576 131.094 750.576 132.726V138.038H752.032V131.734C752.848 130.854 753.536 130.406 754.208 130.406C755.328 130.406 755.84 131.094 755.84 132.726V138.038H757.296V132.534C757.296 130.326 756.432 129.142 754.656 129.142C753.6 129.142 752.688 129.83 751.776 130.79C751.44 129.766 750.72 129.142 749.392 129.142C748.352 129.142 747.44 129.798 746.688 130.614H746.64L746.496 129.35H745.312V138.038ZM760.06 138.038H766.492V136.822H764.124V126.646H763.004C762.38 127.014 761.628 127.286 760.572 127.478V128.422H762.668V136.822H760.06V138.038ZM768.935 138.038H775.367V136.822H772.999V126.646H771.879C771.255 127.014 770.503 127.286 769.447 127.478V128.422H771.543V136.822H768.935V138.038ZM783.586 140.822C784.834 140.822 785.938 140.518 786.994 139.91L786.594 139.03C785.794 139.494 784.786 139.83 783.698 139.83C780.658 139.83 778.37 137.846 778.37 134.358C778.37 130.182 781.458 127.478 784.642 127.478C787.89 127.478 789.586 129.574 789.586 132.47C789.586 134.79 788.306 136.166 787.186 136.166C786.194 136.166 785.858 135.494 786.21 134.07L786.914 130.502H785.938L785.746 131.222H785.714C785.378 130.63 784.882 130.358 784.274 130.358C782.194 130.358 780.834 132.598 780.834 134.502C780.834 136.118 781.778 137.03 782.994 137.03C783.778 137.03 784.578 136.486 785.17 135.814H785.202C785.314 136.71 786.066 137.158 787.058 137.158C788.674 137.158 790.626 135.542 790.626 132.422C790.626 128.886 788.354 126.486 784.754 126.486C780.77 126.486 777.298 129.622 777.298 134.406C777.298 138.582 780.098 140.822 783.586 140.822ZM783.266 136.022C782.546 136.022 782.002 135.574 782.002 134.422C782.002 133.062 782.882 131.382 784.29 131.382C784.786 131.382 785.106 131.574 785.442 132.118L784.93 134.966C784.306 135.718 783.762 136.022 783.266 136.022ZM795.943 142.038C798.615 142.038 800.327 140.662 800.327 139.046C800.327 137.606 799.319 136.982 797.303 136.982H795.607C794.439 136.982 794.071 136.582 794.071 136.022C794.071 135.558 794.327 135.254 794.631 134.998C795.031 135.19 795.511 135.286 795.927 135.286C797.703 135.286 799.111 134.134 799.111 132.278C799.111 131.526 798.823 130.886 798.407 130.486H800.183V129.35H797.159C796.855 129.238 796.423 129.142 795.927 129.142C794.167 129.142 792.663 130.326 792.663 132.246C792.663 133.286 793.239 134.118 793.815 134.582V134.646C793.351 134.966 792.839 135.526 792.839 136.246C792.839 136.934 793.175 137.398 793.623 137.686V137.75C792.823 138.262 792.343 138.982 792.343 139.718C792.343 141.206 793.815 142.038 795.943 142.038ZM795.927 134.31C794.919 134.31 794.071 133.494 794.071 132.246C794.071 130.95 794.903 130.198 795.927 130.198C796.951 130.198 797.783 130.966 797.783 132.246C797.783 133.494 796.935 134.31 795.927 134.31ZM796.135 141.046C794.567 141.046 793.623 140.454 793.623 139.51C793.623 139.014 793.879 138.486 794.503 138.038C794.903 138.15 795.303 138.182 795.639 138.182H797.143C798.279 138.182 798.903 138.454 798.903 139.27C798.903 140.166 797.815 141.046 796.135 141.046ZM802.046 138.038H803.502V131.734C804.286 130.854 805.022 130.406 805.678 130.406C806.798 130.406 807.31 131.094 807.31 132.726V138.038H808.766V131.734C809.582 130.854 810.27 130.406 810.942 130.406C812.062 130.406 812.574 131.094 812.574 132.726V138.038H814.03V132.534C814.03 130.326 813.166 129.142 811.39 129.142C810.334 129.142 809.422 129.83 808.51 130.79C808.174 129.766 807.454 129.142 806.126 129.142C805.086 129.142 804.174 129.798 803.422 130.614H803.374L803.23 129.35H802.046V138.038ZM818.858 138.262C819.93 138.262 820.906 137.702 821.722 137.014H821.786L821.914 138.038H823.114V132.71C823.114 130.55 822.218 129.142 820.09 129.142C818.698 129.142 817.482 129.75 816.682 130.262L817.258 131.286C817.93 130.822 818.842 130.342 819.866 130.342C821.29 130.342 821.642 131.414 821.642 132.534C817.946 132.95 816.314 133.894 816.314 135.782C816.314 137.35 817.402 138.262 818.858 138.262ZM819.258 137.078C818.41 137.078 817.738 136.678 817.738 135.686C817.738 134.566 818.714 133.846 821.642 133.51V135.926C820.81 136.678 820.106 137.078 819.258 137.078ZM825.874 138.038H827.33V129.35H825.874V138.038ZM826.61 127.558C827.17 127.558 827.586 127.19 827.586 126.582C827.586 126.022 827.17 125.654 826.61 125.654C826.034 125.654 825.634 126.022 825.634 126.582C825.634 127.19 826.034 127.558 826.61 127.558ZM831.816 138.262C832.216 138.262 832.44 138.198 832.648 138.134L832.456 137.014C832.28 137.046 832.216 137.046 832.152 137.046C831.928 137.046 831.736 136.87 831.736 136.406V125.318H830.28V136.31C830.28 137.558 830.712 138.262 831.816 138.262ZM835.563 138.262C836.155 138.262 836.635 137.798 836.635 137.142C836.635 136.47 836.155 136.022 835.563 136.022C834.987 136.022 834.523 136.47 834.523 137.142C834.523 137.798 834.987 138.262 835.563 138.262ZM842.438 138.262C843.478 138.262 844.486 137.846 845.254 137.158L844.63 136.182C844.086 136.662 843.366 137.046 842.582 137.046C840.982 137.046 839.878 135.702 839.878 133.718C839.878 131.702 841.03 130.358 842.63 130.358C843.302 130.358 843.846 130.662 844.358 131.126L845.094 130.166C844.486 129.606 843.686 129.142 842.55 129.142C840.326 129.142 838.374 130.806 838.374 133.718C838.374 136.582 840.134 138.262 842.438 138.262ZM850.141 138.262C852.269 138.262 854.157 136.582 854.157 133.718C854.157 130.806 852.269 129.142 850.141 129.142C847.997 129.142 846.109 130.806 846.109 133.718C846.109 136.582 847.997 138.262 850.141 138.262ZM850.141 137.046C848.621 137.046 847.613 135.702 847.613 133.718C847.613 131.702 848.621 130.358 850.141 130.358C851.645 130.358 852.653 131.702 852.653 133.718C852.653 135.702 851.645 137.046 850.141 137.046ZM856.468 138.038H857.924V131.734C858.708 130.854 859.444 130.406 860.1 130.406C861.22 130.406 861.732 131.094 861.732 132.726V138.038H863.188V131.734C864.004 130.854 864.692 130.406 865.364 130.406C866.484 130.406 866.996 131.094 866.996 132.726V138.038H868.452V132.534C868.452 130.326 867.588 129.142 865.812 129.142C864.756 129.142 863.844 129.83 862.932 130.79C862.596 129.766 861.876 129.142 860.548 129.142C859.508 129.142 858.596 129.798 857.844 130.614H857.796L857.652 129.35H856.468V138.038Z" fill="#262626"/>
<path d="M697.1 212.349C699.308 212.349 700.732 210.317 700.732 206.221C700.732 202.157 699.308 200.189 697.1 200.189C694.86 200.189 693.436 202.157 693.436 206.221C693.436 210.317 694.86 212.349 697.1 212.349ZM697.1 211.165C695.756 211.165 694.844 209.677 694.844 206.221C694.844 202.813 695.756 201.357 697.1 201.357C698.428 201.357 699.324 202.813 699.324 206.221C699.324 209.677 698.428 211.165 697.1 211.165ZM702.935 212.125H709.367V210.909H706.999V200.397H705.879C705.255 200.781 704.503 201.053 703.447 201.229V202.173H705.543V210.909H702.935V212.125ZM714.85 212.349C717.058 212.349 718.482 210.317 718.482 206.221C718.482 202.157 717.058 200.189 714.85 200.189C712.61 200.189 711.186 202.157 711.186 206.221C711.186 210.317 712.61 212.349 714.85 212.349ZM714.85 211.165C713.506 211.165 712.594 209.677 712.594 206.221C712.594 202.813 713.506 201.357 714.85 201.357C716.178 201.357 717.074 202.813 717.074 206.221C717.074 209.677 716.178 211.165 714.85 211.165ZM720.013 208.221H724.109V207.101H720.013V208.221ZM729.032 212.349C731.128 212.349 732.808 211.085 732.808 209.005C732.808 207.389 731.688 206.349 730.312 206.013V205.949C731.56 205.501 732.392 204.557 732.392 203.133C732.392 201.261 730.952 200.189 728.984 200.189C727.64 200.189 726.6 200.781 725.72 201.581L726.504 202.525C727.16 201.853 727.992 201.373 728.936 201.373C730.152 201.373 730.904 202.109 730.904 203.229C730.904 204.509 730.088 205.469 727.672 205.469V206.605C730.376 206.605 731.32 207.533 731.32 208.941C731.32 210.285 730.328 211.133 728.936 211.133C727.592 211.133 726.712 210.493 726.024 209.773L725.288 210.733C726.056 211.581 727.192 212.349 729.032 212.349ZM734.403 212.125H741.763V210.877H738.515C737.923 210.877 737.219 210.925 736.595 210.989C739.363 208.381 741.203 205.997 741.203 203.645C741.203 201.549 739.891 200.189 737.795 200.189C736.307 200.189 735.283 200.877 734.323 201.917L735.171 202.733C735.827 201.965 736.659 201.373 737.619 201.373C739.075 201.373 739.763 202.365 739.763 203.709C739.763 205.709 738.083 208.061 734.403 211.277V212.125ZM745.726 212.125H747.246C747.438 207.549 747.934 204.813 750.686 201.277V200.397H743.358V201.645H749.038C746.734 204.845 745.934 207.693 745.726 212.125ZM755.897 212.349C758.105 212.349 759.529 210.317 759.529 206.221C759.529 202.157 758.105 200.189 755.897 200.189C753.657 200.189 752.233 202.157 752.233 206.221C752.233 210.317 753.657 212.349 755.897 212.349ZM755.897 211.165C754.553 211.165 753.641 209.677 753.641 206.221C753.641 202.813 754.553 201.357 755.897 201.357C757.225 201.357 758.121 202.813 758.121 206.221C758.121 209.677 757.225 211.165 755.897 211.165ZM761.06 208.221H765.156V207.101H761.06V208.221ZM766.575 212.125H773.935V210.877H770.687C770.095 210.877 769.391 210.925 768.767 210.989C771.535 208.381 773.375 205.997 773.375 203.645C773.375 201.549 772.063 200.189 769.967 200.189C768.479 200.189 767.455 200.877 766.495 201.917L767.343 202.733C767.999 201.965 768.831 201.373 769.791 201.373C771.247 201.373 771.935 202.365 771.935 203.709C771.935 205.709 770.255 208.061 766.575 211.277V212.125ZM778.922 212.349C780.89 212.349 782.762 210.877 782.762 208.317C782.762 205.725 781.178 204.573 779.226 204.573C778.522 204.573 777.994 204.749 777.466 205.037L777.77 201.645H782.202V200.397H776.49L776.122 205.885L776.906 206.381C777.578 205.933 778.074 205.677 778.858 205.677C780.314 205.677 781.274 206.685 781.274 208.365C781.274 210.061 780.17 211.133 778.778 211.133C777.434 211.133 776.57 210.509 775.914 209.821L775.178 210.781C775.978 211.581 777.098 212.349 778.922 212.349ZM786.773 212.125H788.293C788.485 207.549 788.981 204.813 791.733 201.277V200.397H784.405V201.645H790.085C787.781 204.845 786.981 207.693 786.773 212.125ZM793.904 212.125H800.336V210.909H797.968V200.397H796.848C796.224 200.781 795.472 201.053 794.416 201.229V202.173H796.512V210.909H793.904V212.125Z" fill="#262626"/>
<path d="M693.212 293.275C694.924 293.275 695.596 292.155 695.596 290.395V280.699H694.124V290.379C694.124 291.435 693.916 292.107 693.052 292.107C692.748 292.107 692.444 292.011 692.236 291.947L691.948 293.051C692.236 293.163 692.684 293.275 693.212 293.275ZM694.844 278.907C695.404 278.907 695.82 278.539 695.82 277.931C695.82 277.371 695.404 277.003 694.844 277.003C694.284 277.003 693.884 277.371 693.884 277.931C693.884 278.539 694.284 278.907 694.844 278.907ZM698.53 289.387H699.986V283.819C700.562 282.331 701.458 281.803 702.178 281.803C702.53 281.803 702.722 281.851 703.026 281.947L703.298 280.667C703.01 280.539 702.754 280.491 702.37 280.491C701.394 280.491 700.498 281.179 699.906 282.283H699.858L699.714 280.699H698.53V289.387ZM706.265 289.611C707.337 289.611 708.313 289.051 709.129 288.363H709.193L709.321 289.387H710.521V284.059C710.521 281.899 709.625 280.491 707.497 280.491C706.105 280.491 704.889 281.099 704.089 281.611L704.665 282.635C705.337 282.171 706.249 281.691 707.273 281.691C708.697 281.691 709.049 282.763 709.049 283.883C705.353 284.299 703.721 285.243 703.721 287.131C703.721 288.699 704.809 289.611 706.265 289.611ZM706.665 288.427C705.817 288.427 705.145 288.027 705.145 287.035C705.145 285.915 706.121 285.195 709.049 284.859V287.275C708.217 288.027 707.513 288.427 706.665 288.427ZM713.28 289.387H714.736V283.083C715.6 282.219 716.224 281.755 717.104 281.755C718.256 281.755 718.752 282.443 718.752 284.075V289.387H720.224V283.883C720.224 281.675 719.392 280.491 717.568 280.491C716.368 280.491 715.472 281.147 714.656 281.963H714.608L714.464 280.699H713.28V289.387ZM725.974 293.387C728.646 293.387 730.358 292.011 730.358 290.395C730.358 288.955 729.35 288.331 727.334 288.331H725.638C724.47 288.331 724.102 287.931 724.102 287.371C724.102 286.907 724.358 286.603 724.662 286.347C725.062 286.539 725.542 286.635 725.958 286.635C727.734 286.635 729.142 285.483 729.142 283.627C729.142 282.875 728.854 282.235 728.438 281.835H730.214V280.699H727.19C726.886 280.587 726.454 280.491 725.958 280.491C724.198 280.491 722.694 281.675 722.694 283.595C722.694 284.635 723.27 285.467 723.846 285.931V285.995C723.382 286.315 722.87 286.875 722.87 287.595C722.87 288.283 723.206 288.747 723.654 289.035V289.099C722.854 289.611 722.374 290.331 722.374 291.067C722.374 292.555 723.846 293.387 725.974 293.387ZM725.958 285.659C724.95 285.659 724.102 284.843 724.102 283.595C724.102 282.299 724.934 281.547 725.958 281.547C726.982 281.547 727.814 282.315 727.814 283.595C727.814 284.843 726.966 285.659 725.958 285.659ZM726.166 292.395C724.598 292.395 723.654 291.803 723.654 290.859C723.654 290.363 723.91 289.835 724.534 289.387C724.934 289.499 725.334 289.531 725.67 289.531H727.174C728.31 289.531 728.934 289.803 728.934 290.619C728.934 291.515 727.846 292.395 726.166 292.395ZM732.013 289.387H738.445V288.171H736.077V277.995H734.957C734.333 278.363 733.581 278.635 732.525 278.827V279.771H734.621V288.171H732.013V289.387ZM740.888 289.387H747.32V288.171H744.952V277.995H743.832C743.208 278.363 742.456 278.635 741.4 278.827V279.771H743.496V288.171H740.888V289.387Z" fill="#262626"/>
<path d="M694.252 113.696H701.18V112.448H695.74V108.16H700.172V106.896H695.74V103.216H701.004V101.968H694.252V113.696ZM702.81 109.792H706.906V108.672H702.81V109.792ZM709.221 113.696H710.565V107.216C710.565 106.192 710.453 104.784 710.373 103.744H710.437L711.365 106.416L713.589 112.528H714.581L716.805 106.416L717.733 103.744H717.813C717.733 104.784 717.621 106.192 717.621 107.216V113.696H718.997V101.968H717.205L714.981 108.256C714.709 109.056 714.453 109.872 714.165 110.704H714.101C713.813 109.872 713.541 109.056 713.253 108.256L710.997 101.968H709.221V113.696ZM720.653 113.696H722.157L724.221 107.136C724.653 105.824 725.021 104.544 725.405 103.184H725.469C725.853 104.544 726.221 105.824 726.637 107.136L728.701 113.696H730.253L726.285 101.968H724.621L720.653 113.696ZM722.733 110.112H728.141V108.944H722.733V110.112ZM731.94 113.696H733.428V101.968H731.94V113.696ZM736.627 113.696H743.235V112.448H738.115V101.968H736.627V113.696Z" fill="#262626"/>
<path d="M694.252 185.666H695.66V179.522C695.66 178.274 695.548 177.042 695.468 175.858H695.548L696.812 178.274L701.068 185.666H702.604V173.938H701.18V180.034C701.18 181.25 701.292 182.578 701.388 183.762H701.308L700.044 181.33L695.772 173.938H694.252V185.666ZM709.975 185.89C712.375 185.89 714.199 184.594 714.199 180.834V173.938H712.775V180.882C712.775 183.698 711.527 184.578 709.975 184.578C708.439 184.578 707.239 183.698 707.239 180.882V173.938H705.767V180.834C705.767 184.594 707.591 185.89 709.975 185.89ZM717.346 185.666H718.69V179.186C718.69 178.162 718.578 176.754 718.498 175.714H718.562L719.49 178.386L721.714 184.498H722.706L724.93 178.386L725.858 175.714H725.938C725.858 176.754 725.746 178.162 725.746 179.186V185.666H727.122V173.938H725.33L723.106 180.226C722.834 181.026 722.578 181.842 722.29 182.674H722.226C721.938 181.842 721.666 181.026 721.378 180.226L719.122 173.938H717.346V185.666ZM730.33 185.666H734.074C736.682 185.666 738.506 184.53 738.506 182.242C738.506 180.642 737.53 179.698 736.122 179.426V179.362C737.226 178.994 737.834 177.97 737.834 176.818C737.834 174.754 736.186 173.938 733.802 173.938H730.33V185.666ZM731.818 178.93V175.106H733.626C735.45 175.106 736.378 175.618 736.378 176.994C736.378 178.194 735.562 178.93 733.546 178.93H731.818ZM731.818 184.498V180.066H733.866C735.914 180.066 737.066 180.738 737.066 182.194C737.066 183.778 735.866 184.498 733.866 184.498H731.818ZM740.846 185.666H747.774V184.418H742.334V180.13H746.766V178.866H742.334V175.186H747.598V173.938H740.846V185.666ZM750.268 185.666H751.756V180.706H753.932C756.316 180.706 758.028 179.586 758.028 177.234C758.028 174.802 756.316 173.938 753.932 173.938H750.268V185.666ZM751.756 179.506V175.154H753.724C755.548 175.154 756.556 175.698 756.556 177.234C756.556 178.754 755.548 179.506 753.724 179.506H751.756ZM756.716 185.666H758.38L754.796 179.538L753.644 180.306L756.716 185.666Z" fill="#262626"/>
<path d="M694.252 262.928H695.74V259.216L697.756 256.832L701.276 262.928H702.908L698.668 255.664L702.348 251.2H700.668L695.772 257.104H695.74V251.2H694.252V262.928ZM702.825 262.928H704.329L706.393 256.368C706.825 255.056 707.193 253.776 707.577 252.416H707.641C708.025 253.776 708.393 255.056 708.809 256.368L710.873 262.928H712.425L708.457 251.2H706.793L702.825 262.928ZM704.905 259.344H710.313V258.176H704.905V259.344ZM714.111 262.928H715.599V259.216L717.615 256.832L721.135 262.928H722.767L718.527 255.664L722.207 251.2H720.527L715.631 257.104H715.599V251.2H714.111V262.928ZM722.684 262.928H724.188L726.252 256.368C726.684 255.056 727.052 253.776 727.436 252.416H727.5C727.884 253.776 728.252 255.056 728.668 256.368L730.732 262.928H732.284L728.316 251.2H726.652L722.684 262.928ZM724.764 259.344H730.172V258.176H724.764V259.344ZM738.088 263.152C741.032 263.152 743.08 260.784 743.08 257.024C743.08 253.28 741.032 250.992 738.088 250.992C735.128 250.992 733.08 253.264 733.08 257.024C733.08 260.784 735.128 263.152 738.088 263.152ZM738.088 261.84C735.976 261.84 734.6 259.952 734.6 257.024C734.6 254.096 735.976 252.288 738.088 252.288C740.184 252.288 741.576 254.096 741.576 257.024C741.576 259.952 740.184 261.84 738.088 261.84ZM749.205 262.928H750.693V251.2H749.205V262.928ZM753.893 262.928H756.901C760.437 262.928 762.357 260.752 762.357 257.024C762.357 253.296 760.437 251.2 756.821 251.2H753.893V262.928ZM755.381 261.712V252.416H756.709C759.461 252.416 760.837 254.048 760.837 257.024C760.837 260 759.461 261.712 756.709 261.712H755.381Z" fill="#262626"/>
<path d="M74.6505 92.1883V93.7963H79.4745V92.1883H74.6505ZM74.4825 97.6363V99.2443H79.4265V97.6363H74.4825ZM82.7625 86.1643V107.86H84.6825V86.1643H82.7625ZM78.4185 86.7163V106.756H80.2905V86.7163H78.4185ZM73.5705 88.9003V89.2603C73.5705 94.3723 71.2905 98.6923 66.2265 101.764L67.3785 103.18C73.2105 99.7003 75.4905 94.5883 75.4905 88.9003H73.5705ZM67.1865 88.9003V90.5323H74.3625V88.9003H67.1865ZM88.3047 97.0363V98.6683H107.985V97.0363H88.3047ZM97.1127 93.7483V97.7803H99.0807V93.7483H97.1127ZM97.0887 86.5003V87.4603C97.0887 90.3643 93.3687 92.7643 89.4807 93.2923L90.2487 94.8763C94.6647 94.1563 98.8167 91.3723 98.8167 87.4603V86.5003H97.0887ZM97.4007 86.5003V87.4603C97.4007 91.3723 101.577 94.1323 105.969 94.8763L106.713 93.2923C102.849 92.7643 99.1047 90.3643 99.1047 87.4603V86.5003H97.4007ZM90.4887 100.78V102.388H103.497V107.86H105.489V100.78H90.4887ZM125.494 99.8443C120.862 99.8443 117.934 101.356 117.934 103.852C117.934 106.324 120.862 107.812 125.494 107.812C130.102 107.812 133.054 106.324 133.054 103.852C133.054 101.356 130.102 99.8443 125.494 99.8443ZM125.494 101.404C128.902 101.404 131.062 102.34 131.062 103.852C131.062 105.34 128.902 106.276 125.494 106.276C122.086 106.276 119.902 105.34 119.902 103.852C119.902 102.34 122.086 101.404 125.494 101.404ZM118.102 87.2443V88.8763H132.07V87.2443H118.102ZM115.774 96.2683V97.8763H135.358V96.2683H115.774ZM123.814 92.0923V96.7243H125.782V92.0923H123.814ZM130.918 87.2443V89.0923C130.918 90.7963 130.918 92.3803 130.318 94.6123L132.286 94.8523C132.862 92.5963 132.862 90.8443 132.862 89.0923V87.2443H130.918ZM137.828 99.0043V100.636H157.508V99.0043H137.828ZM146.612 99.7723V107.86H148.58V99.7723H146.612ZM140.3 87.0283V96.4123H154.988V87.0283H153.02V90.0043H142.292V87.0283H140.3ZM142.292 91.6123H153.02V94.8043H142.292V91.6123ZM174.618 86.1643V107.86H176.61V86.1643H174.618ZM176.13 95.0683V96.7483H180.162V95.0683H176.13ZM159.81 89.6203V91.2523H172.602V89.6203H159.81ZM166.29 93.0523C163.242 93.0523 161.01 95.1163 161.01 98.0443C161.01 100.972 163.242 103.036 166.29 103.036C169.362 103.036 171.57 100.972 171.57 98.0443C171.57 95.1163 169.362 93.0523 166.29 93.0523ZM166.29 94.7083C168.258 94.7083 169.674 96.0763 169.674 98.0443C169.674 99.9883 168.258 101.38 166.29 101.38C164.322 101.38 162.906 99.9883 162.906 98.0443C162.906 96.0763 164.322 94.7083 166.29 94.7083ZM165.258 86.4283V90.3643H167.25V86.4283H165.258ZM184.072 88.3243V89.9803H198.04V88.3243H184.072ZM182.008 103.18V104.836H201.616V103.18H182.008ZM189.616 95.4283V103.996H191.608V95.4283H189.616ZM197.296 88.3243V90.4843C197.296 93.0763 197.296 96.1243 196.48 100.276L198.472 100.54C199.264 96.1483 199.264 93.1723 199.264 90.4843V88.3243H197.296ZM214.902 87.3883V89.6203C214.902 92.9323 212.742 95.8363 209.43 97.0123L210.462 98.6443C214.182 97.2523 216.558 93.8203 216.558 89.6203V87.3883H214.902ZM215.262 87.3883V89.5483C215.262 93.4843 217.59 96.6763 221.094 97.9963L222.174 96.4363C219.006 95.3323 216.894 92.6203 216.894 89.5483V87.3883H215.262ZM225.294 86.1643V99.0043H227.286V86.1643H225.294ZM220.158 99.6283C215.67 99.6283 212.91 101.14 212.91 103.732C212.91 106.324 215.67 107.812 220.158 107.812C224.622 107.812 227.382 106.324 227.382 103.732C227.382 101.14 224.622 99.6283 220.158 99.6283ZM220.158 101.212C223.422 101.212 225.414 102.148 225.414 103.732C225.414 105.316 223.422 106.252 220.158 106.252C216.894 106.252 214.902 105.316 214.902 103.732C214.902 102.148 216.894 101.212 220.158 101.212ZM220.59 90.7483V92.4043H225.726V90.7483H220.59ZM236.86 88.4923V90.2443C236.86 93.3403 234.7 96.1483 231.436 97.3003L232.444 98.8843C236.092 97.5643 238.492 94.2283 238.492 90.2443V88.4923H236.86ZM237.22 88.4923V90.2203C237.22 93.9163 239.524 97.0123 243.148 98.2123L244.108 96.6523C240.916 95.5963 238.852 93.0523 238.852 90.2203V88.4923H237.22ZM232.036 87.7723V89.4043H243.628V87.7723H232.036ZM246.364 86.1643V99.2443H248.356V86.1643H246.364ZM247.804 91.6603V93.3403H251.572V91.6603H247.804ZM241.444 99.8203C237.028 99.8203 234.316 101.284 234.316 103.804C234.316 106.348 237.028 107.812 241.444 107.812C245.86 107.812 248.572 106.348 248.572 103.804C248.572 101.284 245.86 99.8203 241.444 99.8203ZM241.444 101.428C244.66 101.428 246.628 102.292 246.628 103.804C246.628 105.34 244.66 106.252 241.444 106.252C238.228 106.252 236.26 105.34 236.26 103.804C236.26 102.292 238.228 101.428 241.444 101.428ZM268.298 86.1643V107.86H270.29V86.1643H268.298ZM269.81 95.0683V96.7483H273.842V95.0683H269.81ZM253.49 89.6203V91.2523H266.282V89.6203H253.49ZM259.97 93.0523C256.922 93.0523 254.69 95.1163 254.69 98.0443C254.69 100.972 256.922 103.036 259.97 103.036C263.042 103.036 265.25 100.972 265.25 98.0443C265.25 95.1163 263.042 93.0523 259.97 93.0523ZM259.97 94.7083C261.938 94.7083 263.354 96.0763 263.354 98.0443C263.354 99.9883 261.938 101.38 259.97 101.38C258.002 101.38 256.586 99.9883 256.586 98.0443C256.586 96.0763 258.002 94.7083 259.97 94.7083ZM258.938 86.4283V90.3643H260.93V86.4283H258.938ZM278.328 92.6683V94.3003H293.064V92.6683H278.328ZM275.664 97.2043V98.8363H295.344V97.2043H275.664ZM278.328 86.9563V93.4843H280.296V86.9563H278.328ZM278.184 105.7V107.332H293.184V105.7H278.184ZM278.184 100.996V106.132H280.152V100.996H278.184ZM81.9945 121.164V142.908H83.9865V121.164H81.9945ZM67.6425 135.828V137.508H69.3945C73.7625 137.508 76.5945 137.388 79.9065 136.764L79.6905 135.084C76.4745 135.684 73.6905 135.828 69.3945 135.828H67.6425ZM67.6425 123.228V136.452H69.6105V124.884H77.8905V123.228H67.6425ZM93.6807 124.26V127.788C93.6807 131.46 91.0647 135.588 87.9687 137.1L89.1207 138.684C92.5047 136.956 95.2647 132.3 95.2647 127.788V124.26H93.6807ZM94.0407 124.26V127.788C94.0407 132.084 96.6567 136.452 100.089 138.156L101.217 136.572C98.0727 135.084 95.6247 131.22 95.6247 127.788V124.26H94.0407ZM88.7367 123.372V125.052H100.425V123.372H88.7367ZM102.993 121.164V142.86H105.009V121.164H102.993ZM104.529 129.924V131.604H108.561V129.924H104.529ZM126.151 121.14V142.884H128.143V121.14H126.151ZM116.695 122.82C113.503 122.82 111.199 125.772 111.199 130.38C111.199 135.012 113.503 137.964 116.695 137.964C119.911 137.964 122.215 135.012 122.215 130.38C122.215 125.772 119.911 122.82 116.695 122.82ZM116.695 124.62C118.831 124.62 120.295 126.876 120.295 130.38C120.295 133.908 118.831 136.212 116.695 136.212C114.583 136.212 113.095 133.908 113.095 130.38C113.095 126.876 114.583 124.62 116.695 124.62ZM148.373 121.164V142.908H150.365V121.164H148.373ZM141.701 128.316V129.948H149.021V128.316H141.701ZM133.661 123.588V137.028H135.629V123.588H133.661ZM133.661 135.972V137.652H135.341C138.773 137.652 141.821 137.436 145.277 136.764L145.037 135.084C141.701 135.78 138.701 135.972 135.341 135.972H133.661ZM169.227 121.14V142.86H171.243V121.14H169.227ZM170.691 129.948V131.604H174.699V129.948H170.691ZM163.683 123.492V123.804C163.683 129.54 160.683 134.172 154.683 137.22L155.787 138.756C162.795 135.228 165.627 129.66 165.627 123.492H163.683ZM155.691 123.492V125.124H164.715V123.492H155.691ZM183.712 130.5V132.132H194.824V130.5H183.712ZM188.152 131.796V136.788H190.168V131.796H188.152ZM183.712 123.204V131.076H185.704V124.836H194.704V123.204H183.712ZM197.68 121.14V142.884H199.672V121.14H197.68ZM182.392 138.18C186.496 138.204 191.68 138.108 196.432 137.388L196.264 135.9C191.68 136.452 186.352 136.5 182.104 136.524L182.392 138.18ZM211.598 122.748V123.396C211.598 127.5 209.054 130.692 204.278 132.66L205.286 134.124C210.71 131.82 213.59 127.932 213.59 122.748H211.598ZM205.214 122.748V124.404H212.366V122.748H205.214ZM220.454 121.164V133.692H222.35V121.164H220.454ZM211.358 127.332V128.94H216.59V127.332H211.358ZM216.158 121.62V133.356H218.03V121.62H216.158ZM209.702 134.436V135.852C209.702 137.964 208.046 140.316 205.334 141.3L206.318 142.788C209.438 141.588 211.238 138.708 211.238 135.852V134.436H209.702ZM210.134 134.436V135.852C210.134 138.756 211.526 141.732 214.67 142.98L215.51 141.492C212.894 140.388 211.622 138.06 211.622 135.852V134.436H210.134ZM217.67 134.436V135.852C217.67 137.724 216.398 140.292 213.782 141.492L214.67 142.98C217.742 141.66 219.158 138.42 219.158 135.852V134.436H217.67ZM218.078 134.436V135.852C218.078 138.876 219.854 141.636 222.998 142.788L223.982 141.3C221.246 140.388 219.614 138.132 219.614 135.852V134.436H218.078ZM228.637 134.172V142.572H243.205V134.172H241.213V136.692H230.605V134.172H228.637ZM230.605 138.228H241.213V140.964H230.605V138.228ZM226.141 131.052V132.66H245.749V131.052H226.141ZM234.949 121.404V122.364C234.949 125.1 231.181 127.428 227.269 127.956L227.989 129.516C232.453 128.844 236.653 126.132 236.653 122.364V121.404H234.949ZM235.261 121.404V122.364C235.261 126.084 239.485 128.844 243.901 129.516L244.645 127.956C240.781 127.428 236.965 125.052 236.965 122.364V121.404H235.261ZM264.011 121.164V142.86H266.003V121.164H264.011ZM249.611 123.276V136.716H251.579V123.276H249.611ZM249.611 135.54V137.268H251.387C254.819 137.268 258.251 137.004 262.019 136.236L261.779 134.532C258.107 135.3 254.675 135.54 251.387 135.54H249.611ZM284.985 121.14V142.884H287.001V121.14H284.985ZM286.521 129.708V131.388H290.553V129.708H286.521ZM271.233 135.804V137.484H272.937C277.017 137.484 279.873 137.364 283.209 136.74L282.993 135.06C279.753 135.66 276.945 135.804 272.937 135.804H271.233ZM271.233 123.252V136.548H273.201V124.884H281.313V123.252H271.233Z" fill="#F1E2C3"/>
<path d="M65.8505 59.4135V60.5175H78.9545V59.4135H65.8505ZM71.6905 55.6695V59.9095H73.0185V55.6695H71.6905ZM66.9865 49.2215V50.3095H77.7225V49.2215H66.9865ZM67.0185 55.0455V56.1175H77.7065V55.0455H67.0185ZM69.2425 50.1015V55.2375H70.5705V50.1015H69.2425ZM74.1705 50.1015V55.2375H75.4825V50.1015H74.1705ZM82.2493 55.6375V56.7095H92.1853V55.6375H82.2493ZM80.5693 59.3495V60.4535H93.6733V59.3495H80.5693ZM82.2493 49.0775V55.9735H83.5933V50.1655H92.0253V49.0775H82.2493ZM83.1613 52.3095V53.3655H91.7213V52.3095H83.1613ZM96.488 48.2135V49.2535H107.112V48.2135H96.488ZM96.552 52.0055V53.0295H107.048V52.0055H96.552ZM98.68 48.6135V52.6775H100.008V48.6135H98.68ZM103.608 48.6135V52.6775H104.92V48.6135H103.608ZM95.272 54.4055V55.4615H108.344V54.4055H95.272ZM101.144 52.7415V54.9655H102.456V52.7415H101.144ZM96.856 56.5975V57.5895H105.368V58.8055H96.888V61.5415H98.2V59.7495H106.68V56.5975H96.856ZM96.888 61.1415V62.1495H107.112V61.1415H96.888ZM120.535 47.8295V62.3255H121.863V47.8295H120.535ZM110.839 57.7335V58.8375H112.039C114.519 58.8375 116.695 58.7415 119.319 58.3095L119.175 57.2215C116.615 57.6375 114.455 57.7335 112.039 57.7335H110.839ZM110.807 49.1895V50.2775H116.151V53.2695H110.839V58.1495H112.167V54.3575H117.495V49.1895H110.807ZM130.582 56.0215V59.6215H131.91V56.0215H130.582ZM131.254 48.7895C128.198 48.7895 125.99 50.2775 125.99 52.5815C125.99 54.8855 128.198 56.3735 131.254 56.3735C134.31 56.3735 136.502 54.8855 136.502 52.5815C136.502 50.2775 134.31 48.7895 131.254 48.7895ZM131.254 49.8455C133.542 49.8455 135.222 50.9335 135.222 52.5815C135.222 54.2295 133.542 55.3175 131.254 55.3175C128.95 55.3175 127.27 54.2295 127.27 52.5815C127.27 50.9335 128.95 49.8455 131.254 49.8455ZM124.726 59.3655V60.4695H137.83V59.3655H124.726ZM154.014 47.8455V62.3095H155.294V47.8455H154.014ZM148.75 53.0295V54.1335H151.518V53.0295H148.75ZM151.118 48.1815V61.5735H152.366V48.1815H151.118ZM145.966 50.0855V51.9255C145.966 54.5815 144.846 57.2215 142.83 58.4375L143.646 59.4295C145.774 58.0855 146.99 55.0935 146.99 51.9255V50.0855H145.966ZM146.238 50.0855V51.9255C146.238 54.9495 147.406 57.7975 149.518 59.0775L150.334 58.1015C148.35 56.9495 147.262 54.4375 147.262 51.9255V50.0855H146.238ZM143.23 49.5255V50.6295H149.838V49.5255H143.23ZM161.293 49.3335V50.5015C161.293 52.5655 159.853 54.4215 157.661 55.1895L158.365 56.2295C160.781 55.3655 162.381 53.1575 162.381 50.5015V49.3335H161.293ZM161.533 49.3335V50.4855C161.533 52.9815 163.069 55.1095 165.453 55.9415L166.141 54.9015C164.013 54.1815 162.621 52.4055 162.621 50.4855V49.3335H161.533ZM158.077 48.8535V49.9415H165.805V48.8535H158.077ZM167.629 47.8455V56.5495H168.957V47.8455H167.629ZM168.589 51.6535V52.7575H171.101V51.6535H168.589ZM159.565 57.3175V58.4215H167.629V62.3095H168.957V57.3175H159.565ZM182.988 47.8455V62.3095H184.316V47.8455H182.988ZM178.748 49.3975V49.6215C178.748 53.4615 176.812 56.5335 172.636 58.5495L173.34 59.6215C178.172 57.2535 180.06 53.5895 180.06 49.3975H178.748ZM173.292 49.3975V50.4855H179.324V49.3975H173.292ZM197.067 47.8455V58.4215H198.395V47.8455H197.067ZM197.979 52.2295V53.3335H200.539V52.2295H197.979ZM193.115 48.9655V49.5415C193.115 52.3255 190.827 54.5655 187.179 55.6855L187.755 56.7735C191.899 55.4455 194.523 52.7095 194.523 48.9655H193.115ZM187.771 48.9655V50.0535H193.787V48.9655H187.771ZM189.371 60.9015V61.9895H199.035V60.9015H189.371ZM189.371 57.3495V61.3335H190.699V57.3495H189.371ZM205.38 61.0615H212.74V59.8135H209.492C208.9 59.8135 208.196 59.8615 207.572 59.9255C210.34 57.3175 212.18 54.9335 212.18 52.5815C212.18 50.4855 210.868 49.1255 208.772 49.1255C207.284 49.1255 206.26 49.8135 205.3 50.8535L206.148 51.6695C206.804 50.9015 207.636 50.3095 208.596 50.3095C210.052 50.3095 210.74 51.3015 210.74 52.6455C210.74 54.6455 209.06 56.9975 205.38 60.2135V61.0615ZM217.999 61.2855C220.207 61.2855 221.631 59.2535 221.631 55.1575C221.631 51.0935 220.207 49.1255 217.999 49.1255C215.759 49.1255 214.335 51.0935 214.335 55.1575C214.335 59.2535 215.759 61.2855 217.999 61.2855ZM217.999 60.1015C216.655 60.1015 215.743 58.6135 215.743 55.1575C215.743 51.7495 216.655 50.2935 217.999 50.2935C219.327 50.2935 220.223 51.7495 220.223 55.1575C220.223 58.6135 219.327 60.1015 217.999 60.1015ZM223.13 61.0615H230.49V59.8135H227.242C226.65 59.8135 225.946 59.8615 225.322 59.9255C228.09 57.3175 229.93 54.9335 229.93 52.5815C229.93 50.4855 228.618 49.1255 226.522 49.1255C225.034 49.1255 224.01 49.8135 223.05 50.8535L223.898 51.6695C224.554 50.9015 225.386 50.3095 226.346 50.3095C227.802 50.3095 228.49 51.3015 228.49 52.6455C228.49 54.6455 226.81 56.9975 223.13 60.2135V61.0615ZM232.005 61.0615H239.365V59.8135H236.117C235.525 59.8135 234.821 59.8615 234.197 59.9255C236.965 57.3175 238.805 54.9335 238.805 52.5815C238.805 50.4855 237.493 49.1255 235.397 49.1255C233.909 49.1255 232.885 49.8135 231.925 50.8535L232.773 51.6695C233.429 50.9015 234.261 50.3095 235.221 50.3095C236.677 50.3095 237.365 51.3015 237.365 52.6455C237.365 54.6455 235.685 56.9975 232.005 60.2135V61.0615ZM249.754 56.4695C250.522 56.4695 251.322 55.9895 251.978 54.8855L251.162 54.2935C250.762 55.0615 250.314 55.3815 249.786 55.3815C248.778 55.3815 248.026 53.8615 246.618 53.8615C245.85 53.8615 245.034 54.3415 244.394 55.4775L245.21 56.0535C245.626 55.2855 246.074 54.9655 246.586 54.9655C247.594 54.9655 248.362 56.4695 249.754 56.4695Z" fill="#F1E2C3"/>
<defs>
<filter id="filter0_f_8_739" x="3.32983" y="3.33008" width="995.67" height="353.41" filterUnits="userSpaceOnUse" color-interpolation-filters="sRGB">
<feFlood flood-opacity="0" result="BackgroundImageFix"/>
<feBlend mode="normal" in="SourceGraphic" in2="BackgroundImageFix" result="shape"/>
<feGaussianBlur stdDeviation="2" result="effect1_foregroundBlur_8_739"/>
</filter>
<clipPath id="clip0_8_739">
<rect width="987.67" height="345.41" fill="white" transform="translate(7.32983 7.33008)"/>
</clipPath>
<clipPath id="clip1_8_739">
<rect width="987.67" height="345.41" fill="white"/>
</clipPath>
<clipPath id="clip2_8_739">
<rect width="252.873" height="261.119" fill="white" transform="translate(408.001 143.845) rotate(26.7584)"/>
</clipPath>
<clipPath id="clip3_8_739">
<rect width="94.7839" height="94.7839" fill="white" transform="translate(510.25 38.4805) rotate(41.0333)"/>
</clipPath>
</defs>
</svg>
