<svg width="375" height="493" viewBox="0 0 375 493" fill="none" xmlns="http://www.w3.org/2000/svg">
<mask id="mask0_156_82" style="mask-type:alpha" maskUnits="userSpaceOnUse" x="-2" y="0" width="377" height="494">
<rect x="-1.16162" y="0.708984" width="376.162" height="493" fill="#D9D9D9"/>
</mask>
<g mask="url(#mask0_156_82)">
<rect y="-8.14062" width="375" height="507" fill="#D94B19"/>
<g clip-path="url(#clip0_156_82)">
<path d="M104.231 428.737L-56.3831 347.751C-57.0641 349.984 -57.6816 352.217 -58.1849 354.476L99.8959 434.184C101.387 432.424 102.841 430.612 104.231 428.737Z" fill="#81A6C0"/>
<path d="M71.6123 456.181L-59.0787 390.283C-58.569 393.18 -57.9196 396.052 -57.1305 398.899L63.5268 459.737C66.285 458.679 68.9801 457.494 71.6123 456.181Z" fill="#81A6C0"/>
<path d="M88.4979 303.762L53.4055 286.067C46.5327 284.319 39.5934 283.396 32.6766 283.248L103.09 318.752C98.8832 313.292 93.9899 308.248 88.4979 303.762Z" fill="#81A6C0"/>
<path d="M95.4614 438.946L-59.4016 360.86C-59.7531 363.259 -60.054 365.683 -60.2152 368.083L90.1377 443.895C91.9712 442.338 93.767 440.668 95.4614 438.946Z" fill="#81A6C0"/>
<path d="M84.7402 448.17L-60.4438 374.964C-60.4281 377.58 -60.3108 380.184 -60.0665 382.788L78.2257 452.518C80.4645 451.166 82.6276 449.713 84.7402 448.17Z" fill="#81A6C0"/>
<path d="M116.578 405.702L-45.2024 324.128C-46.4406 326.017 -47.6408 327.956 -48.7525 329.972L113.99 412.031C114.925 409.926 115.796 407.82 116.578 405.702Z" fill="#81A6C0"/>
<path d="M110.082 329.275L20.0834 283.896C16.3247 284.354 12.6161 285.028 8.9827 285.931L115.046 339.411C113.611 335.953 111.949 332.57 110.082 329.275Z" fill="#81A6C0"/>
<path d="M120.204 392.9L-37.0913 313.588C-38.6335 315.323 -40.1378 317.109 -41.5535 318.971L118.529 399.689C119.185 397.443 119.726 395.172 120.204 392.9Z" fill="#81A6C0"/>
<path d="M118.111 347.954L0.266293 288.534C-2.55509 289.528 -5.33905 290.701 -8.07258 291.962L120.313 356.697C119.727 353.762 118.989 350.814 118.111 347.954Z" fill="#81A6C0"/>
<path d="M121.956 379.153L-27.0796 304.006C-28.9637 305.536 -30.7721 307.169 -32.5553 308.878L121.294 386.453C121.608 384.003 121.845 381.578 121.956 379.153Z" fill="#81A6C0"/>
<path d="M121.503 364.295L-14.838 295.548C-17.1276 296.874 -19.3666 298.29 -21.53 299.807L122.058 372.207C121.966 369.553 121.798 366.924 121.503 364.295Z" fill="#81A6C0"/>
<path d="M111.228 417.635L-51.6416 335.512C-52.6266 337.591 -53.5228 339.684 -54.3302 341.789L107.779 423.529C108.992 421.628 110.142 419.663 111.228 417.635Z" fill="#81A6C0"/>
<path d="M32.7124 465.827L-43.7056 427.295C-40.2712 432.144 -36.366 436.689 -31.9771 440.842L14.8466 464.452C20.7954 465.511 26.7719 465.949 32.7124 465.827Z" fill="#81A6C0"/>
<path d="M55.1396 462.505L-54.3945 407.275C-53.1123 410.657 -51.6015 413.963 -49.9125 417.169L44.5457 464.797C48.127 464.249 51.6583 463.485 55.1396 462.505Z" fill="#81A6C0"/>
</g>
<g clip-path="url(#clip1_156_82)">
<path d="M208.464 427.147L195.756 381.482L150.092 394.191L162.8 439.855L208.464 427.147Z" stroke="white" stroke-miterlimit="10"/>
</g>
<rect x="351" y="-8.14062" width="24" height="507" fill="#6D260D"/>
<mask id="mask1_156_82" style="mask-type:alpha" maskUnits="userSpaceOnUse" x="37" y="379" width="149" height="140">
<path d="M38 448.536C38 486.644 70.9071 517.536 111.5 517.536C152.093 517.536 185 486.644 185 448.536C185 410.428 152.093 379.536 111.5 379.536C70.9071 379.536 38 410.428 38 448.536Z" stroke="white" stroke-miterlimit="10"/>
</mask>
<g mask="url(#mask1_156_82)">
<rect x="-4" y="201.859" width="248" height="297" fill="#D9D9D9"/>
</g>
</g>
<defs>
<clipPath id="clip0_156_82">
<rect width="176.642" height="182.403" fill="white" transform="translate(152.399 335.982) rotate(116.758)"/>
</clipPath>
<clipPath id="clip1_156_82">
<rect width="66.2105" height="66.2105" fill="white" transform="translate(226 407.408) rotate(131.033)"/>
</clipPath>
</defs>
</svg>
