<svg width="158" height="51" viewBox="0 0 158 51" fill="none" xmlns="http://www.w3.org/2000/svg">
<circle cx="14.5" cy="14.5" r="14.5" fill="#F2AF5E"/>
<path d="M16.709 37C16.6178 37 16.5723 36.943 16.5723 36.8291V36.1113C16.5723 36.0999 16.578 36.0771 16.5894 36.043C16.6007 35.9974 16.6406 35.9746 16.709 35.9746C17.0964 35.9746 17.4552 35.9176 17.7856 35.8037C18.1274 35.6898 18.4237 35.536 18.6743 35.3423C18.925 35.1486 19.1243 34.915 19.2725 34.6416C19.4206 34.3682 19.4946 34.0719 19.4946 33.7529V16.3896C19.4946 15.82 19.4377 15.3757 19.3237 15.0566C19.2098 14.7262 19.0389 14.4813 18.811 14.3218C18.5946 14.1509 18.3154 14.0483 17.9736 14.0142C17.6432 13.9686 17.2559 13.9458 16.8115 13.9458H16.0425C15.9172 13.9458 15.826 13.8774 15.769 13.7407C15.7121 13.5926 15.6836 13.4673 15.6836 13.3647C15.6836 13.3078 15.695 13.2223 15.7178 13.1084C15.7406 12.9945 15.8032 12.9261 15.9058 12.9033C15.9172 12.9033 15.9513 12.9033 16.0083 12.9033C16.0767 12.9033 16.1906 12.9033 16.3501 12.9033C16.5096 12.8919 16.7204 12.8862 16.9824 12.8862C17.2559 12.8748 17.609 12.8634 18.042 12.8521C18.6686 12.8407 19.3351 12.8236 20.0415 12.8008C20.7593 12.778 21.4827 12.7552 22.2119 12.7324C22.9411 12.7096 23.6589 12.6925 24.3652 12.6812C25.083 12.6584 25.7552 12.647 26.3818 12.647H28.7915C29.703 12.647 30.5916 12.8008 31.4575 13.1084C32.3234 13.416 33.0924 13.8717 33.7646 14.4756C34.4368 15.068 34.978 15.8086 35.3882 16.6973C35.7983 17.5859 36.0034 18.6113 36.0034 19.7734C36.0034 20.5026 35.8952 21.2033 35.6787 21.8755C35.4622 22.5363 35.166 23.1458 34.79 23.7041C34.4255 24.2624 33.9982 24.7694 33.5083 25.2251C33.0298 25.6694 32.5228 26.0454 31.9873 26.353C31.4632 26.6606 30.9277 26.8942 30.3809 27.0537C29.9023 27.179 29.4523 27.2417 29.0308 27.2417C28.9624 27.2417 28.8997 27.2417 28.8428 27.2417L24.7583 27.0366C24.7469 27.0366 24.7013 27.0366 24.6216 27.0366C24.5418 27.0366 24.4849 27.048 24.4507 27.0708C24.4165 27.0936 24.3937 27.1164 24.3823 27.1392C24.3709 27.1619 24.3652 27.2075 24.3652 27.2759V33.7017C24.3652 34.146 24.4849 34.5163 24.7241 34.8125C24.9748 35.0973 25.2938 35.3252 25.6812 35.4961C26.0799 35.667 26.5243 35.7923 27.0142 35.8721C27.5041 35.9404 27.9883 35.9746 28.4668 35.9746C28.5352 35.9746 28.575 35.9917 28.5864 36.0259C28.5978 36.0601 28.6035 36.0885 28.6035 36.1113V36.8633C28.6035 36.8861 28.5921 36.9146 28.5693 36.9487C28.5579 36.9829 28.5238 37 28.4668 37H16.709ZM24.3994 25.1055C24.4108 25.1966 24.4336 25.2821 24.4678 25.3618C24.5133 25.4302 24.5988 25.4701 24.7241 25.4814C24.7697 25.4814 24.8494 25.4871 24.9634 25.4985C25.0887 25.5099 25.2311 25.5213 25.3906 25.5327C25.5501 25.5441 25.721 25.5555 25.9033 25.5669C26.097 25.5783 26.285 25.584 26.4673 25.584C27.2306 25.584 27.8971 25.4302 28.4668 25.1226C29.0479 24.8149 29.5264 24.3877 29.9023 23.8408C30.2897 23.2826 30.5745 22.6274 30.7568 21.8755C30.9505 21.1121 31.0474 20.2747 31.0474 19.3633C31.0474 17.4834 30.6714 16.1048 29.9194 15.2275C29.1675 14.3503 28.0623 13.9116 26.604 13.9116C26.4445 13.9116 26.2964 13.9173 26.1597 13.9287C26.0229 13.9287 25.8862 13.9344 25.7495 13.9458C25.6128 13.9458 25.4647 13.9515 25.3052 13.9629C25.1571 13.9629 24.9862 13.9686 24.7925 13.98C24.7241 13.98 24.633 13.9971 24.519 14.0312C24.4165 14.054 24.3652 14.1281 24.3652 14.2534V24.5928L24.3994 25.1055ZM35.8667 29.019C35.8667 27.9481 36.1003 26.9227 36.5674 25.9429C37.0459 24.9631 37.6839 24.0972 38.4814 23.3452C39.279 22.5933 40.2075 21.9951 41.2671 21.5508C42.3267 21.1064 43.4432 20.8843 44.6167 20.8843C45.8472 20.8843 47.015 21.0951 48.1201 21.5166C49.2253 21.9382 50.1937 22.5192 51.0254 23.2598C51.8685 23.9889 52.535 24.8548 53.0249 25.8574C53.5148 26.8486 53.7598 27.9253 53.7598 29.0874C53.7598 30.2723 53.5319 31.3774 53.0762 32.4028C52.6318 33.4168 52.0109 34.2998 51.2134 35.0518C50.4159 35.8037 49.4645 36.3962 48.3594 36.8291C47.2656 37.2507 46.0693 37.4614 44.7705 37.4614C43.4831 37.4614 42.2925 37.245 41.1987 36.812C40.1164 36.3677 39.1764 35.7695 38.3789 35.0176C37.5928 34.2542 36.9775 33.3599 36.5332 32.3345C36.0889 31.3091 35.8667 30.2039 35.8667 29.019ZM40.2417 27.9424C40.2417 28.5576 40.2873 29.1956 40.3784 29.8564C40.4696 30.5059 40.6063 31.1439 40.7886 31.7705C40.9709 32.3857 41.1987 32.9668 41.4722 33.5137C41.757 34.0605 42.0931 34.5448 42.4805 34.9663C42.8678 35.3765 43.3065 35.7012 43.7964 35.9404C44.2863 36.1797 44.8389 36.2993 45.4541 36.2993C46.1263 36.2993 46.7017 36.1284 47.1802 35.7866C47.6701 35.4334 48.0688 34.9777 48.3765 34.4194C48.6955 33.8612 48.929 33.2345 49.0771 32.5396C49.2253 31.8446 49.2993 31.1496 49.2993 30.4546C49.2993 29.8963 49.248 29.3096 49.1455 28.6943C49.043 28.0677 48.8892 27.4525 48.6841 26.8486C48.479 26.2334 48.2284 25.6466 47.9321 25.0884C47.6359 24.5301 47.2884 24.0402 46.8896 23.6187C46.5023 23.1857 46.0636 22.8439 45.5737 22.5933C45.0952 22.3426 44.5711 22.2173 44.0015 22.2173C43.3634 22.2173 42.8052 22.3939 42.3267 22.7471C41.8595 23.0889 41.4722 23.5389 41.1646 24.0972C40.8569 24.644 40.6234 25.2593 40.4639 25.9429C40.3158 26.6151 40.2417 27.2816 40.2417 27.9424ZM61.6382 20.9526C61.6838 20.9299 61.7293 20.9071 61.7749 20.8843C61.8319 20.8615 61.8717 20.8501 61.8945 20.8501C62.0882 20.8501 62.1851 20.9868 62.1851 21.2603V24.1655C62.1851 24.1997 62.1851 24.2453 62.1851 24.3022C62.1965 24.3478 62.2306 24.3706 62.2876 24.3706C62.3446 24.3706 62.3901 24.3535 62.4243 24.3193C62.4585 24.2738 62.4927 24.2339 62.5269 24.1997C62.7319 23.9263 62.9598 23.6243 63.2104 23.2939C63.4725 22.9521 63.7459 22.6331 64.0308 22.3369C64.327 22.0407 64.6289 21.7957 64.9365 21.6021C65.2441 21.397 65.5461 21.2944 65.8423 21.2944C66.0474 21.2944 66.3151 21.3514 66.6455 21.4653C66.9759 21.5793 67.2949 21.716 67.6025 21.8755C67.9215 22.0236 68.1893 22.1831 68.4058 22.354C68.6336 22.5135 68.7476 22.6445 68.7476 22.7471C68.7476 22.8496 68.6963 23.0433 68.5938 23.3281C68.4912 23.6016 68.3602 23.8807 68.2007 24.1655C68.0526 24.4504 67.8874 24.7067 67.7051 24.9346C67.5342 25.151 67.3747 25.2593 67.2266 25.2593H67.1924C66.9873 25.1909 66.7765 25.1112 66.5601 25.02C66.355 24.9175 66.1442 24.8206 65.9277 24.7295C65.7113 24.627 65.4891 24.5472 65.2612 24.4902C65.0448 24.4219 64.8226 24.3877 64.5947 24.3877C64.2529 24.3877 63.9339 24.4618 63.6377 24.6099C63.3415 24.7466 63.0851 24.9289 62.8687 25.1567C62.6636 25.3732 62.4984 25.6182 62.373 25.8916C62.2477 26.165 62.1851 26.4271 62.1851 26.6777V33.8896C62.1851 34.2201 62.2534 34.4992 62.3901 34.7271C62.5382 34.9435 62.7205 35.1258 62.937 35.2739C63.1649 35.4106 63.4098 35.5189 63.6719 35.5986C63.9453 35.667 64.2074 35.724 64.458 35.7695C64.7087 35.8151 64.9365 35.855 65.1416 35.8892C65.3467 35.9119 65.5005 35.9461 65.603 35.9917C65.717 36.0373 65.7739 36.1968 65.7739 36.4702C65.7739 36.8006 65.717 36.9772 65.603 37H55.7422C55.6283 36.9772 55.5713 36.8006 55.5713 36.4702C55.5713 36.1968 55.6283 36.0373 55.7422 35.9917C55.8903 35.9233 56.1011 35.8721 56.3745 35.8379C56.6479 35.7923 56.9214 35.7126 57.1948 35.5986C57.4683 35.4733 57.7075 35.2853 57.9126 35.0347C58.1177 34.7726 58.2202 34.391 58.2202 33.8896V25.6694C58.2202 25.396 58.1462 25.1852 57.998 25.0371C57.8499 24.8776 57.6619 24.758 57.4341 24.6782C57.2062 24.5985 56.9613 24.5358 56.6992 24.4902C56.4372 24.4333 56.1865 24.3706 55.9473 24.3022C55.8789 24.2795 55.8219 24.251 55.7764 24.2168C55.7422 24.1712 55.7251 24.0858 55.7251 23.9604C55.7251 23.9035 55.7422 23.8465 55.7764 23.7896C55.8105 23.7326 55.8789 23.6756 55.9814 23.6187L61.6382 20.9526ZM71.3452 23.8237H70.0635C69.904 23.8237 69.7786 23.7839 69.6875 23.7041C69.5964 23.6243 69.5451 23.5389 69.5337 23.4478C69.5337 23.3908 69.5451 23.3281 69.5679 23.2598C69.5907 23.1914 69.6191 23.1458 69.6533 23.123C69.8812 22.9749 70.1261 22.804 70.3882 22.6104C70.6616 22.4053 70.9294 22.1945 71.1914 21.978C71.4535 21.7616 71.7098 21.5451 71.9604 21.3286C72.2111 21.1121 72.4333 20.9128 72.627 20.7305C72.7409 20.6051 72.8947 20.4172 73.0884 20.1665C73.2935 19.9159 73.5213 19.6709 73.772 19.4316C74.034 19.181 74.3132 18.9645 74.6094 18.7822C74.9056 18.5885 75.2075 18.4917 75.5151 18.4917C75.5835 18.4917 75.6632 18.5145 75.7544 18.5601C75.8455 18.6056 75.8911 18.6626 75.8911 18.731C75.8911 18.8107 75.8683 18.936 75.8228 19.1069C75.7886 19.2664 75.743 19.4487 75.686 19.6538C75.6291 19.8589 75.5664 20.0754 75.498 20.3032C75.4297 20.5311 75.367 20.7533 75.3101 20.9697C75.3101 21.0609 75.3215 21.1349 75.3442 21.1919C75.3784 21.2489 75.4582 21.283 75.5835 21.2944H79.9414C80.1237 21.2944 80.249 21.3286 80.3174 21.397C80.3857 21.4539 80.437 21.5337 80.4712 21.6362C80.494 21.6932 80.5168 21.8128 80.5396 21.9951C80.5623 22.166 80.5851 22.3597 80.6079 22.5762C80.6307 22.7812 80.6478 22.992 80.6592 23.2085C80.682 23.4136 80.6934 23.5845 80.6934 23.7212C80.6934 23.7896 80.6478 23.8237 80.5566 23.8237H75.4126C75.3556 23.8237 75.3215 23.8351 75.3101 23.8579C75.3101 23.8807 75.3101 23.9206 75.3101 23.9775V32.4712C75.3101 32.8358 75.3556 33.1548 75.4468 33.4282C75.5379 33.7017 75.6519 33.9295 75.7886 34.1118C75.9367 34.2941 76.1019 34.4308 76.2842 34.522C76.4665 34.6131 76.6488 34.6587 76.8311 34.6587C77.3551 34.6587 77.7824 34.5846 78.1128 34.4365C78.4432 34.277 78.728 34.1061 78.9673 33.9238C79.2065 33.7415 79.4173 33.5763 79.5996 33.4282C79.7819 33.2687 79.987 33.189 80.2148 33.189C80.3743 33.189 80.4655 33.2516 80.4883 33.377C80.5225 33.5023 80.5396 33.5991 80.5396 33.6675C80.5396 33.8156 80.5168 33.9352 80.4712 34.0264C80.437 34.1061 80.4085 34.1688 80.3857 34.2144C80.3743 34.2371 80.3117 34.334 80.1978 34.5049C80.0838 34.6758 79.93 34.8809 79.7363 35.1201C79.5426 35.3594 79.3034 35.6157 79.0186 35.8892C78.7451 36.1626 78.4375 36.4189 78.0957 36.6582C77.7539 36.8861 77.3779 37.0741 76.9678 37.2222C76.569 37.3817 76.1475 37.4614 75.7031 37.4614C75.0879 37.4614 74.5125 37.3475 73.9771 37.1196C73.4416 36.8918 72.9801 36.5898 72.5928 36.2139C72.2054 35.8265 71.8978 35.3879 71.6699 34.8979C71.4535 34.408 71.3452 33.901 71.3452 33.377V23.8237ZM81.8213 36.4873C81.8213 36.4303 81.8384 36.3392 81.8726 36.2139C81.9067 36.0771 81.9466 35.9974 81.9922 35.9746C82.1403 35.9062 82.3511 35.855 82.6245 35.8208C82.8979 35.7866 83.1714 35.7126 83.4448 35.5986C83.7183 35.4733 83.9575 35.2853 84.1626 35.0347C84.3677 34.7726 84.4702 34.391 84.4702 33.8896V23.9946C84.4702 23.8693 84.4019 23.8066 84.2651 23.8066H82.4023C82.2656 23.8066 82.1346 23.7668 82.0093 23.687C81.884 23.5959 81.8213 23.4705 81.8213 23.311C81.8213 23.1857 81.884 23.0775 82.0093 22.9863C82.146 22.8952 82.3112 22.804 82.5049 22.7129C82.6986 22.6217 82.9093 22.5363 83.1372 22.4565C83.3765 22.3654 83.5929 22.2686 83.7866 22.166C83.9803 22.0521 84.1398 21.9268 84.2651 21.79C84.4019 21.6533 84.4702 21.4881 84.4702 21.2944V20.7305C84.4702 19.1354 84.6753 17.5973 85.0854 16.1162C85.4956 14.6351 86.1108 13.3249 86.9312 12.1855C87.7629 11.0462 88.7939 10.1348 90.0244 9.45117C91.2663 8.76758 92.7132 8.42578 94.3652 8.42578C94.5247 8.42578 94.8096 8.47135 95.2197 8.5625C95.6299 8.65365 96.0514 8.77897 96.4844 8.93848C96.9173 9.09798 97.299 9.28597 97.6294 9.50244C97.9598 9.71891 98.125 9.95247 98.125 10.2031C98.125 10.2943 98.1079 10.374 98.0737 10.4424C98.0509 10.5107 98.0225 10.5962 97.9883 10.6987C97.9655 10.7557 97.9028 10.8867 97.8003 11.0918C97.7091 11.2969 97.6123 11.5247 97.5098 11.7754C97.4072 12.0146 97.3047 12.2425 97.2021 12.459C97.111 12.6755 97.054 12.8122 97.0312 12.8691C97.0085 12.9147 96.9629 12.9717 96.8945 13.04C96.8376 13.1084 96.7749 13.1426 96.7065 13.1426C96.6838 13.1426 96.6553 13.1369 96.6211 13.1255C96.5983 13.1027 96.5299 13.0457 96.416 12.9546C96.154 12.7381 95.8577 12.4989 95.5273 12.2368C95.1969 11.9748 94.8438 11.7298 94.4678 11.502C94.0918 11.2627 93.6987 11.0633 93.2886 10.9038C92.8784 10.7443 92.4626 10.6646 92.041 10.6646C91.141 10.6646 90.446 10.7956 89.9561 11.0576C89.4775 11.3197 89.1243 11.6615 88.8965 12.083C88.6686 12.5046 88.5319 12.9774 88.4863 13.5015C88.4521 14.0142 88.4351 14.5326 88.4351 15.0566V21.1406C88.4351 21.209 88.4465 21.2489 88.4692 21.2603C88.5034 21.2716 88.549 21.2773 88.606 21.2773H91.9385C92.2575 21.2773 92.4626 21.3115 92.5537 21.3799C92.6562 21.4368 92.7303 21.5508 92.7759 21.7217C92.8442 21.9837 92.8955 22.2743 92.9297 22.5933C92.9639 22.9123 92.981 23.1971 92.981 23.4478C92.981 23.5959 92.9525 23.6927 92.8955 23.7383C92.8385 23.7839 92.7189 23.8066 92.5366 23.8066H88.6572C88.6344 23.8066 88.5889 23.8123 88.5205 23.8237C88.4635 23.8351 88.4351 23.8864 88.4351 23.9775V33.5479C88.4351 34.0492 88.5604 34.4593 88.811 34.7783C89.0617 35.0859 89.3864 35.3309 89.7852 35.5132C90.1953 35.6955 90.651 35.8208 91.1523 35.8892C91.665 35.9461 92.172 35.9746 92.6733 35.9746C92.7759 35.986 92.8499 36.0601 92.8955 36.1968C92.9525 36.3335 92.981 36.4303 92.981 36.4873C92.981 36.5101 92.9753 36.55 92.9639 36.6069C92.9639 36.6639 92.9525 36.7209 92.9297 36.7778C92.9183 36.8348 92.8898 36.8861 92.8442 36.9316C92.7987 36.9772 92.7417 37 92.6733 37H81.9922C81.9238 36.9772 81.8783 36.9032 81.8555 36.7778C81.8327 36.6525 81.8213 36.5557 81.8213 36.4873ZM94.3823 29.019C94.3823 27.9481 94.6159 26.9227 95.083 25.9429C95.5615 24.9631 96.1995 24.0972 96.9971 23.3452C97.7946 22.5933 98.7231 21.9951 99.7827 21.5508C100.842 21.1064 101.959 20.8843 103.132 20.8843C104.363 20.8843 105.531 21.0951 106.636 21.5166C107.741 21.9382 108.709 22.5192 109.541 23.2598C110.384 23.9889 111.051 24.8548 111.541 25.8574C112.03 26.8486 112.275 27.9253 112.275 29.0874C112.275 30.2723 112.048 31.3774 111.592 32.4028C111.147 33.4168 110.527 34.2998 109.729 35.0518C108.931 35.8037 107.98 36.3962 106.875 36.8291C105.781 37.2507 104.585 37.4614 103.286 37.4614C101.999 37.4614 100.808 37.245 99.7144 36.812C98.632 36.3677 97.6921 35.7695 96.8945 35.0176C96.1084 34.2542 95.4932 33.3599 95.0488 32.3345C94.6045 31.3091 94.3823 30.2039 94.3823 29.019ZM98.7573 27.9424C98.7573 28.5576 98.8029 29.1956 98.894 29.8564C98.9852 30.5059 99.1219 31.1439 99.3042 31.7705C99.4865 32.3857 99.7144 32.9668 99.9878 33.5137C100.273 34.0605 100.609 34.5448 100.996 34.9663C101.383 35.3765 101.822 35.7012 102.312 35.9404C102.802 36.1797 103.354 36.2993 103.97 36.2993C104.642 36.2993 105.217 36.1284 105.696 35.7866C106.186 35.4334 106.584 34.9777 106.892 34.4194C107.211 33.8612 107.445 33.2345 107.593 32.5396C107.741 31.8446 107.815 31.1496 107.815 30.4546C107.815 29.8963 107.764 29.3096 107.661 28.6943C107.559 28.0677 107.405 27.4525 107.2 26.8486C106.995 26.2334 106.744 25.6466 106.448 25.0884C106.152 24.5301 105.804 24.0402 105.405 23.6187C105.018 23.1857 104.579 22.8439 104.089 22.5933C103.611 22.3426 103.087 22.2173 102.517 22.2173C101.879 22.2173 101.321 22.3939 100.842 22.7471C100.375 23.0889 99.9878 23.5389 99.6802 24.0972C99.3726 24.644 99.139 25.2593 98.9795 25.9429C98.8314 26.6151 98.7573 27.2816 98.7573 27.9424ZM123.179 36.4873C123.179 36.5557 123.167 36.6525 123.145 36.7778C123.122 36.9032 123.076 36.9772 123.008 37H114.087C114.019 36.9772 113.973 36.9032 113.95 36.7778C113.927 36.6525 113.916 36.5557 113.916 36.4873C113.916 36.4303 113.933 36.3392 113.967 36.2139C114.001 36.0885 114.041 36.0145 114.087 35.9917C114.235 35.9233 114.446 35.8721 114.719 35.8379C114.993 35.7923 115.266 35.7126 115.54 35.5986C115.813 35.4733 116.052 35.2853 116.257 35.0347C116.462 34.7726 116.565 34.391 116.565 33.8896V13.9629C116.565 13.6895 116.491 13.4787 116.343 13.3306C116.195 13.1711 116.007 13.0514 115.779 12.9717C115.551 12.8919 115.306 12.8293 115.044 12.7837C114.782 12.7267 114.531 12.6641 114.292 12.5957C114.144 12.5387 114.07 12.3792 114.07 12.1172C114.07 12.0602 114.087 11.9862 114.121 11.895C114.155 11.7925 114.224 11.7127 114.326 11.6558L119.983 8.98975C120.028 8.96696 120.08 8.94417 120.137 8.92139C120.194 8.8986 120.256 8.88721 120.325 8.88721C120.416 8.88721 120.473 8.92139 120.496 8.98975C120.518 9.04671 120.53 9.14925 120.53 9.29736V33.8896C120.53 34.391 120.632 34.7726 120.837 35.0347C121.042 35.2853 121.282 35.4733 121.555 35.5986C121.829 35.7126 122.102 35.7923 122.375 35.8379C122.649 35.8721 122.86 35.9233 123.008 35.9917C123.053 36.0145 123.093 36.0885 123.127 36.2139C123.162 36.3392 123.179 36.4303 123.179 36.4873ZM124.99 37C124.922 36.9772 124.876 36.9032 124.854 36.7778C124.831 36.6411 124.819 36.5386 124.819 36.4702C124.819 36.4132 124.836 36.3221 124.871 36.1968C124.905 36.0715 124.945 35.9974 124.99 35.9746C125.138 35.9062 125.349 35.855 125.623 35.8208C125.896 35.7752 126.169 35.6955 126.443 35.5815C126.716 35.4562 126.956 35.2682 127.161 35.0176C127.366 34.7555 127.468 34.3739 127.468 33.8726V25.6694C127.468 25.396 127.394 25.1852 127.246 25.0371C127.098 24.8776 126.91 24.758 126.682 24.6782C126.454 24.5985 126.209 24.5358 125.947 24.4902C125.685 24.4333 125.435 24.3706 125.195 24.3022C125.127 24.2795 125.07 24.251 125.024 24.2168C124.99 24.1712 124.973 24.0858 124.973 23.9604C124.973 23.9035 124.99 23.8465 125.024 23.7896C125.059 23.7326 125.127 23.6756 125.229 23.6187L130.886 20.9526C130.932 20.9299 130.977 20.9071 131.023 20.8843C131.08 20.8615 131.12 20.8501 131.143 20.8501C131.336 20.8501 131.433 20.9868 131.433 21.2603V33.8726C131.433 34.3739 131.536 34.7555 131.741 35.0176C131.946 35.2682 132.185 35.4562 132.458 35.5815C132.732 35.6955 133.005 35.7752 133.279 35.8208C133.552 35.855 133.763 35.9062 133.911 35.9746C133.957 35.9974 133.997 36.0715 134.031 36.1968C134.065 36.3221 134.082 36.4132 134.082 36.4702C134.082 36.5386 134.071 36.6411 134.048 36.7778C134.025 36.9032 133.979 36.9772 133.911 37H124.99ZM126.733 14.6636C126.733 13.9344 126.95 13.3534 127.383 12.9204C127.816 12.4875 128.397 12.271 129.126 12.271C129.855 12.271 130.436 12.4875 130.869 12.9204C131.302 13.3534 131.519 13.9344 131.519 14.6636C131.519 15.3927 131.302 15.9738 130.869 16.4067C130.436 16.8283 129.855 17.0391 129.126 17.0391C128.397 17.0391 127.816 16.8283 127.383 16.4067C126.95 15.9738 126.733 15.3927 126.733 14.6636ZM136.218 29.019C136.218 27.9481 136.452 26.9227 136.919 25.9429C137.397 24.9631 138.035 24.0972 138.833 23.3452C139.631 22.5933 140.559 21.9951 141.619 21.5508C142.678 21.1064 143.795 20.8843 144.968 20.8843C146.199 20.8843 147.367 21.0951 148.472 21.5166C149.577 21.9382 150.545 22.5192 151.377 23.2598C152.22 23.9889 152.887 24.8548 153.376 25.8574C153.866 26.8486 154.111 27.9253 154.111 29.0874C154.111 30.2723 153.883 31.3774 153.428 32.4028C152.983 33.4168 152.362 34.2998 151.565 35.0518C150.767 35.8037 149.816 36.3962 148.711 36.8291C147.617 37.2507 146.421 37.4614 145.122 37.4614C143.835 37.4614 142.644 37.245 141.55 36.812C140.468 36.3677 139.528 35.7695 138.73 35.0176C137.944 34.2542 137.329 33.3599 136.885 32.3345C136.44 31.3091 136.218 30.2039 136.218 29.019ZM140.593 27.9424C140.593 28.5576 140.639 29.1956 140.73 29.8564C140.821 30.5059 140.958 31.1439 141.14 31.7705C141.322 32.3857 141.55 32.9668 141.824 33.5137C142.109 34.0605 142.445 34.5448 142.832 34.9663C143.219 35.3765 143.658 35.7012 144.148 35.9404C144.638 36.1797 145.19 36.2993 145.806 36.2993C146.478 36.2993 147.053 36.1284 147.532 35.7866C148.022 35.4334 148.42 34.9777 148.728 34.4194C149.047 33.8612 149.281 33.2345 149.429 32.5396C149.577 31.8446 149.651 31.1496 149.651 30.4546C149.651 29.8963 149.6 29.3096 149.497 28.6943C149.395 28.0677 149.241 27.4525 149.036 26.8486C148.831 26.2334 148.58 25.6466 148.284 25.0884C147.987 24.5301 147.64 24.0402 147.241 23.6187C146.854 23.1857 146.415 22.8439 145.925 22.5933C145.447 22.3426 144.923 22.2173 144.353 22.2173C143.715 22.2173 143.157 22.3939 142.678 22.7471C142.211 23.0889 141.824 23.5389 141.516 24.0972C141.208 24.644 140.975 25.2593 140.815 25.9429C140.667 26.6151 140.593 27.2816 140.593 27.9424Z" fill="#D94B19"/>
</svg>
